<svg width="1949" height="1307" viewBox="0 0 1949 1307" xmlns="http://www.w3.org/2000/svg" xmlns:xlink="http://www.w3.org/1999/xlink">
    <defs>
        <path d="M88.898 96h6.087v-2.03h-6.087V96zm-12.174 0h6.087v-2.03h-6.087V96zm-12.175 0h6.087v-2.03H64.55V96zm-12.174 0h6.087v-2.03h-6.087V96zM40.2 96h6.087v-2.03H40.2V96zm-12.174 0h6.087v-2.03h-6.087V96zM15.85 96h6.087v-2.03h-6.087V96zM3.677 96h6.087v-2.03H3.677V96zM0 91.558h2.03v-6.087H0v6.087zm93.97-1.132H96V84.34h-2.03v6.087zM0 79.384h2.03v-6.087H0v6.087zm93.97-1.132H96v-6.088h-2.03v6.088zM0 67.209h2.03v-6.087H0v6.087zm93.97-1.132H96V59.99h-2.03v6.087zM0 55.035h2.03v-6.087H0v6.087zm93.97-1.132H96v-6.088h-2.03v6.088zM0 42.86h2.03v-6.087H0v6.087zm93.97-1.132H96v-6.087h-2.03v6.087zM0 30.686h2.03v-6.087H0v6.087zm93.97-1.132H96v-6.088h-2.03v6.088zM0 18.51h2.03v-6.087H0v6.087zm93.97-1.132H96v-6.087h-2.03v6.087zM2.03 6.337H0V0h1.78v1.015h.25v5.322zM96 5.205h-2.03V2.029h-.882V0H96v5.205zM80.914 2.029H87V0h-6.087v2.03zm-12.175 0h6.088V0h-6.088v2.03zm-12.174 0h6.087V0h-6.087v2.03zm-12.175 0h6.088V0H44.39v2.03zm-12.174 0h6.087V0h-6.087v2.03zm-12.175 0h6.088V0H20.04v2.03zm-12.174 0h6.087V0H7.867v2.03z" id="3yo7yhtxoa"/>
        <path d="M88.896 96h6.09v-2.03h-6.09V96zm-12.172 0h6.087v-2.03h-6.087V96zm-12.175 0h6.087v-2.03H64.55V96zm-12.176 0h6.089v-2.03h-6.09V96zM40.2 96h6.085v-2.03H40.2V96zm-12.174 0h6.087v-2.03h-6.087V96zM15.85 96h6.087v-2.03h-6.087V96zM3.677 96h6.085v-2.03H3.677V96zM0 91.56h2.03v-6.087H0v6.087zm93.97-1.132H96v-6.087h-2.03v6.087zM0 79.386h2.03v-6.088H0v6.088zm93.97-1.133H96v-6.09h-2.03v6.09zM0 67.211h2.03v-6.088H0v6.088zm93.97-1.135H96v-6.085h-2.03v6.085zM0 55.036h2.03v-6.087H0v6.087zm93.97-1.132H96v-6.088h-2.03v6.088zM0 42.86h2.03v-6.087H0v6.087zm93.97-1.132H96v-6.087h-2.03v6.087zM0 30.686h2.03V24.6H0v6.087zm93.97-1.134H96v-6.085h-2.03v6.085zM0 18.512h2.03v-6.088H0v6.088zm93.97-1.133H96v-6.087h-2.03v6.087zM2.03 6.337H0V0h1.777v1.015h.252v5.322zM96 5.205h-2.03V2.029h-.884V0H96v5.205zM80.912 2.029h6.087V0h-6.087v2.03zm-12.175 0h6.087V0h-6.087v2.03zm-12.172 0h6.085V0h-6.085v2.03zm-12.177 0h6.087V0h-6.087v2.03zm-12.174 0H38.3V0h-6.087v2.03zm-12.173 0h6.085V0h-6.085v2.03zm-12.176 0h6.087V0H7.865v2.03z" id="qvgivycm8d"/>
        <path d="M159.852 2H166V0h-6.148v2zm-12.296 0h6.148V0h-6.148v2zm-12.297 0h6.148V0h-6.148v2zm-12.296 0h6.148V0h-6.148v2zm-12.296 0h6.148V0h-6.148v2zM98.37 2h6.149V0H98.37v2zM86.074 2h6.148V0h-6.148v2zM73.778 2h6.148V0h-6.148v2zM61.48 2h6.149V0H61.48v2zM49.185 2h6.148V0h-6.148v2zM36.89 2h6.148V0h-6.148v2zM24.593 2h6.148V0h-6.148v2zM12.296 2h6.148V0h-6.148v2zM0 2h6.148V0H0v2z" id="cg64mrrswg"/>
        <path d="M159.852 2H166V0h-6.148v2zm-12.296 0h6.148V0h-6.148v2zm-12.297 0h6.148V0h-6.148v2zm-12.296 0h6.148V0h-6.148v2zm-12.296 0h6.148V0h-6.148v2zM98.37 2h6.149V0H98.37v2zM86.074 2h6.148V0h-6.148v2zM73.778 2h6.148V0h-6.148v2zM61.48 2h6.149V0H61.48v2zM49.185 2h6.148V0h-6.148v2zM36.89 2h6.148V0h-6.148v2zM24.593 2h6.148V0h-6.148v2zM12.296 2h6.148V0h-6.148v2zM0 2h6.148V0H0v2z" id="2q965kp1nj"/>
        <path d="M159.852 2H166V0h-6.148v2zm-12.296 0h6.148V0h-6.148v2zm-12.297 0h6.148V0h-6.148v2zm-12.296 0h6.148V0h-6.148v2zm-12.296 0h6.148V0h-6.148v2zM98.37 2h6.149V0H98.37v2zM86.074 2h6.148V0h-6.148v2zM73.778 2h6.148V0h-6.148v2zM61.48 2h6.149V0H61.48v2zM49.185 2h6.148V0h-6.148v2zM36.89 2h6.148V0h-6.148v2zM24.593 2h6.148V0h-6.148v2zM12.296 2h6.148V0h-6.148v2zM0 2h6.148V0H0v2z" id="526gysdnxm"/>
        <path d="M159.852 2H166V0h-6.148v2zm-12.296 0h6.148V0h-6.148v2zm-12.297 0h6.148V0h-6.148v2zm-12.296 0h6.148V0h-6.148v2zm-12.296 0h6.148V0h-6.148v2zM98.37 2h6.149V0H98.37v2zM86.074 2h6.148V0h-6.148v2zM73.778 2h6.148V0h-6.148v2zM61.48 2h6.149V0H61.48v2zM49.185 2h6.148V0h-6.148v2zM36.89 2h6.148V0h-6.148v2zM24.593 2h6.148V0h-6.148v2zM12.296 2h6.148V0h-6.148v2zM0 2h6.148V0H0v2z" id="a6cr9yhdep"/>
        <path d="M56.791 0C68.32 0 79.044 3.417 88 9.289v94.423C79.044 109.583 68.319 113 56.791 113 25.426 113 0 87.704 0 56.501" id="c9xfvpxues"/>
        <path d="M113 56.501C113 87.704 87.704 113 56.499 113 25.296 113 0 87.704 0 56.501 0 25.296 25.296 0 56.499 0 87.704 0 113 25.296 113 56.501" id="0p8dip08lu"/>
        <radialGradient cx="284.425%" cy="7.26%" fx="284.425%" fy="7.26%" r="338.204%" id="i527wzxufb">
            <stop stop-color="#808285" offset="0%"/>
            <stop stop-color="#404244" offset="100%"/>
        </radialGradient>
        <radialGradient cx="247.451%" cy="-24.523%" fx="247.451%" fy="-24.523%" r="338.204%" id="twisdfyi4e">
            <stop stop-color="#808285" offset="0%"/>
            <stop stop-color="#404244" offset="100%"/>
        </radialGradient>
        <radialGradient cx="-80.641%" cy="-2190.8%" fx="-80.641%" fy="-2190.8%" r="16396.189%" gradientTransform="matrix(.012 0 0 1 -.797 0)" id="x44y3nql9h">
            <stop stop-color="#808285" offset="0%"/>
            <stop stop-color="#404244" offset="100%"/>
        </radialGradient>
        <radialGradient cx="-80.641%" cy="-701.2%" fx="-80.641%" fy="-701.2%" r="16396.189%" gradientTransform="matrix(.012 0 0 1 -.797 0)" id="b57p2rl5yk">
            <stop stop-color="#808285" offset="0%"/>
            <stop stop-color="#404244" offset="100%"/>
        </radialGradient>
        <radialGradient cx="-80.641%" cy="788.5%" fx="-80.641%" fy="788.5%" r="16396.189%" gradientTransform="matrix(.012 0 0 1 -.797 0)" id="l52g6bri4n">
            <stop stop-color="#808285" offset="0%"/>
            <stop stop-color="#404244" offset="100%"/>
        </radialGradient>
        <radialGradient cx="-80.641%" cy="2278.2%" fx="-80.641%" fy="2278.2%" r="16396.189%" gradientTransform="matrix(.012 0 0 1 -.797 0)" id="5z09yps8eq">
            <stop stop-color="#808285" offset="0%"/>
            <stop stop-color="#404244" offset="100%"/>
        </radialGradient>
    </defs>
    <g fill="none" fill-rule="evenodd" opacity=".198">
        <path d="M34 1208.501a3.5 3.5 0 1 1-7-.002 3.5 3.5 0 0 1 7 .002M34 1239.5a3.5 3.5 0 1 1-7 0 3.5 3.5 0 0 1 7 0M34 1271.499a3.5 3.5 0 1 1-7 .001 3.5 3.5 0 0 1 7-.001" fill="#808285" opacity=".34"/>
        <path d="M1040.482 1110.243a3.758 3.758 0 0 0 3.758 3.757 3.758 3.758 0 0 0 3.76-3.757 3.758 3.758 0 0 0-3.76-3.754 3.757 3.757 0 0 0-3.758 3.754" fill="#F89319"/>
        <path fill="#808285" d="m.98 745.067 37.39 20.76 36.901-20.484 36.906 20.483 36.91-20.483 36.41 20.207.997-1.79L149.086 743l-36.91 20.483L75.272 743 38.37 763.483 1.977 743.277l-.997 1.79"/>
        <path fill="#808285" d="m.98 760.087 37.39 20.76 36.901-20.484 36.906 20.483 36.91-20.483 36.41 20.207.997-1.79-37.408-20.76-36.91 20.483-36.905-20.483-36.901 20.483-36.393-20.206-.997 1.79"/>
        <path fill="#808285" d="m.98 775.11 37.39 20.759 36.901-20.483 36.906 20.483 36.91-20.483 36.41 20.206.997-1.792-37.408-20.758-36.91 20.483-36.905-20.483-36.901 20.483L1.977 773.32l-.997 1.79"/>
        <path fill="#808285" d="m.98 790.13 37.39 20.759 36.901-20.483 36.906 20.483 36.91-20.483 36.41 20.206.997-1.79-37.408-20.76-36.91 20.484-36.905-20.483-36.901 20.483-36.393-20.207-.997 1.79"/>
        <path fill="#808285" opacity=".34" d="M35.263 290 180 175.614 178.737 174 34 288.386"/>
        <path fill="#FFDE17" opacity=".34" d="m20 496.329 18.279 21.887-18.239 19.363L21.5 539 41 518.3 21.54 495 20 496.329"/>
        <path d="M743.724 803h6.087v-2.03h-6.087V803zm-12.175 0h6.087v-2.03h-6.087V803zm-12.174 0h6.087v-2.03h-6.087V803zm-12.175 0h6.087v-2.03H707.2V803zm-12.174 0h6.087v-2.03h-6.087V803zm-12.175 0h6.087v-2.03h-6.087V803zm-12.174 0h6.087v-2.03h-6.087V803zM667 798.558h2.03v-6.087H667v6.087zm0-12.174h2.03v-6.087H667v6.087zm0-12.175h2.03v-6.087H667v6.087zm0-12.174h2.03v-6.087H667v6.087zm0-12.175h2.03v-6.087H667v6.087zm0-12.174h2.03v-6.087H667v6.087zm0-12.175h2.03v-6.087H667v6.087zm2.03-12.174v-5.322h-1.015v1.014h.765V707H667v6.337h2.03zm5.837-4.308h6.087V707h-6.087v2.03zm12.174 0h6.088V707h-6.088v2.03zm12.175 0h6.087V707h-6.087v2.03zm12.174 0h6.088V707h-6.088v2.03zm12.175 0h6.087V707h-6.087v2.03zm12.174 0h6.088V707h-6.088v2.03zm12.175 0H754V707h-6.087v2.03zm12.174 0h.883v3.176H763V707h-2.912v2.03zm.883 15.35H763v-6.087h-2.03v6.087zm0 12.175H763v-6.088h-2.03v6.088zm0 12.174H763v-6.087h-2.03v6.087zm0 12.175H763v-6.088h-2.03v6.088zm0 12.174H763v-6.087h-2.03v6.087zm0 12.175H763v-6.088h-2.03v6.088zm0 12.174H763v-6.087h-2.03v6.087zM755.898 803h6.087v-2.03h-6.087V803zM778.724 833h6.087v-2.03h-6.087V833zm-12.175 0h6.087v-2.03h-6.087V833zm-12.176 0h6.089v-2.03h-6.09V833zm-12.173 0h6.085v-2.03H742.2V833zm-12.174 0h6.087v-2.03h-6.087V833zm-12.175 0h6.087v-2.03h-6.087V833zm-12.174 0h6.085v-2.03h-6.085V833zM702 828.56h2.03v-6.087H702v6.087zm0-12.174h2.03v-6.088H702v6.088zm0-12.175h2.03v-6.088H702v6.088zm0-12.175h2.03v-6.087H702v6.087zm0-12.175h2.03v-6.087H702v6.087zm0-12.175h2.03V761.6H702v6.087zm0-12.174h2.03v-6.088H702v6.088zm2.03-12.175v-5.322h-1.015v1.014h.762V737H702v6.337h2.03zm5.835-4.308h6.087V737h-6.087v2.03zm12.176 0h6.085V737h-6.085v2.03zm12.173 0h6.087V737h-6.087v2.03zm12.174 0h6.087V737h-6.087v2.03zm12.177 0h6.085V737h-6.085v2.03zm12.172 0h6.087V737h-6.087v2.03zm12.175 0h6.087V737h-6.087v2.03zm12.174 0h.885v3.176H798V737h-2.914v2.03zm.885 15.35H798v-6.087h-2.03v6.087zm0 12.173H798v-6.085h-2.03v6.085zm0 12.177H798v-6.087h-2.03v6.087zm0 12.175H798v-6.088h-2.03v6.088zm0 12.172H798v-6.085h-2.03v6.085zm0 12.177H798v-6.09h-2.03v6.09zm0 12.175H798v-6.087h-2.03v6.087zM790.896 833h6.09v-2.03h-6.09V833zM1076 760h6.148v-2H1076v2zm12.296 0h6.148v-2h-6.148v2zm12.297 0h6.148v-2h-6.148v2zm12.296 0h6.148v-2h-6.148v2zm12.296 0h6.148v-2h-6.148v2zm12.296 0h6.149v-2h-6.149v2zm12.297 0h6.148v-2h-6.148v2zm12.296 0h6.148v-2h-6.148v2zm12.296 0h6.149v-2h-6.149v2zm12.297 0h6.148v-2h-6.148v2zm12.296 0h6.148v-2h-6.148v2zm12.296 0h6.148v-2h-6.148v2zm12.297 0h6.148v-2h-6.148v2zm12.296 0H1242v-2h-6.148v2zM1076 730h6.148v-2H1076v2zm12.296 0h6.148v-2h-6.148v2zm12.297 0h6.148v-2h-6.148v2zm12.296 0h6.148v-2h-6.148v2zm12.296 0h6.148v-2h-6.148v2zm12.296 0h6.149v-2h-6.149v2zm12.297 0h6.148v-2h-6.148v2zm12.296 0h6.148v-2h-6.148v2zm12.296 0h6.149v-2h-6.149v2zm12.297 0h6.148v-2h-6.148v2zm12.296 0h6.148v-2h-6.148v2zm12.296 0h6.148v-2h-6.148v2zm12.297 0h6.148v-2h-6.148v2zm12.296 0H1242v-2h-6.148v2zM1076 699h6.148v-2H1076v2zm12.296 0h6.148v-2h-6.148v2zm12.297 0h6.148v-2h-6.148v2zm12.296 0h6.148v-2h-6.148v2zm12.296 0h6.148v-2h-6.148v2zm12.296 0h6.149v-2h-6.149v2zm12.297 0h6.148v-2h-6.148v2zm12.296 0h6.148v-2h-6.148v2zm12.296 0h6.149v-2h-6.149v2zm12.297 0h6.148v-2h-6.148v2zm12.296 0h6.148v-2h-6.148v2zm12.296 0h6.148v-2h-6.148v2zm12.297 0h6.148v-2h-6.148v2zm12.296 0H1242v-2h-6.148v2zM1076 669h6.148v-2H1076v2zm12.296 0h6.148v-2h-6.148v2zm12.297 0h6.148v-2h-6.148v2zm12.296 0h6.148v-2h-6.148v2zm12.296 0h6.148v-2h-6.148v2zm12.296 0h6.149v-2h-6.149v2zm12.297 0h6.148v-2h-6.148v2zm12.296 0h6.148v-2h-6.148v2zm12.296 0h6.149v-2h-6.149v2zm12.297 0h6.148v-2h-6.148v2zm12.296 0h6.148v-2h-6.148v2zm12.296 0h6.148v-2h-6.148v2zm12.297 0h6.148v-2h-6.148v2zm12.296 0H1242v-2h-6.148v2z" fill="#808285" opacity=".34"/>
        <g opacity=".34" transform="translate(667 707)">
            <mask id="mfjr0p3abc" fill="#fff">
                <use xlink:href="#3yo7yhtxoa"/>
            </mask>
            <path d="M88.898 96h6.087v-2.03h-6.087V96zm-12.174 0h6.087v-2.03h-6.087V96zm-12.175 0h6.087v-2.03H64.55V96zm-12.174 0h6.087v-2.03h-6.087V96zM40.2 96h6.087v-2.03H40.2V96zm-12.174 0h6.087v-2.03h-6.087V96zM15.85 96h6.087v-2.03h-6.087V96zM3.677 96h6.087v-2.03H3.677V96zM0 91.558h2.03v-6.087H0v6.087zm93.97-1.132H96V84.34h-2.03v6.087zM0 79.384h2.03v-6.087H0v6.087zm93.97-1.132H96v-6.088h-2.03v6.088zM0 67.209h2.03v-6.087H0v6.087zm93.97-1.132H96V59.99h-2.03v6.087zM0 55.035h2.03v-6.087H0v6.087zm93.97-1.132H96v-6.088h-2.03v6.088zM0 42.86h2.03v-6.087H0v6.087zm93.97-1.132H96v-6.087h-2.03v6.087zM0 30.686h2.03v-6.087H0v6.087zm93.97-1.132H96v-6.088h-2.03v6.088zM0 18.51h2.03v-6.087H0v6.087zm93.97-1.132H96v-6.087h-2.03v6.087zM2.03 6.337H0V0h1.78v1.015h.25v5.322zM96 5.205h-2.03V2.029h-.882V0H96v5.205zM80.914 2.029H87V0h-6.087v2.03zm-12.175 0h6.088V0h-6.088v2.03zm-12.174 0h6.087V0h-6.087v2.03zm-12.175 0h6.088V0H44.39v2.03zm-12.174 0h6.087V0h-6.087v2.03zm-12.175 0h6.088V0H20.04v2.03zm-12.174 0h6.087V0H7.867v2.03z" fill="url(#i527wzxufb)" mask="url(#mfjr0p3abc)"/>
        </g>
        <g opacity=".34" transform="translate(702 737)">
            <mask id="5v9dgg49sf" fill="#fff">
                <use xlink:href="#qvgivycm8d"/>
            </mask>
            <path d="M88.896 96h6.09v-2.03h-6.09V96zm-12.172 0h6.087v-2.03h-6.087V96zm-12.175 0h6.087v-2.03H64.55V96zm-12.176 0h6.089v-2.03h-6.09V96zM40.2 96h6.085v-2.03H40.2V96zm-12.174 0h6.087v-2.03h-6.087V96zM15.85 96h6.087v-2.03h-6.087V96zM3.677 96h6.085v-2.03H3.677V96zM0 91.56h2.03v-6.087H0v6.087zm93.97-1.132H96v-6.087h-2.03v6.087zM0 79.386h2.03v-6.088H0v6.088zm93.97-1.133H96v-6.09h-2.03v6.09zM0 67.211h2.03v-6.088H0v6.088zm93.97-1.135H96v-6.085h-2.03v6.085zM0 55.036h2.03v-6.087H0v6.087zm93.97-1.132H96v-6.088h-2.03v6.088zM0 42.86h2.03v-6.087H0v6.087zm93.97-1.132H96v-6.087h-2.03v6.087zM0 30.686h2.03V24.6H0v6.087zm93.97-1.134H96v-6.085h-2.03v6.085zM0 18.512h2.03v-6.088H0v6.088zm93.97-1.133H96v-6.087h-2.03v6.087zM2.03 6.337H0V0h1.777v1.015h.252v5.322zM96 5.205h-2.03V2.029h-.884V0H96v5.205zM80.912 2.029h6.087V0h-6.087v2.03zm-12.175 0h6.087V0h-6.087v2.03zm-12.172 0h6.085V0h-6.085v2.03zm-12.177 0h6.087V0h-6.087v2.03zm-12.174 0H38.3V0h-6.087v2.03zm-12.173 0h6.085V0h-6.085v2.03zm-12.176 0h6.087V0H7.865v2.03z" fill="url(#twisdfyi4e)" mask="url(#5v9dgg49sf)"/>
        </g>
        <g opacity=".34" transform="translate(1076 758)">
            <mask id="bknu0twqgi" fill="#fff">
                <use xlink:href="#cg64mrrswg"/>
            </mask>
            <path d="M159.852 2H166V0h-6.148v2zm-12.296 0h6.148V0h-6.148v2zm-12.297 0h6.148V0h-6.148v2zm-12.296 0h6.148V0h-6.148v2zm-12.296 0h6.148V0h-6.148v2zM98.37 2h6.149V0H98.37v2zM86.074 2h6.148V0h-6.148v2zM73.778 2h6.148V0h-6.148v2zM61.48 2h6.149V0H61.48v2zM49.185 2h6.148V0h-6.148v2zM36.89 2h6.148V0h-6.148v2zM24.593 2h6.148V0h-6.148v2zM12.296 2h6.148V0h-6.148v2zM0 2h6.148V0H0v2z" fill="url(#x44y3nql9h)" mask="url(#bknu0twqgi)"/>
        </g>
        <g opacity=".34" transform="translate(1076 728)">
            <mask id="7fwthup6tl" fill="#fff">
                <use xlink:href="#2q965kp1nj"/>
            </mask>
            <path d="M159.852 2H166V0h-6.148v2zm-12.296 0h6.148V0h-6.148v2zm-12.297 0h6.148V0h-6.148v2zm-12.296 0h6.148V0h-6.148v2zm-12.296 0h6.148V0h-6.148v2zM98.37 2h6.149V0H98.37v2zM86.074 2h6.148V0h-6.148v2zM73.778 2h6.148V0h-6.148v2zM61.48 2h6.149V0H61.48v2zM49.185 2h6.148V0h-6.148v2zM36.89 2h6.148V0h-6.148v2zM24.593 2h6.148V0h-6.148v2zM12.296 2h6.148V0h-6.148v2zM0 2h6.148V0H0v2z" fill="url(#b57p2rl5yk)" mask="url(#7fwthup6tl)"/>
        </g>
        <g opacity=".34" transform="translate(1076 697)">
            <mask id="1gxy4z3dgo" fill="#fff">
                <use xlink:href="#526gysdnxm"/>
            </mask>
            <path d="M159.852 2H166V0h-6.148v2zm-12.296 0h6.148V0h-6.148v2zm-12.297 0h6.148V0h-6.148v2zm-12.296 0h6.148V0h-6.148v2zm-12.296 0h6.148V0h-6.148v2zM98.37 2h6.149V0H98.37v2zM86.074 2h6.148V0h-6.148v2zM73.778 2h6.148V0h-6.148v2zM61.48 2h6.149V0H61.48v2zM49.185 2h6.148V0h-6.148v2zM36.89 2h6.148V0h-6.148v2zM24.593 2h6.148V0h-6.148v2zM12.296 2h6.148V0h-6.148v2zM0 2h6.148V0H0v2z" fill="url(#l52g6bri4n)" mask="url(#1gxy4z3dgo)"/>
        </g>
        <g opacity=".34" transform="translate(1076 667)">
            <mask id="zhebbyiqwr" fill="#fff">
                <use xlink:href="#a6cr9yhdep"/>
            </mask>
            <path d="M159.852 2H166V0h-6.148v2zm-12.296 0h6.148V0h-6.148v2zm-12.297 0h6.148V0h-6.148v2zm-12.296 0h6.148V0h-6.148v2zm-12.296 0h6.148V0h-6.148v2zM98.37 2h6.149V0H98.37v2zM86.074 2h6.148V0h-6.148v2zM73.778 2h6.148V0h-6.148v2zM61.48 2h6.149V0H61.48v2zM49.185 2h6.148V0h-6.148v2zM36.89 2h6.148V0h-6.148v2zM24.593 2h6.148V0h-6.148v2zM12.296 2h6.148V0h-6.148v2zM0 2h6.148V0H0v2z" fill="url(#5z09yps8eq)" mask="url(#zhebbyiqwr)"/>
        </g>
        <path d="M779 201.5a3.5 3.5 0 1 1-7 0 3.5 3.5 0 0 1 7 0M801 201.5a3.5 3.5 0 1 1-7 0 3.5 3.5 0 0 1 7 0M824 201.5a3.5 3.5 0 1 1-7 0 3.5 3.5 0 1 1 7 0M846 201.5a3.5 3.5 0 1 1-7 0 3.5 3.5 0 0 1 7 0M868 201.5a3.5 3.5 0 1 1-7 0 3.5 3.5 0 0 1 7 0M890 201.5a3.5 3.5 0 1 1-7 0 3.5 3.5 0 1 1 7 0M912 201.5a3.5 3.5 0 1 1-7 0 3.5 3.5 0 0 1 7 0M935 201.5a3.5 3.5 0 1 1-7 0 3.5 3.5 0 0 1 7 0M957 201.5a3.5 3.5 0 1 1-7 0 3.5 3.5 0 1 1 7 0M979 201.5a3.5 3.5 0 1 1-7 0 3.5 3.5 0 0 1 7 0M1001 201.5a3.5 3.5 0 1 1-7 0 3.5 3.5 0 0 1 7 0M1023 201.5a3.5 3.5 0 1 1-7 0 3.5 3.5 0 1 1 7 0M1046 201.5c0 1.934-1.566 3.5-3.5 3.5a3.498 3.498 0 0 1-3.5-3.5c0-1.934 1.566-3.5 3.5-3.5s3.5 1.566 3.5 3.5M1068 201.5a3.5 3.5 0 1 1-7 0 3.5 3.5 0 0 1 7 0M1090 201.5a3.5 3.5 0 1 1-7 0 3.5 3.5 0 1 1 7 0M1112 201.5c0 1.934-1.566 3.5-3.5 3.5a3.498 3.498 0 0 1-3.5-3.5c0-1.934 1.566-3.5 3.5-3.5s3.5 1.566 3.5 3.5M779 233.499a3.5 3.5 0 1 1-7 .003 3.5 3.5 0 0 1 7-.003M801 233.499a3.5 3.5 0 1 1-7.001 0 3.5 3.5 0 0 1 7.001 0M824 233.499a3.5 3.5 0 1 1-7 .001 3.5 3.5 0 0 1 7-.001M846 233.499a3.5 3.5 0 1 1-7 .003 3.5 3.5 0 0 1 7-.003M868 233.499a3.5 3.5 0 1 1-7.001 0 3.5 3.5 0 0 1 7.001 0M890 233.499a3.5 3.5 0 1 1-7 .001 3.5 3.5 0 0 1 7-.001M912 233.499a3.5 3.5 0 1 1-7 .003 3.5 3.5 0 0 1 7-.003M935 233.499a3.5 3.5 0 1 1-7.001 0 3.5 3.5 0 0 1 7.001 0M957 233.499a3.5 3.5 0 1 1-7 .001 3.5 3.5 0 0 1 7-.001M979 233.499a3.5 3.5 0 1 1-7 .003 3.5 3.5 0 0 1 7-.003M1001 233.499a3.5 3.5 0 1 1-7.001 0 3.5 3.5 0 0 1 7.001 0M1023 233.499a3.5 3.5 0 1 1-7 .001 3.5 3.5 0 0 1 7-.001M1046 233.499a3.5 3.5 0 1 1-7 .003 3.5 3.5 0 0 1 7-.003M1068 233.499a3.5 3.5 0 1 1-7.001 0 3.5 3.5 0 0 1 7.001 0M1090 233.499a3.5 3.5 0 1 1-7 .001 3.5 3.5 0 0 1 7-.001M1112 233.499a3.5 3.5 0 1 1-7 .003 3.5 3.5 0 0 1 7-.003M1246 871.501a3.5 3.5 0 1 1-7-.002 3.5 3.5 0 0 1 7 .002M1268 871.501a3.5 3.5 0 0 1-7 0 3.5 3.5 0 1 1 7 0M1291 871.501a3.5 3.5 0 1 1-7-.003 3.5 3.5 0 0 1 7 .003M1313 871.501a3.5 3.5 0 1 1-7-.002 3.5 3.5 0 0 1 7 .002M1335 871.501a3.5 3.5 0 0 1-3.5 3.499 3.5 3.5 0 1 1 0-7 3.5 3.5 0 0 1 3.5 3.501M1357 871.501a3.5 3.5 0 1 1-7-.003 3.5 3.5 0 0 1 7 .003M1246 903.5a3.5 3.5 0 1 1-7 0 3.5 3.5 0 0 1 7 0M1268 903.5a3.5 3.5 0 1 1-7 0 3.5 3.5 0 0 1 7 0M1291 903.5a3.5 3.5 0 1 1-7.001-.002 3.5 3.5 0 0 1 7.001.002M1313 903.5a3.5 3.5 0 1 1-7 0 3.5 3.5 0 0 1 7 0M1335 903.5a3.5 3.5 0 1 1-7.002-.002 3.5 3.5 0 0 1 7.002.002M1357 903.5a3.5 3.5 0 1 1-7.001-.002 3.5 3.5 0 0 1 7.001.002M1246 934.499a3.5 3.5 0 1 1-7 .001 3.5 3.5 0 0 1 7-.001M1268 934.499a3.5 3.5 0 1 1-7 .003 3.5 3.5 0 0 1 7-.003M1291 934.499a3.5 3.5 0 1 1-7.001 0 3.5 3.5 0 0 1 7.001 0M1313 934.499a3.5 3.5 0 1 1-7 .001 3.5 3.5 0 0 1 7-.001M1335 934.499a3.5 3.5 0 1 1-7.002 0 3.5 3.5 0 0 1 7.002 0M1357 934.499a3.5 3.5 0 1 1-7.001 0 3.5 3.5 0 0 1 7.001 0M1246 966.501a3.5 3.5 0 1 1-7-.002 3.5 3.5 0 0 1 7 .002M1268 966.501a3.5 3.5 0 0 1-3.5 3.499 3.5 3.5 0 1 1 0-7 3.5 3.5 0 0 1 3.5 3.501M1291 966.501a3.5 3.5 0 1 1-7-.003 3.5 3.5 0 0 1 7 .003M1313 966.501a3.5 3.5 0 1 1-7-.002 3.5 3.5 0 0 1 7 .002M1335 966.501a3.5 3.5 0 1 1-7-.003 3.5 3.5 0 0 1 7 .003M1357 966.501a3.5 3.5 0 1 1-7-.003 3.5 3.5 0 0 1 7 .003M1739 1147.5a3.5 3.5 0 1 1-7 0 3.5 3.5 0 0 1 7 0M1761 1147.5a3.5 3.5 0 1 1-7 0 3.5 3.5 0 0 1 7 0M1739 1177.499a3.5 3.5 0 1 1-7 .003 3.5 3.5 0 0 1 7-.003M1761 1177.499a3.5 3.5 0 1 1-7.001 0 3.5 3.5 0 0 1 7.001 0M1739 1209.501a3.5 3.5 0 0 1-7 0 3.5 3.5 0 1 1 7 0M1761 1209.501a3.5 3.5 0 1 1-7-.003 3.5 3.5 0 0 1 7 .003M1739 1241.5a3.5 3.5 0 1 1-7 0 3.5 3.5 0 0 1 7 0M1761 1241.5a3.5 3.5 0 1 1-7 0 3.5 3.5 0 0 1 7 0M56 1208.501a3.5 3.5 0 0 1-7 0 3.5 3.5 0 1 1 7 0M78 1208.501a3.5 3.5 0 1 1-7-.003 3.5 3.5 0 0 1 7 .003M102 1208.501a3.5 3.5 0 1 1-7-.002 3.5 3.5 0 0 1 7 .002M124 1208.501a3.5 3.5 0 0 1-3.5 3.499 3.5 3.5 0 1 1 0-7 3.5 3.5 0 0 1 3.5 3.501M146 1208.501a3.5 3.5 0 1 1-7-.003 3.5 3.5 0 0 1 7 .003M168 1208.501a3.5 3.5 0 1 1-7-.002 3.5 3.5 0 0 1 7 .002M189 1208.501a3.5 3.5 0 0 1-3.5 3.499 3.5 3.5 0 1 1 0-7 3.5 3.5 0 0 1 3.5 3.501M56 1239.5a3.5 3.5 0 1 1-7 0 3.5 3.5 0 0 1 7 0M78 1239.5a3.5 3.5 0 1 1-7.002-.002 3.5 3.5 0 0 1 7.002.002M102 1239.5a3.5 3.5 0 1 1-7 0 3.5 3.5 0 0 1 7 0M124 1239.5a3.5 3.5 0 1 1-7 0 3.5 3.5 0 0 1 7 0M146 1239.5a3.5 3.5 0 1 1-7.002-.002 3.5 3.5 0 0 1 7.002.002M168 1239.5a3.5 3.5 0 1 1-7 0 3.5 3.5 0 0 1 7 0M189 1239.5a3.5 3.5 0 1 1-7.002-.002 3.5 3.5 0 0 1 7.002.002M56 1271.499a3.5 3.5 0 1 1-7 .003 3.5 3.5 0 0 1 7-.003M78 1271.499a3.5 3.5 0 1 1-7.001 0 3.5 3.5 0 0 1 7.001 0M102 1271.499a3.5 3.5 0 1 1-7 .001 3.5 3.5 0 0 1 7-.001M124 1271.499a3.5 3.5 0 1 1-7 .003 3.5 3.5 0 0 1 7-.003M146 1271.499a3.5 3.5 0 1 1-7.001 0 3.5 3.5 0 0 1 7.001 0M168 1271.499a3.5 3.5 0 1 1-7 .001 3.5 3.5 0 0 1 7-.001M189 1271.499a3.5 3.5 0 1 1-7.001 0 3.5 3.5 0 0 1 7.001 0M1599 351.5a3.5 3.5 0 1 1-7 0 3.5 3.5 0 0 1 7 0M1599 367.5a3.5 3.5 0 1 1-7 0 3.5 3.5 0 0 1 7 0M1599 383.5a3.5 3.5 0 1 1-7 0 3.5 3.5 0 0 1 7 0M1599 400.5a3.5 3.5 0 1 1-7 0 3.5 3.5 0 0 1 7 0M1599 416.5a3.5 3.5 0 1 1-7 0 3.5 3.5 0 0 1 7 0M1599 433.5a3.5 3.5 0 1 1-7 0 3.5 3.5 0 0 1 7 0M1599 449.5a3.5 3.5 0 1 1-7 0 3.5 3.5 0 0 1 7 0" fill="#808285" opacity=".34"/>
        <path d="M1133 1182.501a3.5 3.5 0 1 0 7-.003 3.5 3.5 0 0 0-7 .003M1133 1164.5a3.5 3.5 0 1 0 7.002-.002 3.5 3.5 0 0 0-7.002.002M1110 1164.5a3.5 3.5 0 1 0 7 0 3.5 3.5 0 0 0-7 0M1133 1147.5a3.5 3.5 0 1 0 7 0 3.5 3.5 0 0 0-7 0M1110 1147.5a3.5 3.5 0 1 0 7 0 3.5 3.5 0 0 0-7 0M1087 1147.5a3.5 3.5 0 1 0 7 0 3.5 3.5 0 0 0-7 0M1133 1128.499a3.5 3.5 0 1 0 7.001 0 3.5 3.5 0 0 0-7.001 0M1110 1128.499a3.5 3.5 0 1 0 7 .001 3.5 3.5 0 0 0-7-.001M1087 1128.499a3.5 3.5 0 1 0 7 .003 3.5 3.5 0 0 0-7-.003M1064 1128.499a3.5 3.5 0 1 0 7.001 0 3.5 3.5 0 0 0-7.001 0M1133 1110.499a3.5 3.5 0 1 0 7.001 0 3.5 3.5 0 0 0-7.001 0M1110 1110.499a3.5 3.5 0 1 0 7 .001 3.5 3.5 0 0 0-7-.001M1087 1110.499a3.5 3.5 0 1 0 7 .003 3.5 3.5 0 0 0-7-.003M1064 1110.499a3.5 3.5 0 1 0 7.001 0 3.5 3.5 0 0 0-7.001 0" fill="#F89319" opacity=".34"/>
        <path fill="#808285" opacity=".34" d="M1352 127.082 1389.286 148l36.801-20.639L1462.888 148l36.808-20.639 36.312 20.36.992-1.803L1499.696 125l-36.808 20.639L1426.085 125l-36.8 20.639-36.291-20.36-.992 1.803"/>
        <path fill="#808285" opacity=".34" d="M1352 141.082 1389.286 162l36.801-20.639L1462.888 162l36.808-20.639 36.312 20.36.992-1.803L1499.696 139l-36.808 20.639L1426.085 139l-36.8 20.639-36.291-20.36-.992 1.803"/>
        <path fill="#808285" opacity=".34" d="M1352 156.084 1389.286 177l36.801-20.637L1462.888 177l36.808-20.64 36.312 20.361.992-1.805-37.304-20.914-36.808 20.635L1426.085 154l-36.8 20.637-36.291-20.358-.992 1.805"/>
        <path fill="#808285" opacity=".34" d="M1352 172.082 1389.286 193l36.801-20.639L1462.888 193l36.808-20.639 36.312 20.36.992-1.803L1499.696 170l-36.808 20.639L1426.085 170l-36.8 20.639-36.291-20.36-.992 1.803M393 1180l-28-16.499L393 1147v33M443 1180l-28-16.499L443 1147v33M495 1180l-28-16.499L495 1147v33M545 1180l-28-16.499L545 1147v33M595 1180l-28-16.499L595 1147v33M645 1180l-28-16.499L645 1147v33M695 1180l-28-16.499L695 1147v33"/>
        <path fill="#FFBE71" opacity=".417" d="m1299 482-28-16.499L1299 449v33M1349 482l-28-16.499L1349 449v33M1399 482l-28-16.499L1399 449v33"/>
        <path d="M356.947 1039.5c-.002 14.762-5.982 28.117-15.654 37.792-9.675 9.675-23.03 15.655-37.792 15.655-14.764 0-28.119-5.98-37.794-15.655-9.672-9.675-15.652-23.03-15.654-37.792.002-14.762 5.982-28.117 15.654-37.792 9.675-9.675 23.03-15.655 37.794-15.655 14.762 0 28.117 5.98 37.792 15.655 9.672 9.675 15.652 23.03 15.654 37.792H359c-.002-30.653-24.849-55.5-55.499-55.5-30.652 0-55.499 24.847-55.501 55.5.002 30.653 24.849 55.5 55.501 55.5 30.65 0 55.497-24.847 55.499-55.5h-2.053z" fill="#808285" opacity=".34"/>
        <path d="M340.951 1039.5c0 10.345-4.19 19.7-10.968 26.48-6.78 6.78-16.139 10.969-26.482 10.971-10.345-.002-19.703-4.19-26.484-10.97-6.778-6.78-10.968-16.136-10.968-26.481 0-10.345 4.19-19.7 10.968-26.48 6.78-6.78 16.139-10.969 26.484-10.971 10.343.002 19.701 4.19 26.482 10.97 6.778 6.78 10.968 16.136 10.968 26.481H343c0-21.815-17.685-39.498-39.499-39.5-21.816.002-39.501 17.685-39.501 39.5s17.685 39.498 39.501 39.5c21.814-.002 39.499-17.685 39.499-39.5h-2.049z" fill="#808285" opacity=".34"/>
        <path d="M325.917 1039a21.854 21.854 0 0 1-6.42 15.497 21.843 21.843 0 0 1-15.496 6.42c-6.056 0-11.528-2.453-15.499-6.42a21.854 21.854 0 0 1-6.419-15.497 21.854 21.854 0 0 1 6.42-15.497 21.84 21.84 0 0 1 15.498-6.42c6.054 0 11.528 2.45 15.497 6.42a21.854 21.854 0 0 1 6.419 15.497H328c-.002-13.255-10.744-24-23.999-24-13.255 0-23.999 10.745-24.001 24 .002 13.255 10.744 24 24.001 24 13.255 0 23.997-10.745 23.999-24h-2.083z" fill="#808285" opacity=".34"/>
        <path d="M310.936 1039h-1.063a5.882 5.882 0 0 1-5.872 5.873 5.882 5.882 0 0 1-5.874-5.873 5.881 5.881 0 0 1 5.874-5.873 5.88 5.88 0 0 1 5.872 5.873H312a8 8 0 1 0-16 0 8 8 0 0 0 16 0h-1.064M1947.976 98h-1.024c0 26.499-10.739 50.48-28.105 67.847-17.366 17.366-41.348 28.105-67.847 28.105-26.499 0-50.48-10.739-67.85-28.105-17.363-17.366-28.102-41.348-28.102-67.847 0-26.499 10.739-50.48 28.103-67.847C1800.519 12.787 1824.5 2.048 1851 2.048c26.499 0 50.48 10.739 67.847 28.105 17.366 17.366 28.105 41.348 28.105 67.847H1949c-.002-54.124-43.876-98-98-98s-98 43.876-98 98 43.876 98 98 98 97.998-43.876 98-98h-1.024" fill="#808285" opacity=".34"/>
        <path d="M1918.98 98.5h-1.022c-.002 18.631-7.55 35.489-19.758 47.699-12.212 12.207-29.067 19.755-47.699 19.757-18.632-.002-35.49-7.55-47.7-19.757-12.207-12.21-19.755-29.068-19.757-47.699.002-18.631 7.55-35.489 19.758-47.699 12.21-12.207 29.067-19.755 47.699-19.757 18.63.002 35.487 7.55 47.7 19.757 12.207 12.21 19.755 29.068 19.757 47.699H1920c0-38.383-31.116-69.498-69.499-69.5-38.383.002-69.499 31.117-69.501 69.5.002 38.383 31.118 69.498 69.501 69.5 38.383-.002 69.499-31.117 69.499-69.5h-1.02" fill="#808285" opacity=".34"/>
        <path d="M1890.97 98.5h-1.028c0 10.895-4.414 20.749-11.552 27.89-7.141 7.138-16.995 11.552-27.89 11.552s-20.749-4.414-27.89-11.552c-7.138-7.141-11.552-16.995-11.552-27.89s4.414-20.749 11.552-27.89c7.141-7.138 16.995-11.552 27.89-11.552s20.749 4.414 27.89 11.552c7.138 7.141 11.552 16.995 11.552 27.89H1892c0-22.92-18.58-41.5-41.5-41.5S1809 75.58 1809 98.5s18.58 41.5 41.5 41.5 41.5-18.58 41.5-41.5h-1.03" fill="#808285" opacity=".34"/>
        <path d="M1862.971 98h-1.029c0 3.025-1.224 5.753-3.205 7.737a10.902 10.902 0 0 1-7.737 3.205 10.902 10.902 0 0 1-7.737-3.205 10.902 10.902 0 0 1-3.205-7.737c0-3.025 1.224-5.753 3.205-7.737a10.902 10.902 0 0 1 7.737-3.205c3.025 0 5.753 1.224 7.737 3.205a10.902 10.902 0 0 1 3.205 7.737H1864c0-7.181-5.821-13-13-13s-13 5.819-13 13c0 7.179 5.821 13 13 13s13-5.821 13-13h-1.029M1595.5 220.38l-.878.51 15.55 27.11H1615l-19.5-34-19.5 34h4.83l15.548-27.11-.878-.51-.878.51.878-.51-.878-.511-14.964 26.09h-.146l15.988-27.876 15.988 27.876h-.146l-15.842-27.621-.878 1.53.878.511" fill="#808285" opacity=".34"/>
        <path fill="#808285" opacity=".34" d="m1595.5 239.38-.878.51 15.55 27.11H1615l-19.5-34-19.5 34h4.83l15.548-27.11-.878-.51-.878.51.878-.51-.878-.511-14.964 26.09h-.146l15.988-27.876 15.988 27.876h-.146l-15.842-27.621-.878 1.53.878.511"/>
        <path fill="#808285" opacity=".34" d="m1595.5 259.38-.878.51 15.55 27.11H1615l-19.5-34-19.5 34h4.83l15.548-27.11-.878-.51-.878.51.878-.51-.878-.51-14.964 26.089h-.146l15.988-27.876 15.988 27.876h-.146l-15.842-27.621-.878 1.531.878.51"/>
        <path fill="#808285" opacity=".34" d="m1595.5 278.38-.878.51 15.55 27.11H1615l-19.5-34-19.5 34h4.83l15.548-27.11-.878-.51-.878.51.878-.51-.878-.51-14.964 26.089h-.146l15.988-27.876 15.988 27.876h-.146l-15.842-27.621-.878 1.531.878.51"/>
        <path fill="#F89319" opacity=".34" d="m1378.38 667.499.51.878L1406 652.83V648l-34 19.499L1406 687v-4.83l-27.11-15.549-.51.878.51.878-.51-.878-.511.878 26.09 14.963v.146l-27.876-15.987 27.876-15.987v.148l-27.621 15.839 1.53.878.511-.878"/>
        <path fill="#F89319" opacity=".34" d="m1398.38 667.499.51.878L1426 652.83V648l-34 19.499L1426 687v-4.83l-27.11-15.549-.51.878.51.878-.51-.878-.51.878 26.09 14.963v.146l-27.877-15.987 27.876-15.987v.148l-27.621 15.839 1.531.878.51-.878"/>
        <path fill="#F89319" opacity=".34" d="m1417.38 667.5.51.878L1445 652.83V648l-34 19.5 34 19.5v-4.828l-27.11-15.55-.51.878.51.878-.51-.878-.51.878 26.089 14.964v.146l-27.876-15.988 27.876-15.988v.148l-27.621 15.84 1.531.878.51-.878"/>
        <path fill="#F89319" opacity=".34" d="m1436.38 667.499.51.878L1464 652.83V648l-34 19.499L1464 687v-4.83l-27.11-15.549-.51.878.51.878-.51-.878-.51.878 26.089 14.963v.146l-27.876-15.987 27.876-15.987v.148l-27.621 15.839 1.531.878.51-.878"/>
        <path fill="#808285" opacity=".34" d="M850 1221.469 886.531 1258l1.469-1.469L851.469 1220M880 1221.469 916.531 1258l1.469-1.469L881.469 1220M847 1270.469 883.531 1307l1.469-1.469L848.469 1269M878 1270.469 914.531 1307l1.469-1.469L879.469 1269M1784.472 521h6.167v-2.056h-6.167V521zm-12.334 0h6.167v-2.056h-6.167V521zm-12.334 0h6.167v-2.056h-6.167V521zm-12.333 0h6.167v-2.056h-6.167V521zm-2.471-5.75h2.056v-6.166H1745v6.166zm0-12.333h2.056v-6.167H1745v6.167zm0-12.334h2.056v-6.167H1745v6.167zm0-12.333h2.056v-6.167H1745v6.167zm2.056-12.334v-1.86h2.248V462H1745v3.916h2.056zm8.415-1.86h6.167V462h-6.167v2.056zm12.334 0h6.167V462h-6.167v2.056zm12.334 0h6.166V462h-6.166v2.056zm12.333 0h6.167V462h-6.167v2.056zm9.472 6.97H1804v-6.167h-2.056v6.167zm0 12.334H1804v-6.167h-2.056v6.167zm0 12.333H1804v-6.166h-2.056v6.166zm0 12.334H1804v-6.167h-2.056v6.167zm0 6.167v4.75h-5.139V521H1804v-6.806H1801.944zM127.275 415 263 309.6l-1.275-1.6L126 413.4M114.274 398 223 312.615 221.726 311 113 396.382M102.265 379 185 313.616 183.735 312 101 377.384M88.263 363 160 305.63l-1.263-1.63L87 361.37M75.262 344 129 301.606 127.738 300 74 342.396M61.263 326 206 211.614 204.737 210 60 324.386M48.263 308 193 193.614 191.737 192 47 306.386M1672.973 931.001h-1.027c0 25.944-10.513 49.425-27.516 66.428-17.005 17.004-40.484 27.516-66.43 27.519-25.946-.003-49.425-10.515-66.43-27.519-17-17.003-27.515-40.484-27.515-66.428 0-25.946 10.514-49.427 27.515-66.43 17.005-17.004 40.484-27.516 66.43-27.516 25.946 0 49.425 10.512 66.43 27.516 17.003 17.003 27.516 40.484 27.516 66.43H1674c0-53.02-42.98-96.001-96-96.001s-95.998 42.98-96 96.001c.002 53.019 42.98 95.999 96 95.999s96-42.98 96-95.999h-1.027"/>
        <path d="M1644.969 931.501h-1.032c0 18.348-7.433 34.952-19.458 46.976-12.027 12.025-28.628 19.46-46.979 19.46-18.349 0-34.952-7.435-46.98-19.46-12.024-12.024-19.457-28.628-19.457-46.976 0-18.35 7.433-34.952 19.458-46.978 12.027-12.025 28.63-19.458 46.979-19.46 18.35.002 34.952 7.435 46.98 19.46 12.024 12.026 19.457 28.628 19.457 46.978H1646c0-37.833-30.668-68.499-68.5-68.501-37.832.002-68.5 30.668-68.5 68.501 0 37.831 30.668 68.499 68.5 68.499s68.5-30.668 68.5-68.499h-1.031" fill="#808285" opacity=".34"/>
        <path d="M1616.972 931.501h-1.028c0 10.619-4.302 20.224-11.26 27.184-6.96 6.959-16.565 11.259-27.184 11.259-10.618 0-20.223-4.3-27.184-11.259-6.958-6.96-11.258-16.565-11.26-27.184.002-10.62 4.302-20.224 11.26-27.184 6.96-6.959 16.566-11.26 27.184-11.26 10.619 0 20.223 4.301 27.184 11.26 6.958 6.96 11.26 16.563 11.26 27.184H1618c0-22.368-18.132-40.501-40.5-40.501s-40.498 18.133-40.5 40.501c.002 22.366 18.132 40.499 40.5 40.499s40.5-18.13 40.5-40.499h-1.028" fill="#808285" opacity=".34"/>
        <path d="M1589.948 931h-1.052c0 3.012-1.218 5.73-3.19 7.705a10.858 10.858 0 0 1-7.706 3.191c-3.012 0-5.73-1.218-7.705-3.19a10.858 10.858 0 0 1-3.191-7.706c0-3.012 1.218-5.73 3.19-7.705a10.858 10.858 0 0 1 7.706-3.191c3.012 0 5.73 1.218 7.705 3.19a10.858 10.858 0 0 1 3.191 7.706H1591c0-7.182-5.818-13-13-13-7.18 0-13 5.818-13 13 0 7.18 5.82 12.998 13 13 7.182-.002 13-5.82 13-13h-1.052M634 1033h6.077v-2H634v2zm12.154 0h6.077v-2h-6.077v2zm12.154 0h6.077v-2h-6.077v2zm12.154 0h6.076v-2h-6.076v2zm12.153 0h6.077v-2h-6.077v2zm12.154 0h6.077v-2h-6.077v2zm12.154 0H713v-2h-6.077v2zM634 1018h6.077v-2H634v2zm12.154 0h6.077v-2h-6.077v2zm12.154 0h6.077v-2h-6.077v2zm12.154 0h6.076v-2h-6.076v2zm12.153 0h6.077v-2h-6.077v2zm12.154 0h6.077v-2h-6.077v2zm12.154 0H713v-2h-6.077v2zM634 1003h6.077v-2H634v2zm12.154 0h6.077v-2h-6.077v2zm12.154 0h6.077v-2h-6.077v2zm12.154 0h6.076v-2h-6.076v2zm12.153 0h6.077v-2h-6.077v2zm12.154 0h6.077v-2h-6.077v2zm12.154 0H713v-2h-6.077v2zM634 987h6.077v-2H634v2zm12.154 0h6.077v-2h-6.077v2zm12.154 0h6.077v-2h-6.077v2zm12.154 0h6.076v-2h-6.076v2zm12.153 0h6.077v-2h-6.077v2zm12.154 0h6.077v-2h-6.077v2zm12.154 0H713v-2h-6.077v2z" fill="#808285" opacity=".34"/>
        <path fill="#28417C" opacity=".34" d="M166 660h131v-10H166z"/>
        <path fill="#F89319" opacity=".34" d="M297 660h131v-10H297z"/>
        <path fill="#28417C" opacity=".34" d="M1235 336h15v-15h-15zM423 808h15v-15h-15zM457 834h15v-15h-15zM487 808h15v-15h-15zM424 865h15v-15h-15zM458 892h15v-15h-15zM488 865h15v-15h-15z"/>
        <path fill="#F89319" opacity=".34" d="M425 924h15v-15h-15zM459 950h15v-15h-15zM490 924h15v-15h-15zM427 983h15v-15h-15zM460 1008h15v-15h-15zM491 983h15v-15h-15z"/>
        <path fill="#28417C" opacity=".34" d="M1265 336h15v-15h-15zM1294 336h15v-15h-15zM1323 336h15v-15h-15zM1352 336h15v-15h-15zM1383 336h15v-15h-15zM1412 336h15v-15h-15z"/>
        <path fill="#F89319" opacity=".34" d="M480 458h28v-28h-28z"/>
        <path fill="#808285" opacity=".34" d="M98.452 1069 169 998.454 167.546 997 97 1067.546M180.452 1034 251 963.452 249.548 962 179 1032.548M543.981 442.981v-1.018h-51.944v-50.926h50.926v51.944h1.018v-1.018 1.018H545V389h-55v55h55v-1.019h-1.019M1267 1206h2v-71h-2zM1268 1088.063h117.937v116.874h-11.512V1207H1388v-121h-120v2.063"/>
        <path fill="#808285" opacity=".34" d="M1345.974 1164.972v-1.028h-34.918v-33.888h33.888l.002 34.916h1.028v-1.028 1.028H1347V1128h-38v38h38v-1.028h-1.026M1643 713h2v-33h-2zM1644 659.031h53.968v52.938h-4.782V714H1700v-57h-56v2.031"/>
        <path fill="#808285" opacity=".34" d="M1680.022 693.022v-.977h-15.067v-14.09h14.09v15.067h.977v-.977.977h.978V676h-18v18h18v-.978h-.978M545 666.916c-32.243 0-61.424-13.34-82.555-34.916L461 633.473c21.494 21.948 51.2 35.53 84 35.527v-2.084M661.972 549c0 34.798-15.061 66.037-38.972 87.473l1.349 1.527c24.324-21.801 39.653-53.601 39.651-89h-2.026M545 432.03c48.601-.001 90.298 29.265 108.111 70.97l1.889-.79C636.879 459.774 594.45 430 545 430v2.03M427.058 549c0-29.827 11.32-57.029 29.942-77.642L455.467 470c-18.948 20.97-30.469 48.658-30.467 79h2.058M1563.18 1293l1.82-2.918-2.18-1.082-1.82 2.918M1567.748 1283l3.418-6.334-1.748-1L1566 1282l1.748 1.001zm6.834-12.667 3.418-6.332-1.748-1.001-3.418 6.332 1.748 1.001zM1583.014 1258l1.986-3-1.986-3-2.012.936 1.365 2.064-1.367 2.062 2.014.938M1578 1245l-3.418-6.333-1.748.999 3.418 6.334 1.748-1zm-6.834-12.668-3.418-6.332-1.748.999 3.418 6.334 1.748-1zM1565 1219.062l-1.367-2.062 1.367-2.064-2.012-.936-1.988 3 1.986 3 2.014-.938M1567.748 1210l3.418-6.334-1.748-.998-3.418 6.331 1.748 1.001zm6.834-12.666 3.418-6.333-1.748-1.001-3.418 6.334 1.748 1zM1583.013 1184l1.987-3-1.987-3-2.013.938 1.366 2.062-1.366 2.064 2.013.936M1578 1172l-3.416-6.334-1.75 1 3.418 6.334 1.748-1zm-6.834-12.667-3.418-6.333-1.748.999 3.418 6.333 1.748-.999zM1565 1146.064l-1.367-2.064 1.367-2.062-2.014-.938-1.986 3 1.986 3 2.014-.936M1567.748 1135l3.418-6.333-1.748-1-3.418 6.332 1.748 1.001zm6.836-12.668 3.416-6.333-1.748-.999-3.418 6.333 1.75.999zM1583.182 1111l1.818-2.918-2.182-1.082-1.818 2.92M1578.18 1293l1.82-2.918-2.18-1.082-1.82 2.918M1583.748 1283l3.417-6.334-1.748-1L1582 1282l1.748 1.001zm6.835-12.667 3.417-6.332-1.748-1.001-3.417 6.332 1.748 1.001zM1597.013 1258l1.987-3-1.987-3-2.013.936 1.366 2.064-1.366 2.062 2.013.938M1594 1245l-3.416-6.333-1.748.999 3.416 6.334 1.748-1zm-6.834-12.668-3.416-6.332-1.75.999 3.418 6.334 1.748-1zM1580 1219.062l-1.367-2.062 1.367-2.064-2.012-.936-1.988 3 1.988 3 2.012-.938M1583.75 1210l3.416-6.334-1.748-.998-3.418 6.331 1.75 1.001zm6.834-12.666 3.416-6.333-1.748-1.001-3.416 6.334 1.748 1zM1597.013 1184l1.987-3-1.987-3-2.013.938 1.366 2.062-1.366 2.064 2.013.936M1594 1172l-3.417-6.334-1.748 1 3.415 6.334 1.75-1zm-6.835-12.667-3.415-6.333-1.75.999 3.417 6.333 1.748-.999zM1580 1146.064l-1.367-2.064 1.367-2.062-2.012-.938-1.988 3 1.988 3 2.012-.936M1583.75 1135l3.415-6.333-1.748-1-3.417 6.332 1.75 1.001zm6.833-12.668 3.417-6.333-1.75-.999-3.415 6.333 1.748.999zM1597.18 1111l1.82-2.918-2.183-1.082-1.817 2.92M1594.182 1293l1.818-2.918-2.182-1.082-1.818 2.918M1598.748 1283l3.418-6.334-1.75-1L1597 1282l1.748 1.001zm6.834-12.667 3.418-6.332-1.748-1.001-3.418 6.332 1.748 1.001zM1612.012 1258l1.988-3-1.988-3-2.012.936 1.367 2.064-1.367 2.062 2.012.938M1609 1245l-3.418-6.333-1.748.999 3.418 6.334 1.748-1zm-6.834-12.668-3.418-6.332-1.748.999 3.416 6.334 1.75-1zM1594 1219.062l-1.366-2.062 1.366-2.064-2.013-.936-1.987 3 1.987 3 2.013-.938M1598.748 1210l3.418-6.334-1.75-.998-3.416 6.331 1.748 1.001zm6.834-12.666 3.418-6.333-1.748-1.001-3.418 6.334 1.748 1zM1612.012 1184l1.988-3-1.988-3-2.012.938 1.367 2.062-1.367 2.064 2.012.936M1609 1172l-3.418-6.334-1.748 1 3.418 6.334 1.748-1zm-6.834-12.667-3.418-6.333-1.748.999 3.416 6.333 1.75-.999zM1594 1146.064l-1.366-2.064 1.366-2.062-2.013-.938-1.987 3 1.987 3 2.013-.936M1598.748 1135l3.418-6.333-1.75-1-3.416 6.332 1.748 1.001zm6.834-12.668 3.418-6.333-1.748-.999-3.418 6.333 1.748.999zM1612.18 1111l1.82-2.918-2.18-1.082-1.82 2.92M1608.18 1293l1.82-2.918-2.18-1.082-1.82 2.918M1612.748 1283l3.418-6.334-1.748-1L1611 1282l1.748 1.001zm6.834-12.667 3.418-6.332-1.748-1.001-3.418 6.332 1.748 1.001zM1628.014 1258l1.986-3-1.986-3-2.012.936 1.365 2.064-1.367 2.062 2.014.938M1623 1245l-3.418-6.333-1.748.999 3.418 6.334 1.748-1zm-6.834-12.668-3.418-6.332-1.748.999 3.418 6.334 1.748-1zM1610 1219.062l-1.367-2.062 1.367-2.064-2.012-.936-1.988 3 1.986 3 2.014-.938M1612.748 1210l3.418-6.334-1.748-.998-3.418 6.331 1.748 1.001zm6.834-12.666 3.418-6.333-1.748-1.001-3.418 6.334 1.748 1zM1628.013 1184l1.987-3-1.987-3-2.013.938 1.366 2.062-1.366 2.064 2.013.936M1623 1172l-3.416-6.334-1.75 1 3.418 6.334 1.748-1zm-6.834-12.667-3.418-6.333-1.748.999 3.418 6.333 1.748-.999zM1610 1146.064l-1.367-2.064 1.367-2.062-2.014-.938-1.986 3 1.986 3 2.014-.936M1612.748 1135l3.418-6.333-1.748-1-3.418 6.332 1.748 1.001zm6.836-12.668 3.416-6.333-1.748-.999-3.418 6.333 1.75.999zM1627.182 1111l1.818-2.918-2.182-1.082-1.818 2.92"/>
        <g opacity=".34" transform="translate(1777 774)">
            <mask id="ho4rf4swwt" fill="#fff">
                <use xlink:href="#c9xfvpxues"/>
            </mask>
            <path d="M4.056.734A3.758 3.758 0 0 1 .29 4.483 3.757 3.757 0 0 1-3.476.733 3.756 3.756 0 0 1 .29-3.012c2.079 0 3.766 1.678 3.766 3.747M22.89.734a3.758 3.758 0 0 1-3.766 3.749c-2.081 0-3.768-1.678-3.768-3.75 0-2.068 1.687-3.746 3.768-3.746 2.08 0 3.766 1.678 3.766 3.747M41.725.734c0 2.07-1.687 3.749-3.768 3.749A3.758 3.758 0 0 1 34.19.733c0-2.068 1.687-3.746 3.766-3.746 2.081 0 3.768 1.678 3.768 3.747M60.558.734a3.758 3.758 0 0 1-3.767 3.749 3.757 3.757 0 0 1-3.766-3.75 3.756 3.756 0 0 1 3.766-3.746c2.08 0 3.767 1.678 3.767 3.747M79.392.734a3.758 3.758 0 0 1-3.766 3.749c-2.081 0-3.768-1.678-3.768-3.75 0-2.068 1.687-3.746 3.768-3.746 2.08 0 3.766 1.678 3.766 3.747M4.056 13.127c0 2.069-1.687 3.747-3.766 3.747a3.756 3.756 0 0 1-3.766-3.747A3.757 3.757 0 0 1 .29 9.378a3.758 3.758 0 0 1 3.766 3.75M22.89 13.127c0 2.069-1.686 3.747-3.766 3.747-2.081 0-3.768-1.678-3.768-3.747 0-2.07 1.687-3.749 3.768-3.749a3.758 3.758 0 0 1 3.766 3.75M41.725 13.127c0 2.069-1.687 3.747-3.768 3.747-2.08 0-3.766-1.678-3.766-3.747a3.758 3.758 0 0 1 3.766-3.749c2.081 0 3.768 1.679 3.768 3.75M60.558 13.127c0 2.069-1.687 3.747-3.767 3.747a3.756 3.756 0 0 1-3.766-3.747 3.757 3.757 0 0 1 3.766-3.749 3.758 3.758 0 0 1 3.767 3.75M79.392 13.127c0 2.069-1.687 3.747-3.766 3.747-2.081 0-3.768-1.678-3.768-3.747 0-2.07 1.687-3.749 3.768-3.749a3.758 3.758 0 0 1 3.766 3.75M4.056 25.519A3.758 3.758 0 0 1 .29 29.267a3.757 3.757 0 0 1-3.766-3.748A3.756 3.756 0 0 1 .29 21.772c2.079 0 3.766 1.678 3.766 3.747M22.89 25.519a3.758 3.758 0 0 1-3.766 3.748c-2.081 0-3.768-1.678-3.768-3.748 0-2.07 1.687-3.747 3.768-3.747 2.08 0 3.766 1.678 3.766 3.747M41.725 25.519c0 2.07-1.687 3.748-3.768 3.748a3.758 3.758 0 0 1-3.766-3.748c0-2.07 1.687-3.747 3.766-3.747 2.081 0 3.768 1.678 3.768 3.747M60.558 25.519a3.758 3.758 0 0 1-3.767 3.748 3.757 3.757 0 0 1-3.766-3.748 3.756 3.756 0 0 1 3.766-3.747c2.08 0 3.767 1.678 3.767 3.747M79.392 25.519a3.758 3.758 0 0 1-3.766 3.748c-2.081 0-3.768-1.678-3.768-3.748 0-2.07 1.687-3.747 3.768-3.747 2.08 0 3.766 1.678 3.766 3.747M4.056 37.912c0 2.069-1.687 3.747-3.766 3.747a3.756 3.756 0 0 1-3.766-3.747A3.757 3.757 0 0 1 .29 34.163a3.758 3.758 0 0 1 3.766 3.749M22.89 37.912c0 2.069-1.686 3.747-3.766 3.747-2.081 0-3.768-1.678-3.768-3.747 0-2.07 1.687-3.749 3.768-3.749a3.758 3.758 0 0 1 3.766 3.749M41.725 37.912c0 2.069-1.687 3.747-3.768 3.747-2.08 0-3.766-1.678-3.766-3.747a3.758 3.758 0 0 1 3.766-3.749c2.081 0 3.768 1.678 3.768 3.749M60.558 37.912c0 2.069-1.687 3.747-3.767 3.747a3.756 3.756 0 0 1-3.766-3.747 3.757 3.757 0 0 1 3.766-3.749 3.758 3.758 0 0 1 3.767 3.749M79.392 37.912c0 2.069-1.687 3.747-3.766 3.747-2.081 0-3.768-1.678-3.768-3.747 0-2.07 1.687-3.749 3.768-3.749a3.758 3.758 0 0 1 3.766 3.749M4.056 50.303a3.758 3.758 0 0 1-3.766 3.75 3.757 3.757 0 0 1-3.766-3.75A3.756 3.756 0 0 1 .29 46.556c2.079 0 3.766 1.679 3.766 3.747M22.89 50.303a3.758 3.758 0 0 1-3.766 3.75c-2.081 0-3.768-1.679-3.768-3.75 0-2.068 1.687-3.747 3.768-3.747 2.08 0 3.766 1.679 3.766 3.747M41.725 50.303c0 2.071-1.687 3.75-3.768 3.75a3.758 3.758 0 0 1-3.766-3.75c0-2.068 1.687-3.747 3.766-3.747 2.081 0 3.768 1.679 3.768 3.747M60.558 50.303a3.758 3.758 0 0 1-3.767 3.75 3.757 3.757 0 0 1-3.766-3.75 3.756 3.756 0 0 1 3.766-3.747c2.08 0 3.767 1.679 3.767 3.747M79.392 50.303a3.758 3.758 0 0 1-3.766 3.75c-2.081 0-3.768-1.679-3.768-3.75 0-2.068 1.687-3.747 3.768-3.747 2.08 0 3.766 1.679 3.766 3.747M4.056 62.697c0 2.068-1.687 3.747-3.766 3.747a3.756 3.756 0 0 1-3.766-3.747 3.757 3.757 0 0 1 3.766-3.75 3.758 3.758 0 0 1 3.766 3.75M22.89 62.697c0 2.068-1.686 3.747-3.766 3.747-2.081 0-3.768-1.679-3.768-3.747 0-2.071 1.687-3.75 3.768-3.75a3.758 3.758 0 0 1 3.766 3.75M41.725 62.697c0 2.068-1.687 3.747-3.768 3.747-2.08 0-3.766-1.679-3.766-3.747a3.758 3.758 0 0 1 3.766-3.75c2.081 0 3.768 1.679 3.768 3.75M60.558 62.697c0 2.068-1.687 3.747-3.767 3.747a3.756 3.756 0 0 1-3.766-3.747 3.757 3.757 0 0 1 3.766-3.75 3.758 3.758 0 0 1 3.767 3.75M79.392 62.697c0 2.068-1.687 3.747-3.766 3.747-2.081 0-3.768-1.679-3.768-3.747 0-2.071 1.687-3.75 3.768-3.75a3.758 3.758 0 0 1 3.766 3.75M4.056 75.088A3.758 3.758 0 0 1 .29 78.837a3.757 3.757 0 0 1-3.766-3.749A3.756 3.756 0 0 1 .29 71.341c2.079 0 3.766 1.678 3.766 3.747M22.89 75.088a3.758 3.758 0 0 1-3.766 3.749c-2.081 0-3.768-1.678-3.768-3.749 0-2.069 1.687-3.747 3.768-3.747 2.08 0 3.766 1.678 3.766 3.747M41.725 75.088c0 2.07-1.687 3.749-3.768 3.749a3.758 3.758 0 0 1-3.766-3.749c0-2.069 1.687-3.747 3.766-3.747 2.081 0 3.768 1.678 3.768 3.747M60.558 75.088a3.758 3.758 0 0 1-3.767 3.749 3.757 3.757 0 0 1-3.766-3.749 3.756 3.756 0 0 1 3.766-3.747c2.08 0 3.767 1.678 3.767 3.747M79.392 75.088a3.758 3.758 0 0 1-3.766 3.749c-2.081 0-3.768-1.678-3.768-3.749 0-2.069 1.687-3.747 3.768-3.747 2.08 0 3.766 1.678 3.766 3.747M4.056 87.481c0 2.07-1.687 3.747-3.766 3.747a3.756 3.756 0 0 1-3.766-3.747A3.757 3.757 0 0 1 .29 83.733a3.758 3.758 0 0 1 3.766 3.748M22.89 87.481c0 2.07-1.686 3.747-3.766 3.747-2.081 0-3.768-1.678-3.768-3.747 0-2.07 1.687-3.748 3.768-3.748a3.758 3.758 0 0 1 3.766 3.748M41.725 87.481c0 2.07-1.687 3.747-3.768 3.747-2.08 0-3.766-1.678-3.766-3.747a3.758 3.758 0 0 1 3.766-3.748c2.081 0 3.768 1.678 3.768 3.748M60.558 87.481c0 2.07-1.687 3.747-3.767 3.747a3.756 3.756 0 0 1-3.766-3.747 3.757 3.757 0 0 1 3.766-3.748 3.758 3.758 0 0 1 3.767 3.748M79.392 87.481c0 2.07-1.687 3.747-3.766 3.747-2.081 0-3.768-1.678-3.768-3.747 0-2.07 1.687-3.748 3.768-3.748a3.758 3.758 0 0 1 3.766 3.748M4.056 99.873a3.758 3.758 0 0 1-3.766 3.749 3.757 3.757 0 0 1-3.766-3.75A3.756 3.756 0 0 1 .29 96.127c2.079 0 3.766 1.678 3.766 3.747M22.89 99.873a3.758 3.758 0 0 1-3.766 3.749c-2.081 0-3.768-1.679-3.768-3.75 0-2.068 1.687-3.746 3.768-3.746 2.08 0 3.766 1.678 3.766 3.747M41.725 99.873c0 2.07-1.687 3.749-3.768 3.749a3.758 3.758 0 0 1-3.766-3.75c0-2.068 1.687-3.746 3.766-3.746 2.081 0 3.768 1.678 3.768 3.747M60.558 99.873a3.758 3.758 0 0 1-3.767 3.749 3.757 3.757 0 0 1-3.766-3.75 3.756 3.756 0 0 1 3.766-3.746c2.08 0 3.767 1.678 3.767 3.747M79.392 99.873a3.758 3.758 0 0 1-3.766 3.749c-2.081 0-3.768-1.679-3.768-3.75 0-2.068 1.687-3.746 3.768-3.746 2.08 0 3.766 1.678 3.766 3.747M4.056 112.266c0 2.069-1.687 3.747-3.766 3.747a3.756 3.756 0 0 1-3.766-3.747 3.757 3.757 0 0 1 3.766-3.749 3.758 3.758 0 0 1 3.766 3.75M22.89 112.266c0 2.069-1.686 3.747-3.766 3.747-2.081 0-3.768-1.678-3.768-3.747 0-2.07 1.687-3.749 3.768-3.749a3.758 3.758 0 0 1 3.766 3.75M41.725 112.266c0 2.069-1.687 3.747-3.768 3.747-2.08 0-3.766-1.678-3.766-3.747a3.758 3.758 0 0 1 3.766-3.749c2.081 0 3.768 1.678 3.768 3.75M60.558 112.266c0 2.069-1.687 3.747-3.767 3.747a3.756 3.756 0 0 1-3.766-3.747 3.757 3.757 0 0 1 3.766-3.749 3.758 3.758 0 0 1 3.767 3.75M79.392 112.266c0 2.069-1.687 3.747-3.766 3.747-2.081 0-3.768-1.678-3.768-3.747 0-2.07 1.687-3.749 3.768-3.749a3.758 3.758 0 0 1 3.766 3.75" fill="#808285" mask="url(#ho4rf4swwt)"/>
        </g>
        <g opacity=".34" transform="translate(400 191)">
            <mask id="pqr7trilbv" fill="#fff">
                <use xlink:href="#0p8dip08lu"/>
            </mask>
            <path d="M4.035.734A3.748 3.748 0 1 1-3.46.735 3.748 3.748 0 0 1 4.035.734M22.773.734a3.749 3.749 0 1 1-7.497 0 3.749 3.749 0 0 1 7.497 0M41.51.734a3.747 3.747 0 1 1-7.494 0 3.746 3.746 0 1 1 7.494 0M60.248.734a3.748 3.748 0 1 1-7.496.001 3.748 3.748 0 0 1 7.496-.001M78.986.734a3.749 3.749 0 1 1-7.497 0 3.749 3.749 0 0 1 7.497 0M97.722.734a3.747 3.747 0 1 1-7.494 0 3.746 3.746 0 1 1 7.494 0M116.46.734a3.748 3.748 0 1 1-7.496.001 3.748 3.748 0 0 1 7.497-.001M4.035 13.127a3.748 3.748 0 1 1-7.495-.002 3.748 3.748 0 0 1 7.495.002M22.773 13.127a3.748 3.748 0 0 1-7.495 0 3.746 3.746 0 0 1 3.746-3.747 3.747 3.747 0 0 1 3.75 3.747M41.51 13.127a3.748 3.748 0 1 1-7.496-.002 3.748 3.748 0 0 1 7.496.002M60.248 13.127a3.746 3.746 0 0 1-3.747 3.747 3.747 3.747 0 1 1 0-7.494 3.746 3.746 0 0 1 3.747 3.747M78.986 13.127a3.747 3.747 0 0 1-3.749 3.747 3.746 3.746 0 1 1 0-7.494 3.747 3.747 0 0 1 3.75 3.747M97.722 13.127a3.746 3.746 0 1 1-7.492.001 3.746 3.746 0 0 1 7.492 0M116.46 13.127a3.746 3.746 0 0 1-3.746 3.747 3.747 3.747 0 1 1 0-7.494 3.746 3.746 0 0 1 3.747 3.747M4.035 25.519a3.748 3.748 0 1 1-7.496.001 3.748 3.748 0 0 1 7.496-.001M22.773 25.519a3.749 3.749 0 1 1-7.497 0 3.749 3.749 0 0 1 7.497 0M41.51 25.519a3.747 3.747 0 1 1-7.494 0 3.746 3.746 0 1 1 7.494 0M60.248 25.519a3.748 3.748 0 1 1-7.496.001 3.748 3.748 0 0 1 7.496-.001M78.986 25.519a3.749 3.749 0 1 1-7.497 0 3.749 3.749 0 0 1 7.497 0M97.722 25.519a3.747 3.747 0 1 1-7.494 0 3.746 3.746 0 1 1 7.494 0M116.46 25.519a3.748 3.748 0 1 1-7.496.001 3.748 3.748 0 0 1 7.497-.001M4.035 37.912a3.748 3.748 0 1 1-7.495-.002 3.748 3.748 0 0 1 7.495.002M22.773 37.912a3.748 3.748 0 0 1-7.495 0 3.746 3.746 0 0 1 3.746-3.747 3.747 3.747 0 0 1 3.75 3.747M41.51 37.912a3.748 3.748 0 1 1-7.496-.002 3.748 3.748 0 0 1 7.496.002M60.248 37.912a3.748 3.748 0 1 1-7.496-.002 3.748 3.748 0 0 1 7.496.002M78.986 37.912a3.748 3.748 0 0 1-7.496 0 3.746 3.746 0 0 1 3.747-3.747 3.747 3.747 0 0 1 3.75 3.747M97.722 37.912a3.748 3.748 0 1 1-7.495-.002 3.748 3.748 0 0 1 7.495.002M116.46 37.912a3.748 3.748 0 1 1-7.495-.002 3.748 3.748 0 0 1 7.496.002M4.035 50.303a3.748 3.748 0 1 1-7.496.002 3.748 3.748 0 0 1 7.496-.002M22.773 50.303a3.749 3.749 0 1 1-7.497 0 3.749 3.749 0 0 1 7.497 0M41.51 50.303a3.747 3.747 0 1 1-7.494 0 3.746 3.746 0 1 1 7.494 0M60.248 50.303a3.748 3.748 0 1 1-7.496.002 3.748 3.748 0 0 1 7.496-.002M78.986 50.303a3.749 3.749 0 1 1-7.497 0 3.749 3.749 0 0 1 7.497 0M97.722 50.303a3.747 3.747 0 1 1-7.494 0 3.746 3.746 0 1 1 7.494 0M116.46 50.303a3.748 3.748 0 1 1-7.496.002 3.748 3.748 0 0 1 7.497-.002M4.035 62.697a3.748 3.748 0 1 1-7.495-.002 3.748 3.748 0 0 1 7.495.002M22.773 62.697a3.748 3.748 0 0 1-7.495 0 3.746 3.746 0 0 1 3.746-3.747 3.747 3.747 0 0 1 3.75 3.747M41.51 62.697a3.748 3.748 0 1 1-7.496-.002 3.748 3.748 0 0 1 7.496.002M60.248 62.697a3.748 3.748 0 1 1-7.496-.002 3.748 3.748 0 0 1 7.496.002M78.986 62.697a3.748 3.748 0 0 1-7.496 0 3.746 3.746 0 0 1 3.747-3.747 3.747 3.747 0 0 1 3.75 3.747M97.722 62.697a3.748 3.748 0 1 1-7.495-.002 3.748 3.748 0 0 1 7.495.002M116.46 62.697a3.748 3.748 0 1 1-7.495-.002 3.748 3.748 0 0 1 7.496.002M4.035 75.088a3.748 3.748 0 1 1-7.496.001 3.748 3.748 0 0 1 7.496-.001M22.773 75.088a3.749 3.749 0 1 1-7.497 0 3.749 3.749 0 0 1 7.497 0M41.51 75.088a3.747 3.747 0 1 1-7.494 0 3.746 3.746 0 1 1 7.494 0M60.248 75.088a3.748 3.748 0 1 1-7.496.001 3.748 3.748 0 0 1 7.496-.001M78.986 75.088a3.749 3.749 0 1 1-7.497 0 3.749 3.749 0 0 1 7.497 0M97.722 75.088a3.747 3.747 0 1 1-7.494 0 3.746 3.746 0 1 1 7.494 0M116.46 75.088a3.748 3.748 0 1 1-7.496.001 3.748 3.748 0 0 1 7.497-.001M4.035 87.481a3.748 3.748 0 1 1-7.495-.001 3.748 3.748 0 0 1 7.495.001M22.773 87.481a3.748 3.748 0 0 1-7.495 0 3.746 3.746 0 0 1 3.746-3.746 3.747 3.747 0 0 1 3.75 3.746M41.51 87.481a3.746 3.746 0 1 1-7.493.001 3.746 3.746 0 0 1 7.493 0M60.248 87.481a3.746 3.746 0 0 1-3.747 3.747 3.747 3.747 0 1 1 0-7.493 3.746 3.746 0 0 1 3.747 3.746M78.986 87.481a3.747 3.747 0 0 1-3.749 3.747 3.746 3.746 0 1 1 0-7.493 3.747 3.747 0 0 1 3.75 3.746M97.722 87.481a3.746 3.746 0 1 1-7.492.001 3.746 3.746 0 0 1 7.492 0M116.46 87.481a3.746 3.746 0 0 1-3.746 3.747 3.747 3.747 0 1 1 0-7.493 3.746 3.746 0 0 1 3.747 3.746M4.035 99.873a3.748 3.748 0 1 1-7.496.001 3.748 3.748 0 0 1 7.496-.001M22.773 99.873a3.749 3.749 0 1 1-7.497 0 3.749 3.749 0 0 1 7.497 0M41.51 99.873a3.747 3.747 0 1 1-7.494 0 3.746 3.746 0 1 1 7.494 0M60.248 99.873a3.748 3.748 0 1 1-7.496.001 3.748 3.748 0 0 1 7.496-.001M78.986 99.873a3.749 3.749 0 1 1-7.497 0 3.749 3.749 0 0 1 7.497 0M97.722 99.873a3.747 3.747 0 1 1-7.494 0 3.746 3.746 0 1 1 7.494 0M116.46 99.873a3.748 3.748 0 1 1-7.496.001 3.748 3.748 0 0 1 7.497-.001M4.035 112.266a3.748 3.748 0 1 1-7.495-.002 3.748 3.748 0 0 1 7.495.002M22.773 112.266a3.748 3.748 0 0 1-7.495 0 3.746 3.746 0 0 1 3.746-3.747 3.747 3.747 0 0 1 3.75 3.747M41.51 112.266a3.748 3.748 0 1 1-7.496-.002 3.748 3.748 0 0 1 7.496.002M60.248 112.266a3.748 3.748 0 1 1-7.496-.002 3.748 3.748 0 0 1 7.496.002M78.986 112.266a3.748 3.748 0 0 1-7.496 0 3.746 3.746 0 0 1 3.747-3.747 3.747 3.747 0 0 1 3.75 3.747M97.722 112.266a3.748 3.748 0 1 1-7.495-.002 3.748 3.748 0 0 1 7.495.002M116.46 112.266a3.748 3.748 0 1 1-7.495-.002 3.748 3.748 0 0 1 7.496.002" fill="#808285" mask="url(#pqr7trilbv)"/>
        </g>
        <path fill="#FFDE17" opacity=".34" d="m44 496.329 18.279 21.887-18.239 19.363L45.502 539 65 518.3 45.542 495 44 496.329"/>
        <path d="M966.983 325.499h-1.017a23.387 23.387 0 0 1-6.871 16.594 23.4 23.4 0 0 1-16.595 6.873 23.4 23.4 0 0 1-16.595-6.873 23.387 23.387 0 0 1-6.871-16.594 23.379 23.379 0 0 1 6.871-16.592 23.39 23.39 0 0 1 16.595-6.873 23.39 23.39 0 0 1 16.595 6.873 23.383 23.383 0 0 1 6.871 16.592H968C968 311.416 956.585 300 942.5 300S917 311.416 917 325.499c0 14.085 11.415 25.499 25.5 25.501 14.085-.002 25.5-11.416 25.5-25.501h-1.017" fill="#F89319" opacity=".34"/>
        <path d="M959.974 325.499h-1.025c0 4.545-1.838 8.652-4.816 11.632a16.404 16.404 0 0 1-11.633 4.818 16.404 16.404 0 0 1-11.632-4.818 16.392 16.392 0 0 1-4.817-11.632c0-4.545 1.838-8.65 4.817-11.63a16.395 16.395 0 0 1 11.632-4.818c4.546 0 8.652 1.84 11.633 4.818a16.387 16.387 0 0 1 4.816 11.63H961c0-10.217-8.283-18.499-18.5-18.499s-18.5 8.282-18.5 18.499c0 10.219 8.28 18.499 18.5 18.501 10.217-.002 18.5-8.282 18.5-18.501h-1.026" fill="#F89319" opacity=".34"/>
        <path d="M953 325.999h-1a8.966 8.966 0 0 1-2.635 6.365A8.978 8.978 0 0 1 943 335a8.978 8.978 0 0 1-6.365-2.636 8.966 8.966 0 0 1-2.635-6.365 8.961 8.961 0 0 1 2.635-6.363A8.97 8.97 0 0 1 943 317a8.97 8.97 0 0 1 6.365 2.636A8.961 8.961 0 0 1 952 326h2c0-6.075-4.925-10.999-11-10.999s-11 4.924-11 10.999c0 6.077 4.925 10.999 11 11.001 6.075-.002 11-4.924 11-11.001h-1" fill="#F89319" opacity=".34"/>
        <path d="M944.863 325.499h-1.137a2.23 2.23 0 0 1-2.226 2.228 2.23 2.23 0 0 1-2.226-2.228 2.23 2.23 0 0 1 2.226-2.226 2.23 2.23 0 0 1 2.226 2.226H946a4.5 4.5 0 1 0-8.999 0 4.5 4.5 0 0 0 8.999 0h-1.137M907.034 327c0-13.8 5.59-26.287 14.633-35.331 9.047-9.045 21.532-14.635 35.333-14.635V275c-28.719 0-52 23.28-52 52h2.034M984.945 325c-.002 13.801-5.65 26.286-14.785 35.33-9.137 9.045-21.752 14.636-35.694 14.636-13.139 0-25.096-4.966-34.079-13.108L899 363.36c9.343 8.469 21.8 13.64 35.466 13.64 29.015 0 52.532-23.281 52.534-52h-2.055" fill="#F89319" opacity=".34"/>
        <path d="M328.954 1266.999h-1.046a16.85 16.85 0 0 1-4.953 11.956 16.859 16.859 0 0 1-11.956 4.953 16.859 16.859 0 0 1-11.956-4.953 16.849 16.849 0 0 1-4.95-11.956c0-4.672 1.889-8.893 4.95-11.956a16.849 16.849 0 0 1 11.956-4.95c4.672 0 8.893 1.889 11.956 4.95a16.85 16.85 0 0 1 4.953 11.956H330c-.002-10.493-8.508-18.999-19.001-18.999-10.493 0-18.999 8.506-18.999 18.999 0 10.493 8.506 18.999 18.999 19.001 10.493-.002 18.999-8.508 19.001-19.001h-1.046" fill="#808285" opacity=".34"/>
        <path d="M322.973 1266.5h-1.027c0 3.163-1.28 6.019-3.353 8.093a11.406 11.406 0 0 1-8.093 3.353c-3.163 0-6.019-1.28-8.093-3.353a11.414 11.414 0 0 1-3.353-8.093 11.414 11.414 0 0 1 3.353-8.093 11.414 11.414 0 0 1 8.093-3.353 11.414 11.414 0 0 1 8.093 3.353 11.406 11.406 0 0 1 3.353 8.093H324c0-7.457-6.043-13.498-13.5-13.5-7.457.002-13.498 6.043-13.5 13.5.002 7.457 6.043 13.5 13.5 13.5s13.5-6.043 13.5-13.5h-1.027" fill="#808285" opacity=".34"/>
        <path d="M317.954 1266.5h-1.046a6.415 6.415 0 0 1-6.408 6.408 6.416 6.416 0 0 1-6.408-6.408 6.418 6.418 0 0 1 6.408-6.408 6.416 6.416 0 0 1 6.408 6.408H319a8.5 8.5 0 0 0-8.5-8.5 8.5 8.5 0 0 0-8.5 8.5 8.5 8.5 0 0 0 8.5 8.5 8.5 8.5 0 0 0 8.5-8.5h-1.046" fill="#808285" opacity=".34"/>
        <path d="M313.035 1267h-.965c-.002.59-.48 1.07-1.071 1.071a1.07 1.07 0 1 1 1.071-1.071H314a3 3 0 1 0-6 0 3 3 0 0 0 6 0h-.965M286.07 1268c0-9.926 4.02-18.902 10.523-25.406 6.506-6.505 15.482-10.524 25.407-10.524V1230c-20.987 0-37.998 17.012-38 38h2.07M339.952 1267c0 9.925-3.978 18.9-10.416 25.407-6.437 6.502-15.32 10.524-25.144 10.524-9.258 0-17.678-3.57-24.007-9.425l-1.385 1.525c6.688 6.19 15.608 9.969 25.392 9.969 20.771-.002 37.608-17.013 37.608-38h-2.048" fill="#808285" opacity=".34"/>
        <path fill="#F89319" opacity=".34" d="M891 775h101v-2H891z"/>
        <path fill="#50D3C3" opacity=".34" d="M891 787h101v-2H891z"/>
    </g>
</svg>
