<svg width="208" height="179" viewBox="0 0 208 179" xmlns="http://www.w3.org/2000/svg">
    <g fill="none" fill-rule="evenodd">
        <g transform="translate(31)" fill-rule="nonzero">
            <rect stroke="#F89319" stroke-width="7" y="18.93" width="150" height="129.07" rx="20"/>
            <path d="M50.302 14.686v21.362c0 8.11-6.575 14.686-14.686 14.686-8.11 0-14.686-6.576-14.686-14.686a4.005 4.005 0 1 1 8.01 0 6.675 6.675 0 1 0 13.352 0V14.686a6.675 6.675 0 1 0-13.351 0v1.335h-8.01v-1.335C20.93 6.576 27.504 0 35.615 0s14.686 6.575 14.686 14.686zM118.58 76.186H31.42c-3.61 0-6.536-1.671-6.536-3.733 0-2.06 2.926-3.732 6.537-3.732h87.158c3.61 0 6.537 1.671 6.537 3.732 0 2.062-2.926 3.733-6.537 3.733zM99.884 96.186H30.116c-2.89 0-5.232-1.671-5.232-3.733 0-2.06 2.342-3.732 5.232-3.732h69.768c2.89 0 5.232 1.671 5.232 3.732 0 2.062-2.342 3.733-5.232 3.733zM71.977 117.093h-41.86c-2.89 0-5.233-1.671-5.233-3.733 0-2.061 2.342-3.732 5.232-3.732h41.86c2.89 0 5.233 1.671 5.233 3.732 0 2.062-2.342 3.733-5.232 3.733z" fill="#F89319"/>
        </g>
        <path d="M42.3 16.029c-62.57 6.876-39.94 84.72-30.257 117.398 20.575 70.197 99.244 42.36 146.445 20.575 42.36-19.365 68.987-49.622 29.047-87.14C160.91 41.444 108.386 8.766 42.301 16.028" fill-opacity=".124" fill="#F89319"/>
    </g>
</svg>
