<?xml version="1.0" encoding="UTF-8"?>
<svg width="28px" height="26px" viewBox="0 0 28 26" version="1.1" xmlns="http://www.w3.org/2000/svg" xmlns:xlink="http://www.w3.org/1999/xlink">
    <title>Group</title>
    <defs>
        <polygon id="path-1" points="0 0 28 0 28 25.2 0 25.2"></polygon>
    </defs>
    <g id="Page-1" stroke="none" stroke-width="1" fill="none" fill-rule="evenodd">
        <g id="00_Home" transform="translate(-1217, -39)">
            <g id="Group" transform="translate(1217, 39)">
                <g id="Group-45">
                    <mask id="mask-2" fill="white">
                        <use xlink:href="#path-1"></use>
                    </mask>
                    <g id="Clip-43"></g>
                    <path d="M16.9918104,15.7050077 L16.9918104,19.5452829 C16.9918104,20.5981741 18.5633576,20.5981741 18.5633576,19.5452829 L18.5633576,15.7050077 C18.5633576,14.6517777 16.9918104,14.6517777 16.9918104,15.7050077" id="Fill-42" fill="#7F7F7F" mask="url(#mask-2)"></path>
                    <path d="M22.9495063,21.4650817 C22.7896086,22.5989385 22.4293369,23.6084675 21.0518079,23.6084675 L6.94802493,23.6084675 C5.3396812,23.6084675 5.16840999,22.3001451 4.99814232,21.0941306 L3.30984972,9.12511491 L7.59430615,9.12511491 L7.04202339,10.1813938 L6.50746988,10.1813938 C5.46746558,10.1813938 5.46746558,11.7729264 6.50746988,11.7729264 L8.87281899,11.7729264 C9.85327978,11.7729264 9.93791185,10.3026728 8.96414134,10.1868141 L8.82498348,10.1702145 L9.37124498,9.12511491 L18.6289224,9.12511491 L19.1751839,10.1702145 L19.0356915,10.1868141 C18.0622555,10.3026728 18.146553,11.7729264 19.1273483,11.7729264 L21.4926975,11.7729264 C22.5327018,11.7729264 22.5327018,10.1813938 21.4926975,10.1813938 L20.9578094,10.1813938 L20.4055267,9.12511491 L24.6903176,9.12511491 L22.9495063,21.4650817 Z M27.2249309,7.53358238 L19.5732556,7.53358238 L15.8504483,0.413693236 C15.3637303,-0.516563965 14.0069412,0.285638894 14.4929902,1.21555733 L17.7966513,7.53358238 L10.203516,7.53358238 L13.5068426,1.21555733 C13.9932261,0.285638894 12.636437,-0.516902733 12.149719,0.413693236 L8.4265772,7.53358238 L0.775236479,7.53358238 C-0.257743023,7.53358238 -0.25908108,9.12511491 0.775236479,9.12511491 L1.74030962,9.12511491 L3.44365535,21.1984712 C3.73602067,23.2700381 4.34416728,25.2 6.94802493,25.2 L21.0521424,25.2 C23.3950791,25.2 24.2263466,23.5386812 24.5110181,21.5209784 L26.2598577,9.12511491 L27.2249309,9.12511491 C28.2589139,9.12511491 28.2579104,7.53358238 27.2249309,7.53358238 L27.2249309,7.53358238 Z" id="Fill-44" fill="#7F7F7F" mask="url(#mask-2)"></path>
                </g>
                <path d="M9.1,15.5161763 L9.1,19.4840863 C9.1,20.5719712 10.5,20.5719712 10.5,19.4840863 L10.5,15.5161763 C10.5,14.4279412 9.1,14.4279412 9.1,15.5161763" id="Fill-40" fill="#7F7F7F"></path>
                <path d="M13.3,14.0950592 L13.3,19.5049408 C13.3,20.5650197 14.7,20.5650197 14.7,19.5049408 L14.7,14.0950592 C14.7,13.0349803 13.3,13.0349803 13.3,14.0950592" id="Fill-41" fill="#7F7F7F"></path>
            </g>
        </g>
    </g>
</svg>