<?xml version="1.0" encoding="UTF-8"?>
<svg width="208px" height="176px" viewBox="0 0 208 176" version="1.1" xmlns="http://www.w3.org/2000/svg" xmlns:xlink="http://www.w3.org/1999/xlink">
    <title>Group 21</title>
    <defs>
        <rect id="path-1" x="0" y="0" width="150" height="150"></rect>
    </defs>
    <g id="Page-1" stroke="none" stroke-width="1" fill="none" fill-rule="evenodd">
        <g id="Group-21" transform="translate(0.4043, 0.4529)">
            <g id="handshake_2488939" transform="translate(17.5957, 25.5471)">
                <mask id="mask-2" fill="white">
                    <use xlink:href="#path-1"></use>
                </mask>
                <g id="Mask"></g>
                <g mask="url(#mask-2)" fill="#F89319" fill-rule="nonzero" id="Shape">
                    <g transform="translate(2, 14)">
                        <path d="M115.146829,122 C130.965337,121.967337 144.362776,110.140233 146.60743,94.2269464 C148.852083,78.3136602 139.263545,63.1378783 124.091098,58.5903436 C127.466941,55.3686979 128.500762,54.9827975 143.319684,46.2863457 C145.009814,45.2966748 146.243487,43.6647791 146.748945,41.7501403 C147.254403,39.8355013 146.99018,37.795191 146.014479,36.0786583 L127.640878,3.74020659 C126.667054,2.02257319 125.061289,0.768823817 123.177309,0.255140196 C121.293329,-0.2585434 119.285689,0.00997995133 117.596643,1.00155874 L85.6584243,19.7513378 L70.5381755,10.8806084 C65.820761,8.11342654 60.0620394,7.89625545 55.1557967,10.300513 C51.7109596,11.99036 47.6663575,11.8374661 44.3545691,9.89220553 C39.6876744,7.15355768 40.5843061,7.66892141 29.396008,1.10363562 C27.7046534,0.116488157 25.6965557,-0.146922113 23.8139936,0.371420346 C21.9314317,0.889762805 20.3288171,2.14734248 19.3591222,3.86718026 L16.8211154,8.34860401 C16.1446181,9.54005211 16.5466022,11.0632454 17.7189721,11.7507515 C18.8913419,12.4382576 20.3901449,12.029732 21.0666422,10.8382839 L23.6070988,6.35686012 C23.9282715,5.78123725 24.4617164,5.35923375 25.0896137,5.18405574 C25.7175109,5.00887774 26.3881983,5.0949385 26.953544,5.42323018 L35.4396979,10.4025899 L14.6162833,47.0606362 L6.13012943,42.0812765 C5.570553,41.7519097 5.16286374,41.2098741 4.99696027,40.5746927 C4.83105679,39.9395117 4.92056467,39.2633517 5.24574676,38.6953118 L15.289982,21.0434816 C15.9555725,19.8537633 15.5514789,18.3411322 14.3852519,17.6568335 C13.2190249,16.9725349 11.7279674,17.3731617 11.0469051,18.5538018 L0.985521127,36.2031423 C0.00982014581,37.919675 -0.254403433,39.9599853 0.251054724,41.8746243 C0.756512906,43.7892631 1.99018642,45.4211588 3.68031595,46.4108297 C21.2895752,56.7430012 19.5012114,55.6774182 24.7609609,58.7596418 C22.8924333,60.6364671 21.9833827,63.2862202 22.2986823,65.9368334 C22.6139819,68.5874465 24.1181597,70.940719 26.3729382,72.3109693 C24.1187685,74.815706 23.5093304,78.426534 24.8133112,81.5515227 C26.1172921,84.6765113 29.0950565,86.7413744 32.4337767,86.8357616 C32.1958035,89.2313032 32.9505852,91.6193068 34.5167375,93.4259044 C36.08289,95.2325017 38.3188179,96.2943589 40.6871983,96.3562974 C40.3635633,99.6046587 41.8606386,102.762878 44.5618902,104.53032 C47.2631415,106.297763 50.7117439,106.375524 53.4874737,104.73158 L83.4217446,87.1569303 C82.7372062,96.1412481 85.7715116,105.008511 91.7936803,111.622546 C97.8158488,118.236582 106.279911,121.997763 115.146829,122 Z M142.094777,89.6341618 C142.094777,104.759296 130.02977,117.02064 115.146829,117.02064 C100.263888,117.02064 88.1988809,104.759296 88.1988809,89.6341618 C88.1988809,74.5090275 100.263888,62.2476833 115.146829,62.2476833 C130.022495,62.2655182 142.077228,74.5164209 142.094777,89.6341618 Z M120.046456,5.3211533 C121.216419,4.63664622 122.710785,5.04303908 123.388002,6.22988645 L141.761603,38.5708278 C142.438479,39.7609409 142.0382,41.2833517 140.867421,41.9717305 L132.381267,46.9510903 L111.557852,10.300513 L120.046456,5.3211533 Z M51.0401101,100.426924 C49.2789962,101.43589 47.0476777,100.839204 46.0032936,99.0800072 C44.9984345,97.3129427 45.5755645,95.0533367 47.2992449,94.0060396 L80.2369871,74.6786549 C81.0012083,74.2370813 81.4740282,73.4132173 81.4759609,72.5198079 C81.4778935,71.6263985 81.0086425,70.8004298 80.246339,70.3554456 C79.4840357,69.9104616 78.5455633,69.9146913 77.7871736,70.3665294 L42.779339,90.9063882 C41.020446,91.9376472 38.7719675,91.32458 37.7572216,89.5370643 C36.7424756,87.7495483 37.345726,85.4644798 39.1046188,84.4332206 L74.1124534,63.8933617 C74.8766747,63.4517881 75.3494945,62.6279242 75.3514272,61.7345147 C75.3533598,60.8411053 74.8841089,60.0151366 74.1218053,59.5701524 C73.359502,59.1251684 72.4210296,59.1293981 71.6626399,59.5812362 C33.2544642,82.1178183 36.2628352,80.2679862 35.3294562,81.0920702 C34.2613376,81.2887549 33.5974381,82.2323436 31.7478289,81.739387 C30.3122137,81.3463138 29.2511314,80.1128079 29.0596547,78.6143906 C28.8681781,77.1159733 29.5840429,75.647948 30.8732455,74.895257 L67.5224551,53.3371191 C68.6485905,52.629085 69.0172578,51.139755 68.3548449,49.9744586 C67.692432,48.8091622 66.2387365,48.3897448 65.0726417,49.0274833 L32.5734161,68.1382659 C31.2841194,68.8341964 29.7123862,68.6926663 28.563582,67.7771921 C27.4147779,66.8617179 26.9046837,65.3442538 27.2622205,63.9058101 C27.5109314,62.9457784 28.1288582,62.1276068 28.9770899,61.6352221 L43.2448036,53.2848358 C44.0031938,52.8400973 44.4705095,52.0179615 44.4707172,51.128119 C44.4709249,50.2382766 44.0039932,49.4159154 43.2458105,48.9708114 C42.487628,48.5257075 41.5533803,48.5254821 40.7949901,48.9702206 L29.3323129,55.6923563 L18.8691595,49.550316 L39.692574,12.9047182 L41.9170047,14.2093104 C46.6347413,16.974704 52.3921984,17.1927592 57.2993835,14.7918955 C60.7434932,13.0985197 64.789806,13.2514782 68.1006111,15.200203 C117.096881,43.943557 113.745536,41.7551284 113.485856,42.1833533 C110.714143,46.7782014 104.837616,48.2800883 100.256863,45.5643386 L70.6141197,28.1739247 C70.0509316,27.8432036 69.3814464,27.7536748 68.7532439,27.9250733 C68.1250416,28.0964721 67.5896983,28.5147266 67.2652247,29.0876373 C64.6414745,33.7508076 61.9221815,38.8446926 56.596287,40.3136038 C52.367909,41.4837533 46.9513714,40.1592436 40.4985627,36.3724405 C39.3261929,35.6849344 37.8273899,36.0934602 37.1508926,37.2849082 C36.4743952,38.4763562 36.8763794,39.9995496 38.0487492,40.6870557 C45.6750186,45.1684795 52.3532101,46.649839 57.8922384,45.1186859 C64.4136418,43.3111783 67.9364736,37.8836762 70.3005436,33.7333799 L97.8070493,49.8714847 C110.477485,57.3106482 124.206239,42.372569 116.094907,37.6048321 L90.5580512,22.626918 L107.307426,12.7901929 L128.130841,49.4482392 C124.449999,51.519618 121.148925,54.2216453 118.373233,57.4351322 C103.035382,55.868644 88.7929398,65.6830554 84.5486588,80.743515 L51.0401101,100.426924 Z"></path>
                        <path d="M100.137215,91.7181552 C99.1793204,90.7697366 97.6566986,90.7833002 96.715026,91.7486404 C95.7733535,92.7139806 95.7601224,94.2748715 96.6852882,95.2568418 L106.450287,105.267271 C107.403595,106.244243 108.948907,106.244243 109.902214,105.267271 L134.314712,80.2411985 C135.239878,79.2592283 135.226647,77.6983374 134.284974,76.7329972 C133.343301,75.767657 131.82068,75.7540934 130.862785,76.7025119 L108.176251,99.9592407 L100.137215,91.7181552 Z"></path>
                    </g>
                </g>
            </g>
            <path d="M42.3005155,1.02891053 C-20.2691126,7.90457414 2.36090993,85.7492859 12.0432385,118.427145 C32.6181868,188.624027 111.287107,160.787333 158.488459,139.002093 C200.848647,119.637436 227.47505,89.3801591 187.535445,51.8611357 C160.909041,26.4450231 108.386039,-6.23283593 42.3005155,1.02891053" id="Fill-3" fill-opacity="0.124016608" fill="#F89319"></path>
        </g>
    </g>
</svg>