<svg width="551" height="439" viewBox="0 0 551 439" xmlns="http://www.w3.org/2000/svg">
    <g fill="none" fill-rule="evenodd">
        <path d="M450.172 112.423a2.85 2.85 0 0 0 3.66 1.715c1.552-.553 2.358-2.314 1.743-3.809-.584-1.425-2.326-2.176-3.757-1.621-1.45.564-2.195 2.238-1.646 3.715zM210.969.15c-1.462.507-2.265 2.177-1.762 3.665.512 1.515 2.1 2.321 3.607 1.831 1.568-.51 2.418-2.23 1.857-3.755-.53-1.439-2.245-2.246-3.702-1.741zm-56.151 27.703c1.534-.553 2.41-2.397 1.878-3.955-.535-1.571-2.32-2.436-3.915-1.898-1.706.575-2.542 2.335-1.907 4.011.6 1.58 2.372 2.409 3.944 1.842zm317.16 142.78c.554 1.57 2.336 2.411 3.933 1.858 1.631-.566 2.467-2.243 1.923-3.867-.559-1.678-2.392-2.573-4.018-1.964-1.531.573-2.387 2.425-1.838 3.973zM184.086 16.922c1.731-.657 2.544-2.48 1.878-4.21-.655-1.704-2.557-2.568-4.228-1.922-1.644.636-2.533 2.629-1.906 4.27.642 1.678 2.546 2.512 4.256 1.862zm280.957 126.721c1.717-.633 2.609-2.503 1.99-4.194-.6-1.649-2.58-2.571-4.241-1.977-1.682.602-2.553 2.51-1.934 4.222.64 1.745 2.448 2.588 4.185 1.95zM279.976 6.148a4.078 4.078 0 0 0-2.473 5.203c.746 2.106 3.102 3.221 5.214 2.468a4.075 4.075 0 0 0 2.463-5.207 4.072 4.072 0 0 0-5.204-2.464zM403.14 68.092a4.065 4.065 0 0 0 2.301-5.273 4.08 4.08 0 0 0-5.28-2.309c-2.085.816-3.13 3.208-2.309 5.285a4.086 4.086 0 0 0 5.288 2.297zM364.9 406.236c-2.318.838-3.467 3.284-2.626 5.59.837 2.292 3.331 3.472 5.602 2.65 2.265-.822 3.455-3.355 2.642-5.622-.816-2.271-3.331-3.444-5.618-2.618zM41.3 267.192c.884 2.293 3.356 3.383 5.653 2.493 2.268-.879 3.394-3.41 2.517-5.66-.876-2.242-3.437-3.372-5.685-2.505-2.254.868-3.361 3.397-2.485 5.672zm271.175 163.461c-.944-2.387-3.599-3.528-6-2.577-2.368.937-3.556 3.673-2.609 6.008.952 2.344 3.716 3.532 6.043 2.595 2.36-.949 3.508-3.645 2.566-6.026zM63.084 325.423c.91 2.39 3.577 3.618 5.956 2.745 2.4-.881 3.683-3.767 2.723-6.13-.956-2.353-3.641-3.5-6.031-2.575-2.41.933-3.57 3.541-2.648 5.96zm39.215-247.621c.94 2.402 3.556 3.55 5.976 2.62 2.385-.914 3.607-3.594 2.72-5.963-.9-2.402-3.788-3.67-6.146-2.696-2.353.97-3.485 3.652-2.55 6.039zm361.107 162.682c.952 2.459 3.626 3.632 6.089 2.673 2.437-.95 3.646-3.677 2.7-6.094-.943-2.404-3.723-3.623-6.125-2.687-2.427.943-3.61 3.659-2.664 6.108zM335.692 416.83c-2.433.9-3.706 3.627-2.838 6.073a4.77 4.77 0 0 0 6.172 2.896c2.51-.932 3.776-3.746 2.8-6.224-.948-2.41-3.706-3.645-6.134-2.745zM51.915 296.409c.865 2.422 3.593 3.731 6.061 2.906 2.51-.84 3.855-3.656 2.94-6.16-.897-2.46-3.575-3.743-6.036-2.894a4.788 4.788 0 0 0-2.965 6.148zM366.229 44.277c-1.036-2.635-3.888-3.848-6.542-2.782-2.53 1.017-3.795 3.882-2.832 6.417.974 2.566 3.996 3.912 6.553 2.92 2.593-1.005 3.852-3.931 2.82-6.555zm-46.637-20.87c-2.596.992-3.925 3.927-2.956 6.53.995 2.677 3.99 3.994 6.664 2.93 2.616-1.04 3.864-3.927 2.833-6.553-1.026-2.611-3.935-3.904-6.541-2.907zm89.08 337.575c1.055 2.796 4.14 4.213 6.908 3.173 2.737-1.028 4.181-4.207 3.156-6.947-1.033-2.764-4.144-4.16-6.936-3.114-2.828 1.06-4.194 4.067-3.129 6.888zM57.366 194.653c-1.043-2.84-4.038-4.236-6.86-3.195-2.811 1.035-4.251 4.088-3.242 6.873.995 2.742 4.162 4.217 6.922 3.223 2.772-.997 4.206-4.107 3.18-6.9zm360.38-103.296a5.46 5.46 0 0 0-7.092-3.142c-2.827 1.095-4.224 4.305-3.097 7.114 1.105 2.752 4.222 4.133 6.994 3.1a5.461 5.461 0 0 0 3.194-7.072zM257.233 18.975c-1.13-2.81-4.33-4.153-7.153-3.002-2.737 1.116-4.085 4.249-3.019 7.016 1.088 2.821 4.32 4.238 7.119 3.12a5.465 5.465 0 0 0 3.053-7.134zM141.272 63.048c-1.13-3.054-4.419-4.59-7.463-3.486-3.104 1.125-4.69 4.56-3.514 7.608 1.145 2.967 4.585 4.512 7.56 3.395 3-1.125 4.534-4.502 3.417-7.517zm317.536 152.246c3.138-1.158 4.654-4.49 3.465-7.607-1.153-3.017-4.492-4.552-7.519-3.455-3.036 1.1-4.648 4.639-3.49 7.661 1.154 2.998 4.518 4.516 7.544 3.4zM444.31 280.98c1.163 3.098 4.562 4.652 7.63 3.484 3.03-1.153 4.592-4.677 3.414-7.69-1.169-2.993-4.518-4.491-7.544-3.378-3.138 1.155-4.669 4.464-3.5 7.584zM93.98 114.2c-1.19-3.111-4.527-4.583-7.646-3.373a5.891 5.891 0 0 0-3.42 7.52c1.11 3.037 4.616 4.646 7.652 3.51 3.073-1.15 4.596-4.567 3.414-7.656zm139.367 313.157a6.003 6.003 0 0 0 7.658 3.5c3.12-1.135 4.733-4.676 3.545-7.782-1.192-3.115-4.71-4.65-7.831-3.415a5.97 5.97 0 0 0-3.372 7.697zM120.64 376.541a5.97 5.97 0 0 0 3.39-7.822c-1.212-3.032-4.687-4.542-7.722-3.358-3.047 1.187-4.592 4.617-3.464 7.684 1.148 3.123 4.67 4.701 7.796 3.496zM76.154 154.113c-1.204-3.163-4.613-4.717-7.785-3.55-3.223 1.188-4.847 4.725-3.63 7.903 1.216 3.166 4.833 4.754 7.987 3.505 3.1-1.229 4.622-4.717 3.428-7.858zM433.9 324.798c3.158-1.215 4.694-4.632 3.505-7.8-1.203-3.21-4.754-4.817-7.926-3.581-3.098 1.206-4.679 4.722-3.52 7.839 1.183 3.19 4.738 4.776 7.941 3.542zM220.813 26.187c-3.256 1.206-4.924 4.779-3.745 8.023 1.196 3.292 4.92 4.988 8.19 3.73 3.223-1.241 4.826-4.844 3.598-8.089-1.237-3.27-4.768-4.878-8.043-3.664zm205.12 102.163c3.233-1.227 4.85-4.823 3.636-8.072-1.249-3.34-4.87-4.947-8.19-3.637a6.264 6.264 0 0 0-3.557 8.106c1.246 3.2 4.901 4.824 8.111 3.603zm13.733 54.481c1.24 3.393 4.96 5.122 8.33 3.868 3.364-1.249 5.076-5.018 3.807-8.368a6.455 6.455 0 0 0-8.229-3.794c-3.414 1.212-5.151 4.895-3.908 8.294zM158.757 56.433c1.303 3.35 5.069 4.982 8.43 3.652a6.411 6.411 0 0 0 3.664-8.271 6.458 6.458 0 0 0-8.369-3.786c-3.345 1.277-5.023 5.065-3.725 8.405zm282.108 92.857c-1.314-3.441-5.051-5.096-8.496-3.763-3.339 1.289-5.036 5.02-3.817 8.372 1.229 3.364 5.142 5.158 8.51 3.902 3.395-1.266 5.107-5.098 3.803-8.51zM187.855 45.363c1.294 3.413 5.132 5.14 8.505 3.828 3.356-1.305 5.083-5.244 3.757-8.566-1.324-3.318-5.068-4.971-8.421-3.72-3.46 1.292-5.15 5.011-3.842 8.458zM382.061 363.94c-3.448 1.349-5.128 5.266-3.736 8.712 1.363 3.372 5.209 5.018 8.604 3.68a6.623 6.623 0 0 0 3.731-8.704 6.648 6.648 0 0 0-8.599-3.688zM57.138 227.905a6.65 6.65 0 0 0 8.708 3.746c3.365-1.358 5.017-5.205 3.694-8.598-1.323-3.396-5.132-5.087-8.551-3.797a6.618 6.618 0 0 0-3.85 8.65zm228.86-186.353a6.828 6.828 0 0 0 8.775 4c3.531-1.307 5.345-5.215 4.058-8.742a6.843 6.843 0 0 0-8.886-4.052 6.833 6.833 0 0 0-3.947 8.794zm80.246 36.177a6.843 6.843 0 0 0 8.795 3.958c3.587-1.348 5.369-5.372 3.952-8.925-1.398-3.506-5.343-5.223-8.844-3.847a6.832 6.832 0 0 0-3.903 8.814zM205.193 404.86c-1.327-3.538-5.245-5.336-8.781-4.03-3.61 1.333-5.434 5.36-4.043 8.919 1.37 3.503 5.355 5.271 8.856 3.93a6.864 6.864 0 0 0 3.968-8.818zM156.2 382.67c-3.592 1.392-5.311 5.35-3.892 8.956 1.376 3.494 5.325 5.252 8.84 3.934 3.536-1.326 5.384-5.437 4.026-8.957-1.375-3.566-5.387-5.324-8.974-3.933zm-46.03-34.232a7.008 7.008 0 0 0 3.782-9.202c-1.485-3.57-5.629-5.242-9.234-3.725-3.5 1.473-5.18 5.568-3.73 9.089 1.491 3.622 5.597 5.338 9.182 3.838zm155.41 59.204c-3.626 1.402-5.413 5.483-3.99 9.11 1.394 3.554 5.396 5.335 8.982 3.996a6.997 6.997 0 0 0 4.102-9.061 7.014 7.014 0 0 0-9.093-4.045zm60.05-347.91c1.441 3.794 5.555 5.64 9.352 4.202 3.76-1.426 5.665-5.63 4.242-9.362-1.415-3.712-5.696-5.635-9.41-4.226-3.738 1.418-5.615 5.626-4.185 9.387zM71.582 247.862c-3.797 1.574-5.56 5.854-3.966 9.624a7.347 7.347 0 0 0 9.662 3.918c3.73-1.574 5.468-5.936 3.86-9.69-1.569-3.664-5.848-5.389-9.556-3.852zm360.338 4.547a7.342 7.342 0 0 0 9.543 4.196c3.787-1.483 5.646-5.776 4.14-9.57-1.476-3.718-5.68-5.558-9.438-4.132a7.302 7.302 0 0 0-4.245 9.506zM110.79 107.914c1.464 3.797 5.717 5.68 9.527 4.218 3.792-1.455 5.697-5.746 4.227-9.523-1.477-3.8-5.744-5.687-9.538-4.22a7.364 7.364 0 0 0-4.216 9.525zm237.663 275.922c1.458 3.79 5.751 5.69 9.531 4.22 3.801-1.48 5.69-5.748 4.219-9.534a7.377 7.377 0 0 0-9.537-4.208 7.352 7.352 0 0 0-4.213 9.522zm-249.338-64a7.517 7.517 0 0 0 4.318-9.794 7.502 7.502 0 0 0-9.686-4.268 7.514 7.514 0 0 0-4.323 9.792c1.502 3.826 5.837 5.736 9.69 4.27zm190.922 85.97c1.466 3.963 5.8 5.953 9.746 4.473 3.936-1.476 5.936-5.872 4.45-9.776-1.457-3.825-5.795-5.816-9.677-4.441-3.916 1.387-5.971 5.817-4.52 9.743zM82.666 276.67c-4.002 1.55-5.92 5.944-4.343 9.945 1.54 3.906 5.906 5.85 9.824 4.375 3.965-1.493 5.983-5.975 4.472-9.932-1.517-3.973-5.964-5.934-9.953-4.389zm246.57 122.56a7.65 7.65 0 0 0 4.163-10.045c-1.61-3.836-6.068-5.701-9.943-4.16-3.95 1.572-5.841 6.04-4.236 10.012 1.607 3.973 6.028 5.825 10.017 4.192zm66.203-66.458c1.487 4.002 5.887 6.046 9.878 4.588 4.07-1.486 6.145-6 4.605-10.015-1.517-3.953-5.987-5.97-9.957-4.49-3.967 1.477-6.004 5.942-4.526 9.917zM78.77 178.207c-3.973 1.504-6.004 5.918-4.558 9.908 1.448 3.994 6.07 6.104 10.062 4.594 4.017-1.52 6.017-6.058 4.447-10.091-1.545-3.97-5.952-5.923-9.95-4.41zM376.206 107.1c1.557 4.103 6.118 6.182 10.218 4.658 4.057-1.508 6.187-6.145 4.698-10.227-1.516-4.155-6.184-6.252-10.354-4.652-4.12 1.582-6.131 6.088-4.562 10.22zM102.31 152.713c4.127-1.572 6.155-6.072 4.599-10.204-1.549-4.111-6.09-6.202-10.201-4.695-4.12 1.51-6.273 6.286-4.675 10.371 1.593 4.077 6.17 6.092 10.277 4.528zM260.394 42.747c-4.103 1.554-6.191 6.098-4.688 10.196 1.514 4.126 6.24 6.281 10.356 4.722 4.143-1.57 6.191-6.222 4.57-10.383-1.602-4.112-6.097-6.103-10.238-4.535zm152.858 250.158c1.601 4.067 6.21 6.096 10.274 4.524 4.11-1.587 6.194-6.343 4.563-10.42-1.647-4.12-6.304-6.08-10.463-4.406-4.076 1.643-6 6.173-4.374 10.302zM235.661 393.289a8.225 8.225 0 0 0-10.646-4.775c-4.263 1.62-6.418 6.4-4.803 10.65 1.606 4.225 6.465 6.404 10.683 4.791 4.253-1.626 6.386-6.4 4.766-10.666zm-90.968-41.069a8.215 8.215 0 0 0-4.743 10.653c1.63 4.253 6.433 6.4 10.671 4.77 4.228-1.626 6.392-6.486 4.761-10.69-1.649-4.248-6.422-6.361-10.689-4.733zm275.4-128.418c1.66 4.25 6.4 6.316 10.69 4.658 4.24-1.64 6.38-6.447 4.754-10.672-1.622-4.208-6.481-6.385-10.697-4.794-4.303 1.627-6.437 6.482-4.748 10.808zM154.516 91.16c-1.669-4.244-6.414-6.296-10.703-4.627-4.234 1.647-6.367 6.471-4.723 10.685 1.641 4.207 6.503 6.37 10.706 4.764 4.304-1.646 6.42-6.497 4.72-10.822zm76.466-37.99c-4.502 1.71-6.767 6.779-5.01 11.21 1.733 4.37 6.772 6.605 11.148 4.943 4.479-1.7 6.695-6.731 4.95-11.236-1.716-4.433-6.629-6.61-11.088-4.916zm-35.235 321.798c-1.715-4.434-6.627-6.614-11.087-4.92-4.503 1.708-6.769 6.774-5.014 11.206 1.73 4.371 6.769 6.607 11.147 4.948 4.479-1.698 6.697-6.73 4.954-11.234zm190.896-238.413c1.704 4.42 6.663 6.655 11.089 4.997 4.44-1.664 6.754-6.831 5.031-11.237-1.749-4.47-6.77-6.64-11.278-4.874-4.418 1.73-6.562 6.652-4.842 11.114zm-91.42-65.26c1.72 4.472 6.75 6.729 11.244 5.045 4.556-1.707 6.853-6.83 5.093-11.356-1.74-4.478-6.76-6.724-11.25-5.035a8.738 8.738 0 0 0-5.088 11.346zm56.39 11.81c-1.773-4.53-6.854-6.718-11.418-4.919-4.436 1.75-6.67 6.842-4.951 11.284 1.747 4.517 6.921 6.807 11.405 5.046 4.527-1.777 6.742-6.87 4.964-11.411zm13.703 261.163c1.74 4.558 6.795 6.804 11.361 5.048 4.466-1.717 6.734-6.733 5.079-11.227-1.665-4.522-6.812-6.87-11.346-5.175-4.532 1.694-6.827 6.812-5.094 11.354zM95.57 222.678c4.597-1.713 6.894-6.722 5.182-11.298-1.71-4.572-6.762-6.9-11.321-5.219-4.518 1.667-6.879 6.815-5.206 11.35 1.674 4.538 6.786 6.867 11.345 5.168zM413.563 183.4c-4.544 1.742-6.833 6.864-5.084 11.375 1.748 4.506 6.927 6.805 11.42 5.069 4.534-1.752 6.78-6.841 5.032-11.398-1.747-4.564-6.788-6.801-11.368-5.046zM178.992 91.453c4.573-1.739 6.823-6.77 5.076-11.346-1.736-4.549-6.844-6.846-11.369-5.114-4.509 1.726-6.822 6.897-5.1 11.398 1.735 4.53 6.833 6.796 11.393 5.062zm17.694-16.107a8.9 8.9 0 0 0 11.487 5.183 8.869 8.869 0 0 0 5.186-11.471 8.9 8.9 0 0 0-11.48-5.194c-4.599 1.734-6.93 6.89-5.193 11.482zm200.726 90.463c1.77 4.594 6.917 6.871 11.525 5.097a8.867 8.867 0 0 0 5.102-11.508 8.902 8.902 0 0 0-11.52-5.11c-4.58 1.76-6.873 6.933-5.107 11.52zM248.585 388.347a9.096 9.096 0 0 0 11.75 5.356c4.73-1.779 7.126-7.08 5.322-11.775-1.783-4.64-6.972-7.005-11.667-5.317-4.72 1.697-7.169 7.015-5.405 11.736zm-115.13-65.974c-4.745 1.782-7.15 7.037-5.385 11.763 1.749 4.682 7.113 7.121 11.81 5.37 4.716-1.76 7.112-7.052 5.334-11.787a9.092 9.092 0 0 0-11.76-5.346zm-13.457-184.918c1.777 4.802 7.083 7.254 11.865 5.482 4.781-1.77 7.243-7.11 5.476-11.876a9.233 9.233 0 0 0-11.879-5.456 9.166 9.166 0 0 0-5.462 11.85zm292.92 131.952a9.167 9.167 0 0 0 5.284-11.93c-1.85-4.776-7.177-7.14-11.947-5.304-4.747 1.829-7.128 7.204-5.296 11.958 1.833 4.759 7.177 7.117 11.959 5.276zm-299.13-86.143c4.942-1.83 7.392-7.22 5.518-12.142-1.842-4.838-7.21-7.285-12.047-5.49-4.89 1.813-7.385 7.301-5.533 12.174 1.833 4.825 7.206 7.256 12.062 5.458zM400.403 297.59c-1.882-4.916-7.306-7.306-12.212-5.38-4.82 1.89-7.204 7.278-5.356 12.099 1.866 4.865 7.386 7.298 12.245 5.396 4.802-1.88 7.174-7.278 5.323-12.115zm-293.438-45.164c4.895-1.877 7.31-7.315 5.428-12.225-1.867-4.874-7.397-7.337-12.244-5.457-4.857 1.885-7.322 7.435-5.446 12.265 1.892 4.874 7.37 7.293 12.262 5.417zm240.803 108.572c4.865-1.877 7.318-7.43 5.412-12.256-1.914-4.851-7.48-7.296-12.293-5.4a9.481 9.481 0 0 0-5.373 12.272c1.89 4.884 7.342 7.279 12.254 5.384zM116.6 305.158c1.87 4.947 7.38 7.465 12.327 5.633 5.037-1.865 7.587-7.428 5.7-12.435-1.88-4.985-7.563-7.522-12.51-5.582-4.934 1.935-7.385 7.438-5.517 12.384zm166.162 60.034c-4.958 1.86-7.49 7.358-5.668 12.302 1.86 5.043 7.407 7.601 12.429 5.734 4.99-1.857 7.542-7.53 5.616-12.488-1.915-4.931-7.431-7.403-12.377-5.548zm23.54 1.64c2.037 5.027 7.762 7.418 12.783 5.34 4.911-2.031 7.284-7.73 5.281-12.687-2.022-5.008-7.76-7.384-12.798-5.3-4.972 2.056-7.297 7.64-5.267 12.648zM111.124 263.679c-5.101 1.957-7.567 7.567-5.563 12.655 1.965 4.989 7.562 7.456 12.562 5.54 5.04-1.933 7.555-7.657 5.58-12.692-1.952-4.97-7.565-7.426-12.58-5.503zm246.782-139.18c5.078-1.914 7.632-7.518 5.738-12.588-1.917-5.133-7.678-7.737-12.743-5.76-5.024 1.96-7.563 7.664-5.644 12.675 1.929 5.038 7.594 7.578 12.65 5.673zm-87.17-54.485a9.77 9.77 0 0 0-5.712 12.6c1.924 5.128 7.7 7.724 12.755 5.733 5.021-1.977 7.55-7.687 5.618-12.686-1.946-5.037-7.605-7.56-12.66-5.647zm-63.072 300.583c1.971 5.146 7.62 7.662 12.777 5.69 5.124-1.961 7.682-7.672 5.722-12.78-1.949-5.079-7.74-7.658-12.822-5.71-5.109 1.959-7.641 7.67-5.677 12.8zm-40.209-18.066c1.996 5.132 7.662 7.615 12.81 5.614 5.111-1.986 7.637-7.717 5.648-12.813-1.978-5.064-7.79-7.611-12.856-5.634-5.097 1.988-7.594 7.71-5.602 12.833zm-13.242-238.786a10.126 10.126 0 0 0-5.88 13.046c1.971 5.231 7.788 7.886 13.037 5.95 5.278-1.946 7.979-7.937 5.94-13.178a10.163 10.163 0 0 0-13.097-5.818zm253.85 114.4c-2.009-5.21-7.852-7.807-13.085-5.814-5.22 1.987-7.856 7.834-5.886 13.056 1.99 5.272 8 7.943 13.218 5.873a10.147 10.147 0 0 0 5.754-13.115zM304.98 101.015c2.016 5.19 7.926 7.81 13.114 5.815 5.245-2.017 7.92-8.077 5.852-13.253-2.104-5.265-8.002-7.795-13.298-5.703-5.186 2.047-7.706 7.89-5.668 13.141zm-69.767-7.157a10.463 10.463 0 0 0 13.46 6.17c5.444-2.012 8.189-7.985 6.176-13.441-2-5.42-8.047-8.2-13.456-6.184-5.424 2.022-8.192 8.047-6.18 13.455zM352.64 315.643c2.034 5.417 8.07 8.172 13.477 6.151a10.449 10.449 0 0 0 6.142-13.465 10.434 10.434 0 0 0-13.464-6.144c-5.422 2.013-8.185 8.053-6.155 13.458zM117.814 193.681c-5.417 2.046-8.141 8.084-6.089 13.489 2.053 5.403 8.101 8.127 13.51 6.083 5.41-2.044 8.129-8.084 6.074-13.495a10.433 10.433 0 0 0-13.495-6.077zm243.95-58.966a10.42 10.42 0 0 0-6.032 13.506 10.464 10.464 0 0 0 13.52 6.041c5.395-2.06 8.098-8.114 6.038-13.518-2.059-5.398-8.124-8.101-13.526-6.029zm-178.666-32.42a10.615 10.615 0 0 0-6.203 13.735c2.09 5.496 8.28 8.256 13.78 6.144 5.441-2.09 8.169-8.146 6.14-13.631-2.048-5.537-8.182-8.331-13.717-6.248zm194.47 104.058c2.062 5.519 8.23 8.327 13.732 6.252a10.616 10.616 0 0 0 6.185-13.744 10.603 10.603 0 0 0-13.606-6.194c-5.543 2.028-8.374 8.167-6.311 13.686zm12.981 61.582c-2.115-5.514-8.243-8.24-13.781-6.134-5.507 2.096-8.297 8.26-6.228 13.762 2.077 5.522 8.483 8.374 13.944 6.206a10.712 10.712 0 0 0 6.065-13.834zm-247-94.545a10.633 10.633 0 0 0 6.148-13.767c-2.096-5.508-8.255-8.3-13.766-6.24-5.525 2.066-8.383 8.466-6.22 13.93a10.728 10.728 0 0 0 13.838 6.077zm222.986 4.091c2.131 5.572 8.387 8.362 13.921 6.209 5.521-2.149 8.298-8.473 6.138-13.978-2.146-5.468-8.316-8.19-13.836-6.101-5.618 2.124-8.37 8.258-6.223 13.87zm-146.642-66.275c5.564-2.137 8.341-8.408 6.17-13.93-2.144-5.45-8.362-8.216-13.844-6.158-5.561 2.088-8.352 8.322-6.224 13.905 2.136 5.606 8.282 8.34 13.898 6.183zm36.195 240.777c-2.26-5.556-8.476-8.21-14.021-5.988-5.613 2.248-8.279 8.543-5.996 14.155 2.226 5.47 8.552 8.112 14.093 5.885 5.499-2.209 8.168-8.539 5.924-14.052zm-86.377-22.03c5.56-2.255 8.218-8.464 5.998-14.008-2.249-5.61-8.549-8.281-14.163-6.004-5.474 2.221-8.12 8.54-5.894 14.079 2.208 5.498 8.541 8.17 14.059 5.933zm-47.551-93.294c2.229 5.772 8.743 8.615 14.537 6.345 5.69-2.23 8.518-8.708 6.29-14.415a11.149 11.149 0 0 0-14.37-6.403 11.147 11.147 0 0 0-6.457 14.473zm200.708 90.417c2.235 5.767 8.755 8.6 14.547 6.323 5.686-2.236 8.506-8.723 6.269-14.424a11.147 11.147 0 0 0-14.38-6.381 11.148 11.148 0 0 0-6.436 14.482zm-127.504 14.8a11.166 11.166 0 0 0 14.462 6.498c5.795-2.197 8.734-8.7 6.537-14.468-2.19-5.75-8.766-8.704-14.515-6.521-5.777 2.194-8.687 8.696-6.484 14.49zm119.543-211.6c2.232 5.899 8.695 8.786 14.592 6.517 5.786-2.227 8.694-8.7 6.507-14.486-2.2-5.817-8.849-8.786-14.646-6.541-5.774 2.236-8.65 8.703-6.453 14.51zm-33.612-32.46c-5.904 2.228-8.796 8.686-6.528 14.578 2.228 5.787 8.7 8.696 14.492 6.516 5.82-2.192 8.795-8.833 6.552-14.631-2.233-5.772-8.708-8.654-14.516-6.463zm-137.23 197.045a11.318 11.318 0 0 0 14.649 6.49c5.822-2.239 8.734-8.819 6.485-14.655-2.248-5.835-8.808-8.729-14.658-6.468a11.265 11.265 0 0 0-6.476 14.633zm134.97 60.783a11.266 11.266 0 0 0 6.66-14.55c-2.189-5.876-8.704-8.861-14.565-6.674-5.86 2.188-8.855 8.729-6.67 14.572a11.318 11.318 0 0 0 14.575 6.652zm14.512-17.668c2.217 5.944 8.794 8.974 14.713 6.778 5.898-2.189 8.953-8.844 6.765-14.739-2.198-5.92-8.8-8.934-14.735-6.727-5.98 2.223-8.966 8.728-6.743 14.688zm-139.209-80.192c-2.238-5.968-8.755-8.938-14.714-6.704-5.941 2.226-8.955 8.806-6.743 14.719 2.204 5.888 8.87 8.925 14.766 6.726 5.917-2.206 8.915-8.812 6.691-14.74zm10.47-116.286c-6.086 2.284-9.094 8.924-6.794 14.998 2.288 6.045 9.023 9.076 15.046 6.77 5.933-2.27 8.973-8.98 6.765-14.93-2.245-6.047-8.967-9.107-15.016-6.838zm200.671 90.414c-6.079 2.299-9.066 8.946-6.75 15.018 2.302 6.036 9.047 9.048 15.065 6.727 5.926-2.286 8.946-9.004 6.72-14.952-2.259-6.038-8.988-9.08-15.035-6.793zm-203.756-43.687a11.731 11.731 0 0 0-15.187-6.837c-6.117 2.311-9.205 9.071-6.926 15.163 2.297 6.138 9.224 9.257 15.344 6.907 6.074-2.332 9.092-9.122 6.77-15.233zm200.696 90.382c-2.334-6.112-9.076-9.133-15.2-6.81-6.111 2.32-9.188 9.086-6.899 15.175 2.307 6.134 9.238 9.24 15.356 6.88 6.07-2.34 9.075-9.136 6.743-15.245zM251.782 108.205a11.91 11.91 0 0 0-6.874 15.486c2.39 6.199 9.313 9.279 15.508 6.9 6.162-2.366 9.263-9.353 6.89-15.524-2.377-6.18-9.316-9.248-15.524-6.862zm73.529 51.575c2.402 6.217 9.282 9.258 15.506 6.853 6.2-2.396 9.27-9.317 6.88-15.507-2.376-6.155-9.372-9.247-15.544-6.869-6.18 2.382-9.24 9.32-6.842 15.523zm28.968 42.41c-6.327 2.358-9.545 9.413-7.169 15.718 2.382 6.323 9.428 9.499 15.75 7.1a12.137 12.137 0 0 0 7.11-15.59c-2.322-6.337-9.373-9.585-15.691-7.229zM183.414 313.151a12.188 12.188 0 0 0 15.728 7.148 12.137 12.137 0 0 0 7.098-15.728c-2.382-6.255-9.35-9.432-15.608-7.117-6.334 2.344-9.575 9.392-7.218 15.697zm3.049-167.517c2.346 6.35 9.363 9.556 15.719 7.18 6.267-2.341 9.49-9.319 7.195-15.574-2.333-6.36-9.366-9.633-15.681-7.298a12.18 12.18 0 0 0-7.233 15.692zm44.297 169.801c-6.337 2.352-9.55 9.404-7.166 15.724 2.359 6.252 9.358 9.466 15.607 7.167a12.182 12.182 0 0 0 7.264-15.679c-2.33-6.353-9.342-9.572-15.705-7.212zm-7.963-196.596c-6.42 2.39-9.67 9.471-7.277 15.852 2.382 6.347 9.58 9.604 15.928 7.205 6.31-2.385 9.513-9.426 7.172-15.764-2.383-6.453-9.397-9.685-15.823-7.293zm129.09 77.28c6.4-2.417 9.615-9.528 7.186-15.893-2.42-6.335-9.637-9.55-15.97-7.115-6.295 2.422-9.454 9.472-7.08 15.806 2.41 6.433 9.442 9.625 15.864 7.202zm-44.006-63.19a12.38 12.38 0 0 0-16.04-7.205c-6.43 2.44-9.687 9.65-7.248 16.045 2.435 6.385 9.712 9.654 16.098 7.231 6.408-2.43 9.632-9.636 7.19-16.07zM149.995 226.05a12.562 12.562 0 0 0 16.19 7.298 12.586 12.586 0 0 0 7.38-16.162c-2.406-6.515-9.854-9.872-16.335-7.364a12.585 12.585 0 0 0-7.235 16.228zm160.463 72.273a12.562 12.562 0 0 0 16.194 7.316 12.6 12.6 0 0 0 7.403-16.168c-2.396-6.51-9.864-9.885-16.347-7.385-6.478 2.497-9.714 9.744-7.25 16.237zm-122.106-6.646a12.706 12.706 0 0 0 7.403-16.445c-2.5-6.612-9.837-9.96-16.45-7.505-6.606 2.453-10.029 10.054-7.482 16.62 2.55 6.576 9.918 9.843 16.529 7.33zm71.058 12.295c-6.6 2.54-9.842 9.858-7.305 16.49 2.52 6.588 9.919 9.91 16.493 7.406 6.545-2.492 9.909-9.948 7.446-16.503-2.497-6.644-9.959-9.96-16.634-7.393zm-67.504-127.115a12.805 12.805 0 0 0-16.603-7.483c-6.613 2.515-9.966 9.86-7.515 16.463 2.476 6.67 9.937 10.093 16.588 7.61 6.682-2.494 10.046-9.904 7.53-16.59zm153.048 88.985a12.788 12.788 0 0 0 7.464-16.601c-2.529-6.608-9.876-9.948-16.485-7.493-6.669 2.476-10.083 9.935-7.59 16.584 2.501 6.674 9.927 10.031 16.61 7.51zM160.71 255.288c2.52 6.677 9.937 10.053 16.606 7.558 6.746-2.525 10.157-10.064 7.573-16.74-2.568-6.635-10.05-9.98-16.683-7.457-6.65 2.53-10.008 9.981-7.496 16.639zm137.126 61.623a12.886 12.886 0 0 0 7.482-16.61c-2.537-6.725-10.076-10.13-16.745-7.562-6.62 2.55-9.981 10.01-7.502 16.652 2.5 6.694 10.046 10.079 16.765 7.52zm-26.128-156.09c6.91-2.583 10.408-10.224 7.834-17.112-2.556-6.839-10.34-10.358-17.18-7.767-6.801 2.577-10.274 10.21-7.743 17.02 2.575 6.93 10.196 10.436 17.089 7.86zm23.2 10.432c2.628 6.885 10.292 10.285 17.201 7.631 6.796-2.61 10.227-10.243 7.673-17.066-2.56-6.837-10.368-10.361-17.201-7.765-6.871 2.611-10.306 10.309-7.674 17.2zm-83.255 131.461c2.633 6.784 10.329 10.2 17.129 7.604 6.837-2.61 10.335-10.45 7.694-17.245-2.67-6.87-10.358-10.253-17.266-7.597-6.882 2.648-10.245 10.316-7.557 17.238zm122.462-65.412c7.04-2.648 10.54-10.369 7.887-17.397-2.648-7.014-10.432-10.555-17.424-7.924-6.961 2.618-10.531 10.493-7.91 17.45 2.633 6.99 10.434 10.509 17.447 7.87zM204.026 157.8c-7.012 2.693-10.446 10.444-7.74 17.464 2.693 6.986 10.516 10.464 17.49 7.776 6.936-2.673 10.44-10.579 7.763-17.515-2.688-6.967-10.508-10.415-17.514-7.725zm38.808 14.364c7.121-2.66 10.694-10.43 8.058-17.526-2.66-7.16-10.588-10.787-17.692-8.094-7.015 2.659-10.61 10.612-7.972 17.634 2.647 7.045 10.54 10.626 17.606 7.986zm62.753 28.343a13.6 13.6 0 0 0 17.591 7.941c7.138-2.686 10.724-10.655 7.978-17.73-2.714-6.997-10.696-10.54-17.698-7.856-7.034 2.695-10.553 10.584-7.871 17.645zm10.53 77.234c7.119-2.694 10.7-10.639 8.003-17.754-2.697-7.115-10.661-10.703-17.769-8.006-7.121 2.702-10.699 10.64-8.005 17.76 2.689 7.11 10.652 10.694 17.772 8zm-112.275-72.005c-2.674-7.139-10.605-10.764-17.722-8.102-7.142 2.67-10.758 10.57-8.107 17.71 2.643 7.121 10.57 10.745 17.728 8.105 7.118-2.625 10.766-10.601 8.101-17.713zm62.325 76.227c-2.762-7.334-10.806-10.957-18.134-8.166-7.225 2.752-10.868 10.801-8.156 18.024 2.72 7.246 10.957 10.956 18.189 8.19 7.209-2.755 10.825-10.812 8.1-18.048zm-58.194-26.365c-7.325 2.789-10.91 10.864-8.074 18.182 2.795 7.212 10.875 10.812 18.097 8.061 7.248-2.761 10.907-11 8.097-18.234-2.795-7.194-10.876-10.767-18.12-8.01zm79.268 33.556c7.422-2.802 11.13-11.035 8.298-18.42-2.795-7.29-11.037-10.99-18.35-8.238-7.4 2.786-11.094 11.03-8.26 18.438a14.18 14.18 0 0 0 18.312 8.22zm-71.928-54.438a14.181 14.181 0 0 0-18.245-8.367c-7.444 2.743-11.225 10.96-8.446 18.353 2.753 7.321 10.96 11.085 18.283 8.385a14.22 14.22 0 0 0 8.408-18.371zm49.422-52.113c2.806 7.41 11.02 11.132 18.428 8.347 7.475-2.81 11.248-11.168 8.379-18.564-2.845-7.336-11.209-11.064-18.527-8.258-7.379 2.828-11.078 11.082-8.28 18.475zm-39.558 30.649c7.567-2.878 11.352-11.302 8.48-18.876-2.866-7.562-11.296-11.386-18.875-8.564-7.587 2.825-11.483 11.497-8.549 19.027a14.696 14.696 0 0 0 18.944 8.413zm61.282 27.613c2.86 7.57 11.267 11.4 18.862 8.594 7.585-2.802 11.496-11.47 8.579-19.012-2.918-7.545-11.365-11.313-18.93-8.445-7.575 2.873-11.373 11.29-8.51 18.863zm-42.62-66.263c-7.71 2.918-11.564 11.407-8.674 19.116 2.91 7.762 11.547 11.697 19.26 8.774 7.686-2.914 11.595-11.67 8.634-19.342-2.947-7.64-11.53-11.456-19.22-8.548zm59.25 26.756c-2.949-7.69-11.448-11.444-19.187-8.59-6.397 2.36-12.24 9.971-8.646 19.297 3.43 8.9 12.362 11.147 19.21 8.597 7.744-2.884 11.592-11.558 8.622-19.304zm-47.033 51.02c-2.979-7.831-11.617-11.693-19.46-8.7-7.795 2.976-11.696 11.728-8.685 19.486 2.979 7.674 11.704 11.575 19.404 8.675 7.797-2.937 11.71-11.65 8.74-19.461zM243.91 237.09c-2.284 3.501-5.504 5.735-9.564 6.646-7.235 1.624-14.417-2.08-17.506-8.93-2.858-6.337-.727-14.23 4.984-18.438 2.893-2.132 6.144-3.161 9.733-3.006 5.673.244 9.876 3.06 13.106 8.019-.904-9.137 2.69-15.707 9.824-18.454 6.606-2.544 14.231-.325 18.412 5.403 2.107 2.888 3.17 6.145 3.058 9.728-.18 5.705-2.914 10.024-7.835 13.405 10.817-1.16 16.558 5.575 18.029 11.638 1.743 7.185-1.89 14.622-8.843 17.679-7.06 3.104-14.855.46-18.862-5.449-2.055-3.03-2.931-6.376-2.6-10.01.46-5.064 3.017-8.912 7.149-11.893-7.177.683-12.717-1.86-16.722-7.835.52 4.156-.086 8.007-2.363 11.497z" fill="#EEF3FF"/>
        <path fill="#FFF" d="M0 439h551v-37H0z"/>
        <path d="M271.424 213a5.582 5.582 0 0 0 5.576 5.576 5.582 5.582 0 0 0 5.576-5.576 5.582 5.582 0 0 0-5.576-5.576 5.582 5.582 0 0 0-5.576 5.576zM270 213c0-3.86 3.14-7 7-7s7 3.14 7 7-3.14 7-7 7-7-3.14-7-7zM427.425 280a5.582 5.582 0 0 0 5.575 5.576c3.074 0 5.575-2.5 5.575-5.576a5.582 5.582 0 0 0-5.575-5.576 5.582 5.582 0 0 0-5.575 5.576zM426 280c0-3.86 3.141-7 7-7s7 3.14 7 7-3.141 7-7 7-7-3.14-7-7zM43.424 253A5.583 5.583 0 0 0 49 258.577 5.583 5.583 0 0 0 54.577 253 5.583 5.583 0 0 0 49 247.423 5.583 5.583 0 0 0 43.424 253zM42 253c0-3.86 3.14-7 7-7s7 3.14 7 7-3.14 7-7 7-7-3.14-7-7zM10.26 211.5a2.242 2.242 0 0 0 2.24 2.239 2.242 2.242 0 0 0 2.24-2.24 2.242 2.242 0 0 0-2.24-2.238 2.242 2.242 0 0 0-2.24 2.239zm-1.26 0c0-1.93 1.57-3.5 3.5-3.5s3.5 1.57 3.5 3.5-1.57 3.5-3.5 3.5-3.5-1.57-3.5-3.5zM462.262 313.5a2.241 2.241 0 0 0 2.238 2.24 2.245 2.245 0 0 0 2.243-2.24 2.245 2.245 0 0 0-2.243-2.24 2.241 2.241 0 0 0-2.238 2.24zm-1.262 0c0-1.93 1.57-3.5 3.5-3.5s3.5 1.57 3.5 3.5-1.57 3.5-3.5 3.5-3.5-1.57-3.5-3.5zM200.26 62.5a2.242 2.242 0 0 0 2.24 2.24 2.242 2.242 0 0 0 2.24-2.24 2.242 2.242 0 0 0-2.24-2.24 2.242 2.242 0 0 0-2.24 2.24zm-1.26 0c0-1.93 1.57-3.5 3.5-3.5s3.5 1.57 3.5 3.5-1.57 3.5-3.5 3.5-3.5-1.57-3.5-3.5z" fill="#3F327A"/>
        <path d="M294.435 102c-4.652 0-8.435 3.81-8.435 8.494v43.152c0 4.683 3.783 8.493 8.435 8.493h11.701c.458 0 .89.212 1.17.576L320.694 180l13.385-17.285a1.48 1.48 0 0 1 1.17-.576h59.316c4.651 0 8.436-3.81 8.436-8.493v-43.152c0-4.683-3.785-8.494-8.436-8.494h-100.13" fill="#F89319"/>
        <path d="M342.542 122h-35.083c-.806 0-1.459-.447-1.459-1 0-.552.653-1 1.459-1h35.083c.805 0 1.458.448 1.458 1 0 .553-.653 1-1.458 1M380.576 122h-23.152c-.787 0-1.424-.447-1.424-1 0-.552.637-1 1.424-1h23.152c.786 0 1.424.448 1.424 1 0 .553-.638 1-1.424 1M321.522 134h-13.044c-.816 0-1.478-.447-1.478-1 0-.553.662-1 1.478-1h13.044c.817 0 1.478.447 1.478 1 0 .553-.661 1-1.478 1M380.536 134h-46.072c-.808 0-1.464-.447-1.464-1 0-.553.656-1 1.464-1h46.072c.808 0 1.464.447 1.464 1 0 .553-.656 1-1.464 1M358.551 146H308.45c-.8 0-1.449-.447-1.449-1 0-.553.649-1 1.449-1h50.102c.8 0 1.449.447 1.449 1 0 .553-.649 1-1.449 1" fill="#FFF"/>
        <path d="M85.696 136.538c0 1.105-.933 2.005-2.08 2.005h-9.694a.64.64 0 0 0-.652.629.64.64 0 0 0 .652.628h7.844v1.833c0 1.163-.982 2.11-2.189 2.11h-7.155c-1.206 0-2.188-.947-2.188-2.11v-2.461a.64.64 0 0 0-.87-.586.665.665 0 0 0-.218-.043h-.763c-1.146 0-2.08-.9-2.08-2.005v-4.281h19.393v4.28zm.652-5.538H65.652a.64.64 0 0 0-.652.629v4.909c0 1.799 1.517 3.262 3.383 3.262h.547v1.833c0 1.857 1.567 3.367 3.492 3.367h7.155c1.926 0 3.492-1.51 3.492-3.367V139.8h.547c1.866 0 3.384-1.463 3.384-3.262v-4.91a.64.64 0 0 0-.652-.628zM76.5 124c.35 0 .634-.276.634-.616v-12.142c2.43-.106 4.829-1.048 6.68-2.848a.604.604 0 0 0 0-.872.647.647 0 0 0-.896 0c-3.441 3.346-9.042 3.346-12.483 0l-.353-.342a.647.647 0 0 0-.896 0 .604.604 0 0 0 0 .872l.352.342c1.762 1.713 4.02 2.653 6.328 2.832v12.158c0 .34.284.616.634.616" fill="#3F327A"/>
        <path d="M95.375 100.775a.623.623 0 0 0-.625.622c0 4.2-1.483 8.294-4.174 11.53-3.125 3.757-4.777 8.082-4.777 12.508v.321H67.201v-.317c0-4.408-1.663-8.747-4.808-12.55a18.078 18.078 0 0 1-4.142-11.362c-.068-9.638 8.05-18.008 17.727-18.276 7.393-.21 14.167 4.012 17.192 10.747a.626.626 0 0 0 .826.314.62.62 0 0 0 .316-.821c-3.233-7.196-10.432-11.703-18.37-11.483-10.518.291-19.016 9.052-18.942 19.528a19.32 19.32 0 0 0 4.427 12.143c2.96 3.578 4.523 7.644 4.523 11.76v.94c0 .343.28.621.626.621h19.848a.623.623 0 0 0 .626-.622v-.943c0-4.133 1.552-8.184 4.49-11.716A19.309 19.309 0 0 0 96 101.397a.623.623 0 0 0-.625-.622" fill="#3F327A"/>
        <path d="M358.919 393H352v-4.286h6.919c2.622 0 4.756-2.115 4.756-4.714 0-2.6-2.134-4.714-4.756-4.714H352V375h6.919c5.007 0 9.081 4.037 9.081 9s-4.074 9-9.081 9" fill="#3A5187"/>
        <path d="M358.485 389a3.07 3.07 0 0 1-.545.054H352V394h5.94c.36 0 .713-.044 1.06-.107l-.515-4.893M352 379h7l-.683-4H352v4" fill="#3F327A"/>
        <path d="M344.991 401h-9.982c-5.528 0-10.009-4.41-10.009-9.848V369h30v22.152c0 5.439-4.48 9.848-10.009 9.848" fill-opacity=".915" fill="#28417C"/>
        <path d="M351.102 369v20.465c0 5.439-4.404 9.848-9.838 9.848H331a9.787 9.787 0 0 0 5.507 1.687h10.655c5.433 0 9.838-4.41 9.838-9.848V369h-5.898" fill="#243C76"/>
        <path d="M329.5 388c-.828 0-1.5-.784-1.5-1.75v-10.5c0-.967.672-1.75 1.5-1.75s1.5.783 1.5 1.75v10.5c0 .966-.672 1.75-1.5 1.75" fill="#FFF"/>
        <path d="M345.309 356a.857.857 0 0 1-.805-.566c-3.47-9.612-5.06-23.626 7.08-35.798 4.893-4.907 7.237-11.114 6.6-17.476-.564-5.638-3.476-10.844-7.6-13.588a.858.858 0 0 1-.24-1.189.855.855 0 0 1 1.188-.24c4.54 3.022 7.743 8.71 8.357 14.846.688 6.884-1.831 13.58-7.093 18.858-11.505 11.536-9.983 24.859-6.682 34.005a.858.858 0 0 1-.805 1.148" fill="#B2BDD7"/>
        <path d="M328.942 318c-.467 0-.874-.365-.934-.862-.066-.541.3-1.036.816-1.105 1.33-.176 3.657-.962 4.309-4.247.107-.534.598-.875 1.116-.765.509.111.837.634.731 1.168-.65 3.274-2.807 5.39-5.918 5.804a1.19 1.19 0 0 1-.12.007" fill="#CCC2FF"/>
        <path d="M338.424 325a.852.852 0 0 1-.414-.107.821.821 0 0 1-.321-1.13c.733-1.278 1.499-2.488 2.239-3.658l.091-.145c2.354-3.72 2.947-8.889 1.474-12.864-.75-2.024-2.37-4.671-5.83-5.786-4.636-1.495-9.068-.352-11.862 3.056-2.269 2.768-2.764 6.34-1.23 8.887.3.502.702.963 1.19 1.373a.82.82 0 0 1 .095 1.17.858.858 0 0 1-1.193.093 7.186 7.186 0 0 1-1.55-1.79c-1.888-3.141-1.338-7.47 1.37-10.774 3.254-3.968 8.377-5.31 13.71-3.592 3.248 1.047 5.63 3.397 6.89 6.795 1.666 4.499 1.027 10.115-1.627 14.308l-.091.144c-.731 1.156-1.487 2.351-2.203 3.597a.846.846 0 0 1-.738.423" fill="#B2BDD7"/>
        <path d="M335.39 344c-.259 0-.499-.235-.581-.605-1.05-4.682-1.078-9.19-.086-13.78.1-.458.44-.718.762-.576.322.141.503.628.404 1.086-.915 4.24-.889 8.409.082 12.742.103.457-.075.946-.396 1.092a.44.44 0 0 1-.185.041" fill="#CCC2FF"/>
        <path d="M354.907 256a.927.927 0 0 1-.382-.083.873.873 0 0 1-.44-1.173c3.607-7.535 1.44-12.45 1.418-12.498a.875.875 0 0 1 .455-1.167.915.915 0 0 1 1.198.437c.106.226 2.56 5.649-1.426 13.973a.908.908 0 0 1-.823.511M346.352 299a.828.828 0 0 1-.713-.419c-5.887-10.156-9.732-21.46 1.904-35.285a.806.806 0 0 1 1.174-.079.898.898 0 0 1 .076 1.227c-10.319 12.262-8.155 22.154-1.73 33.235a.893.893 0 0 1-.28 1.195.806.806 0 0 1-.431.126" fill="#B2BDD7"/>
        <path d="M477.106 401H418v-16h59.106a2.89 2.89 0 0 1 2.894 2.886v10.228a2.89 2.89 0 0 1-2.894 2.886" fill="#C5E1F9"/>
        <path d="M418 401v-16h59.106a2.89 2.89 0 0 1 2.894 2.886v10.228a2.89 2.89 0 0 1-2.894 2.886H418z" fill="#3A5187"/>
        <path d="M480 387.886a2.89 2.89 0 0 0-2.894-2.886H429.73a2.89 2.89 0 0 1 2.894 2.886v10.017c0 .697-.525 1.282-1.223 1.355H418V401h59.106c.178 0 .352-.022.525-.053.05-.009.102-.022.148-.034a2.65 2.65 0 0 0 .361-.112c.046-.018.097-.034.138-.054.153-.068.3-.145.438-.237.015-.009.026-.021.04-.03.123-.086.24-.181.347-.284.036-.037.077-.077.112-.117.082-.086.153-.175.225-.27l.091-.13a2.857 2.857 0 0 0 .469-1.565v-10.228" fill="#243C76"/>
        <path d="M381 399v-13h38.616c.763 0 1.384.638 1.384 1.422v10.156c0 .784-.62 1.422-1.384 1.422H381" fill="#FFF"/>
        <path d="M421.555 388.722v9.415c0 .784-.637 1.42-1.422 1.42h-40.372c-.36 0-.693.245-.751.6a.723.723 0 0 0 .713.843h40.41a2.865 2.865 0 0 0 2.867-2.863v-9.415a.722.722 0 0 0-1.445 0" fill="#CCC2FF"/>
        <path d="M420.133 385h-40.41a.71.71 0 0 0-.723.697.71.71 0 0 0 .722.696h40.411c.785 0 1.422.615 1.422 1.372v.538c0 .387.328.7.73.697a.71.71 0 0 0 .715-.697v-.538c0-1.527-1.283-2.765-2.867-2.765" fill="#CCC2FF"/>
        <path d="M484.106 385H425v-16h59.106a2.892 2.892 0 0 1 2.894 2.886v10.228c0 1.594-1.3 2.886-2.894 2.886" fill="#F89319"/>
        <path d="M425 383v2h58.378c1.173 0 2.184-.823 2.622-2h-61" fill="#F26184"/>
        <path d="M388 384v-13h38.615c.761 0 1.385.638 1.385 1.422v10.156c0 .784-.624 1.422-1.385 1.422H388" fill="#FFF"/>
        <path d="M428.556 372.721v9.418a1.42 1.42 0 0 1-1.423 1.42h-40.372c-.36 0-.694.244-.751.599a.722.722 0 0 0 .713.842h40.41a2.863 2.863 0 0 0 2.867-2.861v-9.418a.721.721 0 0 0-1.444 0" fill="#FF819F"/>
        <path fill="#FFF" d="M435 382h3v-9h-3zM439 382h2v-9h-2zM480 382h2v-9h-2zM451.548 376h-5.096c-.248 0-.452-.224-.452-.5 0-.275.204-.5.452-.5h5.096c.248 0 .452.225.452.5 0 .276-.204.5-.452.5M462.623 376h-7.25c-.21 0-.373-.224-.373-.5 0-.275.164-.5.373-.5h7.25c.209 0 .377.225.377.5 0 .276-.168.5-.377.5M456.575 378h-9.15c-.233 0-.425-.223-.425-.5 0-.276.192-.5.425-.5h9.15c.233 0 .425.224.425.5 0 .277-.192.5-.425.5"/>
        <path d="M427.133 369h-40.372a.768.768 0 0 0-.751.657c-.074.495.273.922.713.922h40.41c.787 0 1.423.697 1.423 1.556v3.076c0 .436.323.789.722.789.399 0 .722-.353.722-.79v-3.075c0-1.732-1.282-3.135-2.867-3.135" fill="#FF819F"/>
        <path d="M392.865 369H445v-11h-52.135c-1.582 0-2.865 1.253-2.865 2.8v5.4c0 1.547 1.283 2.8 2.865 2.8" fill="#F9C699"/>
        <path d="M445 367v2h-52.359c-1.183 0-2.199-.824-2.641-2h55" fill="#E3A36B"/>
        <path d="M473 368v-8h-29.535c-.805 0-1.465.61-1.465 1.358v5.283c0 .75.66 1.359 1.465 1.359H473" fill="#FFF"/>
        <path d="M441.443 361.689v4.58c0 .748.641 1.355 1.423 1.355h29.372c.363 0 .696.234.752.572.075.431-.273.804-.712.804h-29.412c-1.584 0-2.866-1.223-2.866-2.731v-4.58c0-.38.323-.689.722-.689.398 0 .721.309.721.689" fill="#E3A36B"/>
        <path d="M421.681 362h7.636c.379 0 .683-.448.683-1 0-.553-.304-1-.683-1h-7.636c-.376 0-.681.447-.681 1 0 .552.305 1 .681 1M399.706 362h17.588c.39 0 .706-.448.706-1 0-.553-.317-1-.706-1h-17.588c-.39 0-.706.447-.706 1 0 .552.316 1 .706 1M400.7 366h28.599c.389 0 .701-.447.701-1 0-.552-.312-1-.701-1h-28.6c-.386 0-.699.448-.699 1 0 .553.313 1 .7 1" fill="#FFF"/>
        <path d="M442.866 357h29.372c.363 0 .696.24.752.588a.71.71 0 0 1-.712.825h-29.412c-.782 0-1.423.624-1.423 1.391v.49c0 .39-.323.706-.721.706a.714.714 0 0 1-.722-.706v-.49c0-1.548 1.282-2.804 2.866-2.804" fill="#E3A36B"/>
        <path d="M204.48 251.666 195.83 223h-28.66l-8.65 28.666S148.168 284 181.5 284s22.98-32.334 22.98-32.334" fill="#FF95A9"/>
        <path d="M163 235.93c13.972 20.04 39 9.079 39 9.079l-3.258-11.056-17.58-7.953-17.58 7.953-.582 1.976" fill="#F27290"/>
        <path d="M154.828 154c-9.436 9.992-8.925 35.072-5.798 52.686C153.123 229.736 172.11 242 182 242c9.891 0 28.877-12.263 32.97-35.314 3.127-17.614 3.637-42.694-5.799-52.686h-54.343" fill="#FF95A9"/>
        <path d="M141 139.459c11.162 26.86 36.82 42.011 72 16.3-17.442-23.531-50.245-26.286-72-16.3" fill="#243C76"/>
        <path d="M160 129.032c5.697 16.915 27.518 30.142 39.32 34.531C213.114 165.248 216.386 184 216.386 184c10.273-15.533 5.601-50.2-7.16-47.021-10.37-15.356-39.256-13.482-49.226-7.947M161 162.377C149.88 166.529 146.219 184 146.219 184c-3.485-12.988 1.205-28.198 5.257-32.284 4.052-4.087 9.524 10.66 9.524 10.66" fill="#243C76"/>
        <path d="M148.12 184.817c-4.903-2.735-10.434 1.326-7.11 13.205 2.894 10.343 8.09 9.74 8.827 7.929.819-2.01-1.716-21.134-1.716-21.134M215.879 184.817c4.904-2.735 10.434 1.326 7.11 13.205-2.893 10.343-8.089 9.74-8.826 7.929-.819-2.01 1.716-21.134 1.716-21.134" fill="#FF95A9"/>
        <path d="M151 164c-7.301 11.984-6.998 21.659-6.998 21.659l1.706.341s.49-13.318 5.292-22" fill="#3A5187"/>
        <path d="m214.968 207-.775 6.499c-.057.555-.147 1.054-.229 1.563l-.061.382-.094.375-.19.75c-.137.498-.327.98-.49 1.47-.22.468-.4.955-.65 1.41a16.47 16.47 0 0 1-3.854 4.87 16.538 16.538 0 0 1-5.467 3.07c-.492.193-1.015.288-1.524.43-.513.13-1.042.186-1.563.285l-3.293.416-6.593.826L177 231l.12 1.001 13.215-1.402 6.608-.701 3.306-.354c.569-.094 1.147-.147 1.71-.278.56-.142 1.132-.239 1.676-.439a18.14 18.14 0 0 0 6.068-3.258 18.185 18.185 0 0 0 4.368-5.306c.284-.501.5-1.037.75-1.555.196-.54.417-1.075.58-1.626l.228-.833.113-.417.078-.424c.104-.566.214-1.14.278-1.67l.902-6.482-2.032-.255" fill="#3F327A"/>
        <path d="M178.2 231.744c3.191.341 6.409.341 9.6 0 1.414-.151 2.382-1.397 2.171-2.692a2.43 2.43 0 0 0-2.64-2.039c-2.88.309-5.782.308-8.663 0a2.43 2.43 0 0 0-2.64 2.04c-.21 1.293.758 2.54 2.171 2.691" fill="#3F327A"/>
        <path d="M188.137 148c4.976.458 9.996 1.436 14.565 3.54 2.271 1.057 4.408 2.39 6.299 3.985a27.34 27.34 0 0 1 4.855 5.463c2.714 4.014 4.332 8.54 5.396 13.094 1.056 4.571 1.527 9.22 1.748 13.858l-2.12.06c-.129-4.559-.505-9.118-1.446-13.574-.947-4.44-2.429-8.816-4.933-12.668a25.791 25.791 0 0 0-4.495-5.246c-1.758-1.536-3.756-2.833-5.907-3.88-4.323-2.082-9.187-3.126-14.074-3.656l-3.025-.242 3.137-.734" fill="#3A5187"/>
        <path d="m214.481 206.48-1.481-.508a51.288 51.288 0 0 0 2.505-20.774l1.56-.136c5.514-.711 10.716 4.742 9.838 12.073-.89 7.33-7.237 11.367-12.422 9.345" fill="#3F327A"/>
        <path d="M215.366 208.752c-1.906-.79-2.793-2.944-2.167-4.862a46.207 46.207 0 0 0 2.2-17.636c-.136-2.009 1.255-3.892 3.3-4.214 2.038-.323 4.008 1.338 4.172 3.72a53.32 53.32 0 0 1-2.539 20.354c-.746 2.275-3.066 3.427-4.966 2.638M147.635 208.752c1.905-.79 2.792-2.944 2.166-4.862a46.208 46.208 0 0 1-2.2-17.636c.136-2.009-1.255-3.892-3.299-4.214-2.039-.323-4.009 1.338-4.173 3.72a53.321 53.321 0 0 0 2.54 20.354c.745 2.275 3.066 3.427 4.966 2.638" fill="#3F327A"/>
        <path d="m147.519 206.48 1.481-.508a51.29 51.29 0 0 1-2.506-20.774l-1.558-.136c-5.515-.711-10.717 4.742-9.839 12.073.891 7.33 7.237 11.367 12.422 9.345" fill="#3F327A"/>
        <path d="M130.354 378c-15.264-3.11-29.815-8.45-43.602-16.18a11.248 11.248 0 0 1-5.336-12.839c7.452-26.621 16.538-51.74 27.937-74.73 2.621-5.287 7.146-9.386 12.654-11.562 7.855-3.103 20.746-7.49 37.426-10.689-3.424 15.12 15.545 27.43 22.567 27.43s25.946-12.218 22.567-27.43c16.68 3.2 29.571 7.586 37.425 10.689 5.51 2.176 10.033 6.275 12.655 11.562 11.4 22.99 20.485 48.109 27.936 74.73a11.247 11.247 0 0 1-5.336 12.84c-13.786 7.73-28.337 13.07-43.601 16.179H130.354" fill="#FFC359"/>
        <path d="M85.818 361.74c12.667 7.028 25.978 12.06 39.881 15.26 1.232-4.939 3.811-19.458-5.29-29.169-2.062-11.161-35.167-12.74-39.988 1.06-1.412 4.992.81 10.305 5.397 12.85M277.182 361.74c-12.667 7.028-25.978 12.06-39.882 15.26-1.231-4.939-3.81-19.458 5.29-29.169 2.063-11.161 35.168-12.74 39.989 1.06 1.412 4.992-.81 10.305-5.397 12.85" fill="#FF95A9"/>
        <path fill="#3F327A" d="m138.016 305 .984 12h-6l5.016-12M224.983 305 224 317h6l-5.017-12"/>
        <path d="M182.5 275.216c-6.945 0-20.945-9.201-22.317-25.216-2.074.416-4.089.851-6.041 1.301-.304 2.95-.164 6.248.854 9.756C159.663 275.887 173.27 285 182.5 285c9.231 0 22.837-9.112 27.504-23.943 1.018-3.508 1.158-6.806.854-9.755-1.953-.45-3.967-.886-6.041-1.302-1.372 16.015-15.373 25.216-22.317 25.216" fill="#FFF"/>
        <path d="M232.673 401H130.314c-.807 0-1.515-.578-1.733-1.412l-.539-2.064c-.2-.765.336-1.524 1.076-1.524h104.764c.74 0 1.276.76 1.076 1.526l-.54 2.054c-.22.84-.933 1.42-1.745 1.42" fill="#3F327A"/>
        <path d="M245.258 316H118.742c-1.455 0-2.8.932-3.536 2.45L113 323h138l-2.206-4.55c-.735-1.518-2.08-2.45-3.536-2.45" fill="#FFF"/>
        <path d="M131.423 397a4.63 4.63 0 0 1-4.526-3.638l-14.787-67.678c-.639-2.92 1.59-5.684 4.584-5.684h129.612c2.994 0 5.223 2.763 4.584 5.684l-14.788 67.678a4.63 4.63 0 0 1-4.525 3.638H131.423z" fill="#CDD7ED"/>
        <path d="M232.75 392.572 244 341c-18.165 28.918-70.78 55.359-117 38.38l2.878 13.192c.18.828.924 1.428 1.77 1.428h99.332c.846 0 1.59-.6 1.77-1.428" fill="#C7D1E6"/>
        <path d="M190.707 363h-17.414c-2.923 0-5.293-2.238-5.293-5 0-2.761 2.37-5 5.293-5h17.414c2.923 0 5.293 2.239 5.293 5 0 2.762-2.37 5-5.293 5" fill="#FFF"/>
        <path d="M73.055 401h443.893c.582 0 1.052.448 1.052 1s-.47 1-1.052 1H73.055c-.583 0-1.055-.448-1.055-1s.472-1 1.055-1" fill="#243C76"/>
        <path d="M24.075 401h34.85c.594 0 1.075.448 1.075 1s-.481 1-1.075 1h-34.85c-.593 0-1.075-.448-1.075-1s.482-1 1.075-1M5.242 401h4.517c.685 0 1.241.448 1.241 1s-.556 1-1.241 1H5.242C4.556 403 4 402.552 4 402s.556-1 1.242-1" fill="#3F327A"/>
    </g>
</svg>
