<?xml version="1.0" encoding="UTF-8"?>
<svg width="28px" height="25px" viewBox="0 0 28 25" version="1.1" xmlns="http://www.w3.org/2000/svg" xmlns:xlink="http://www.w3.org/1999/xlink">
    <title>Fill 22</title>
    <g id="Page-1" stroke="none" stroke-width="1" fill="none" fill-rule="evenodd">
        <g id="00_Home" transform="translate(-1173, -39)" fill="#7F7F7F">
            <path d="M1181.0449,40.600263 C1179.39342,40.600263 1177.74194,41.2284902 1176.48494,42.4854895 C1173.97095,45.0000329 1173.97095,49.0908653 1176.48494,51.6054087 L1186.49463,61.6161791 C1186.63847,61.7594781 1186.89619,61.7594781 1187.03949,61.6161791 L1197.04917,51.6054087 C1199.56371,49.0908653 1199.56371,45.0000329 1197.04917,42.4854895 C1195.83358,41.2698998 1194.2137,40.5997182 1192.48975,40.5997182 C1192.48921,40.5997182 1192.48866,40.5997182 1192.48866,40.5997182 C1190.76417,40.5997182 1189.14538,41.269355 1187.92979,42.4854895 L1187.33262,43.0821146 C1187.01987,43.3943212 1186.5137,43.3937763 1186.20149,43.0815698 L1185.60541,42.4854895 C1184.34786,41.2284902 1182.69638,40.600263 1181.0449,40.600263 Z M1186.76706,63.3286839 C1186.24508,63.3286839 1185.73345,63.117277 1185.36403,62.7478598 L1175.35381,52.7370894 C1172.2154,49.5986777 1172.2154,44.4922204 1175.35381,41.3543536 C1178.49168,38.2159419 1183.59813,38.2159419 1186.73654,41.3543536 L1186.76706,41.3854108 L1186.79866,41.3538088 C1188.31556,39.8358201 1190.337,39 1192.48866,39 C1192.48921,39 1192.48921,39 1192.48975,39 C1194.64142,39 1196.66286,39.8358201 1198.18085,41.3543536 C1201.31872,44.4922204 1201.31872,49.5986777 1198.18085,52.7370894 L1188.17117,62.747315 C1187.80121,63.1167322 1187.28958,63.3286839 1186.76706,63.3286839 L1186.76706,63.3286839 Z" id="Fill-22"></path>
        </g>
    </g>
</svg>