<svg width="24" height="24" viewBox="0 0 24 24" xmlns="http://www.w3.org/2000/svg">
    <g fill="none" fill-rule="evenodd">
        <path d="M0 0h24v24H0z"/>
        <path d="M21 7.657a7.964 7.964 0 0 1-2.126.558 3.545 3.545 0 0 0 1.623-1.952c-.713.407-1.5.694-2.34.855A3.777 3.777 0 0 0 15.462 6c-2.043 0-3.688 1.587-3.688 3.533 0 .28.025.55.085.806-3.067-.143-5.782-1.55-7.606-3.695a3.441 3.441 0 0 0-.505 1.786c0 1.223.658 2.307 1.64 2.935a3.77 3.77 0 0 1-1.668-.435v.039c0 1.717 1.28 3.142 2.957 3.47-.3.08-.628.117-.968.117-.236 0-.475-.013-.699-.06.478 1.399 1.835 2.427 3.449 2.46a7.628 7.628 0 0 1-4.576 1.507c-.303 0-.593-.013-.883-.048A10.728 10.728 0 0 0 8.661 20c6.79 0 10.503-5.385 10.503-10.052 0-.156-.006-.307-.014-.457A7.196 7.196 0 0 0 21 7.657z" fill="#F89319" fill-rule="nonzero"/>
    </g>
</svg>
