<svg width="24" height="24" viewBox="0 0 24 24" xmlns="http://www.w3.org/2000/svg">
    <g fill="none" fill-rule="evenodd">
        <path d="M0 0h24v24H0z"/>
        <path d="M19.96 8.704c-.038-.85-.176-1.435-.373-1.941a3.904 3.904 0 0 0-.925-1.419 3.938 3.938 0 0 0-1.416-.922c-.51-.197-1.091-.334-1.942-.372-.856-.04-1.128-.05-3.3-.05-2.174 0-2.446.01-3.299.047-.85.037-1.435.175-1.941.372a3.905 3.905 0 0 0-1.42.925 3.94 3.94 0 0 0-.922 1.416c-.197.51-.334 1.09-.372 1.94-.04.857-.05 1.13-.05 3.302s.01 2.444.047 3.297c.037.85.175 1.435.372 1.941.203.538.519 1.019.925 1.42.4.406.885.721 1.416.921.51.197 1.091.335 1.942.372.853.038 1.125.047 3.298.047s2.445-.01 3.298-.047c.85-.037 1.435-.175 1.942-.372a4.092 4.092 0 0 0 2.341-2.34c.197-.51.335-1.092.372-1.942.038-.853.047-1.125.047-3.297 0-2.173-.003-2.445-.04-3.298zm-1.442 6.533c-.034.781-.166 1.203-.275 1.484a2.655 2.655 0 0 1-1.52 1.52c-.28.109-.706.24-1.484.274-.844.038-1.097.047-3.233.047-2.135 0-2.391-.009-3.232-.047-.782-.034-1.204-.165-1.485-.275a2.463 2.463 0 0 1-.92-.597 2.488 2.488 0 0 1-.596-.919c-.11-.28-.241-.706-.275-1.484-.038-.844-.047-1.097-.047-3.232 0-2.135.009-2.391.047-3.232.034-.781.165-1.203.275-1.485.128-.347.331-.662.6-.919.26-.265.572-.469.919-.597.281-.109.707-.24 1.485-.275.844-.037 1.097-.047 3.232-.047 2.139 0 2.392.01 3.233.047.781.035 1.204.166 1.485.275.347.128.663.332.919.597.266.26.469.572.597.92.11.28.24.706.275 1.484.038.844.047 1.097.047 3.232 0 2.135-.01 2.385-.047 3.229zm-6.571-6.96a3.948 3.948 0 0 0 0 7.893 3.947 3.947 0 0 0 0-7.893zm0 6.507a2.56 2.56 0 1 1 0-5.12 2.56 2.56 0 0 1 0 5.12zm4.102-5.741a.921.921 0 1 0 0-1.843.921.921 0 0 0 0 1.843z" fill="#F89319"/>
    </g>
</svg>
