<svg width="22" height="22" viewBox="0 0 22 22" xmlns="http://www.w3.org/2000/svg">
    <path d="M18.655 21A2.356 2.356 0 0 0 21 18.638v-3.15a.787.787 0 0 0-.536-.747l-4.701-1.574a.784.784 0 0 0-.685.091l-1.999 1.336c-2.145-1.02-4.681-3.54-5.69-5.653l1.333-2.004a.79.79 0 0 0 .09-.686l-1.57-4.713A.785.785 0 0 0 6.497 1H3.356A2.356 2.356 0 0 0 1 3.351c0 4.35 1.973 8.816 5.413 12.25C9.85 19.032 14.312 21 18.655 21z" fill-rule="nonzero" stroke="#28417C" stroke-width="2" fill="none" stroke-linejoin="round"/>
</svg>
