<svg width="208" height="187" viewBox="0 0 208 187" xmlns="http://www.w3.org/2000/svg">
    <g fill="#F89319" fill-rule="evenodd">
        <g transform="translate(11)" fill-rule="nonzero">
            <path d="M7.466 84.669c0 1.22.984 2.209 2.2 2.209 33.925 0 66.472-10.728 91.647-30.207 10.62-8.218 19.491-17.72 25.656-27.48 4.222-6.683 7.047-13.264 8.362-19.398l3.718 7.526a2.215 2.215 0 0 0 3.126.896c.955-.59 1.311-1.853.813-2.86l-6.984-14.138c-.684-1.385-2.627-1.64-3.654-.495l-11.466 9.174c-.937.75-1.096 2.162-.35 3.104a2.213 2.213 0 0 0 3.09.352l7.738-6.191c-2.378 14.55-14.697 32.054-32.733 46.01C74.22 72.057 42.625 82.46 9.665 82.46c-1.215 0-2.199.989-2.199 2.209z"/>
            <path d="M9.51 51.952c8.072 7.308 17.692 11.17 27.82 11.17 10.129 0 19.748-3.862 27.82-11.17 6.059-5.486 9.107-10.944 9.234-11.173a2.221 2.221 0 0 0 0-2.146c-.127-.23-3.175-5.687-9.234-11.173-8.071-7.308-17.691-11.17-27.82-11.17-10.128 0-19.748 3.863-27.82 11.17C3.452 32.946.403 38.404.276 38.633a2.221 2.221 0 0 0 0 2.146c.127.23 3.176 5.687 9.234 11.173zm3.049-21.307c7.33-6.594 15.665-9.937 24.771-9.937 9.107 0 17.441 3.343 24.772 9.937 4.03 3.626 6.643 7.299 7.783 9.06-1.141 1.764-3.753 5.437-7.783 9.062-7.33 6.594-15.665 9.937-24.772 9.937-9.106 0-17.44-3.343-24.771-9.937-4.03-3.625-6.642-7.298-7.784-9.061 1.142-1.763 3.754-5.436 7.784-9.06z"/>
            <path d="M37.33 56.335c8.982 0 16.29-7.308 16.29-16.29s-7.308-16.29-16.29-16.29-16.29 7.308-16.29 16.29 7.308 16.29 16.29 16.29zm0-28.177c6.555 0 11.887 5.333 11.887 11.887 0 6.555-5.332 11.887-11.887 11.887-6.554 0-11.887-5.332-11.887-11.887 0-6.554 5.333-11.887 11.887-11.887z"/>
            <circle cx="37.33" cy="40.045" r="2.036"/>
            <path d="M147.798 145.61H135.91v-22.44a2.198 2.198 0 0 0-2.202-2.195 2.198 2.198 0 0 0-2.201 2.195v22.44h-14.384V58.689h14.384v54.358c0 1.212.985 2.195 2.201 2.195a2.198 2.198 0 0 0 2.202-2.195V56.494a2.198 2.198 0 0 0-2.202-2.195h-18.786a2.198 2.198 0 0 0-2.202 2.195v89.116H86.595V84.59a2.198 2.198 0 0 0-2.202-2.196H65.607a2.198 2.198 0 0 0-2.202 2.195v61.021H37.28V93.955a2.198 2.198 0 0 0-2.202-2.195H16.292a2.198 2.198 0 0 0-2.202 2.195v51.655H2.202A2.198 2.198 0 0 0 0 147.805C0 149.017.985 150 2.202 150h145.596a2.198 2.198 0 0 0 2.202-2.195 2.198 2.198 0 0 0-2.202-2.195zm-129.305 0V96.15h14.384v49.46H18.493zm49.315 0V86.784h14.384v58.826H67.808z"/>
        </g>
        <path d="M42.705 24.482c-62.57 6.875-39.94 84.72-30.257 117.398 20.574 70.197 99.243 42.36 146.445 20.575 42.36-19.365 68.986-49.622 29.047-87.141-26.627-25.416-79.15-58.094-145.235-50.832" fill-opacity=".124"/>
    </g>
</svg>
