<svg width="390" height="360" viewBox="0 0 390 360" xmlns="http://www.w3.org/2000/svg">
    <g fill="none" fill-rule="evenodd">
        <path d="m105.41 175.183 13.634 7.877 4.876-2.818c1.284-.742 3.368-.742 4.651.002l2.133 1.232c1.285.742 1.285 1.944.004 2.686l-4.88 2.817 152.01 87.83 4.872-2.817c1.287-.744 3.37-.742 4.657 0l2.128 1.231c1.287.745 1.287 1.946 0 2.69l-4.872 2.816 13.63 7.878c3.215 1.857 8.423 1.857 11.628.003l77.717-45.075c3.204-1.854 3.204-4.862-.01-6.717L194.743 123.392c-3.21-1.856-8.418-1.856-11.621-.002l-77.717 45.075c-3.208 1.854-3.207 4.862.005 6.718" fill-opacity=".038" fill="#3A5697"/>
        <path d="m130.024 7.388-2.308 1.327-.02.01-.005.004c-1.046.61-1.691 1.903-1.691 3.742l.003 137.597c-.003 3.694 2.603 8.194 5.818 10.045L324.845 271.21c1.59.914 3.028 1.007 4.08.422v.007l.035-.018.005-.004 2.31-1.33v-.003c1.063-.602 1.72-1.9 1.72-3.756L333 128.93c-.005-3.694-2.611-8.192-5.83-10.043L134.153 7.79c-1.581-.91-3.008-1.004-4.053-.436l-.006-.007-.049.029-.02.012" fill="#5C76B5"/>
        <path fill="#3A5596" d="m330 217-3-2.009V147l3 2.01V217"/>
        <path d="M328.853 271c.286-.625.441-1.4.441-2.306V216.94v.001-86.08c0-3.699-2.609-8.207-5.83-10.062l-37.862-21.806L158.81 25.967 130.233 9.51c-.791-.456-1.545-.708-2.233-.775l.731-.42.077-.035c.344-.187.736-.28 1.164-.28.687 0 1.465.239 2.283.71l193.226 111.285c3.04 1.75 5.514 6.023 5.519 9.522V267.35c-.005 1.564-.502 2.708-1.405 3.222l-.045.026-.697.402" fill="#1E2D52"/>
        <path fill="#1B60E8" d="M330.5 217v-51 51"/>
        <path d="M326.3 272c-.416 0-.866-.087-1.337-.261v-.318c0-.174-.02-.336-.04-.46l-.01-.096a4.48 4.48 0 0 0-.115-.472l-.02-.067a4.22 4.22 0 0 0-.19-.449l-.035-.081a4.875 4.875 0 0 0-.245-.4c-.015-.028-.03-.056-.06-.102a5.176 5.176 0 0 0-.31-.386l-.08-.096a6.771 6.771 0 0 0-1.616-1.264l-13.622-7.845a.61.61 0 0 0-.62 0l-2.052 1.182-4.412-2.54v-1.29l.31-.179c.19-.11.31-.315.31-.537a.624.624 0 0 0-.31-.537l-21.301-12.267c.2-.436.39-.88.575-1.327l42.593 24.525c1.71.985 3.226 2.724 4.287 4.685l-.45.26-.065.032c-.35.194-.75.29-1.186.29M140.801 163.063l-11.217-6.46a10.272 10.272 0 0 0-2.457-.991 13.45 13.45 0 0 1-.127-.256c.428-.234.92-.356 1.46-.356.78 0 1.66.254 2.593.792l10.44 6.011c-.229.42-.46.842-.692 1.26" fill="#28417C"/>
        <path d="m128.647 9.872-.021.013c-.89.519-1.38 1.656-1.38 3.203l.002 137.47c-.003 3.49 2.465 7.75 5.5 9.499l192.796 110.995c1.332.767 2.564.915 3.465.416l.065-.031 2.233-1.287.045-.026c.9-.513 1.396-1.654 1.401-3.214V129.44c-.005-3.49-2.473-7.75-5.506-9.497L134.454 8.95c-1.324-.762-2.546-.914-3.44-.429l-.076.035-2.29 1.317h-.001M327.827 273c-.906 0-1.897-.293-2.903-.874L132.126 161.132c-3.38-1.946-6.126-6.69-6.123-10.575L126 13.088c0-1.997.703-3.51 1.98-4.263l.035-.021.01-.006 2.302-1.324.015-.008.048-.03a.626.626 0 0 1 .132-.06c1.273-.636 2.885-.462 4.554.499l192.796 110.993c3.375 1.944 6.123 6.686 6.128 10.57v137.473c-.005 2.005-.71 3.519-1.997 4.269l-.036.024-2.267 1.306-.075.044-.066.028a3.654 3.654 0 0 1-1.732.418" fill="#28417C"/>
        <path d="M324.677 257.684 132.325 146.27c-1.28-.742-2.322-2.546-2.325-4.028V13.659c0-1.481 1.044-2.082 2.322-1.343l192.355 111.41c1.28.743 2.318 2.551 2.318 4.032L327 256.34c-.005 1.48-1.044 2.083-2.323 1.343" fill="#FFF"/>
        <path d="M312.227 138.446c-1.778-1.041-3.222-.196-3.227 1.88l.005 61.38c0 2.08 1.439 4.613 3.222 5.657L327 216v-68.915l-14.773-8.64" fill="#FEF2E3"/>
        <path d="m137.99 170.35 1.197.65 3.813-2.083V165l-5.011 2.738c-1.319.722-1.319 1.888.001 2.612" fill="#80B6F1"/>
        <path d="m141.772 174.862-.002-.002c.401.222.952.187 1.561-.156L152 169.79v-5.028L148.891 163l-8.675 4.916c-1.225.695-2.218 2.38-2.216 3.769.002.66.23 1.125.597 1.364l-.005.011 3.18 1.802" fill="#7185A3"/>
        <path d="m141.772 174.862-.002-.002c.401.222.952.187 1.561-.156L152 169.79v-5.028L148.891 163l-8.675 4.916c-1.225.695-2.218 2.38-2.216 3.769.002.66.23 1.125.597 1.364l-.005.011 3.18 1.802" fill="#B7DAFE"/>
        <path d="m296.995 261.344 1.193.656 3.812-2.084V256l-5.016 2.736c-1.316.719-1.311 1.89.01 2.608" fill="#80B6F1"/>
        <path d="m299.447 262-.357-.212-.057-.03-1.279-.763c-.478-.281-.754-.627-.754-.948 0-.318.27-.662.743-.941L303 256v3.9l-3.553 2.1" fill="#67A7EE"/>
        <path d="M300.772 265.86c.399.221.946.188 1.558-.154l8.67-4.917v-5.022L307.89 254l-8.675 4.915c-1.22.697-2.215 2.379-2.215 3.77 0 .662.234 1.126.597 1.366l-.005.01 3.18 1.8" fill="#7185A3"/>
        <path d="M300.772 265.86c.399.221.946.188 1.558-.154l8.67-4.917v-5.022L307.89 254l-8.675 4.915c-1.22.697-2.215 2.379-2.215 3.77 0 .662.234 1.126.597 1.366l-.005.01 3.18 1.8" fill="#FFF"/>
        <path d="m311 256-8.763 4.8c-1.232.68-2.237 2.328-2.237 3.683 0 1.356 1.005 1.903 2.242 1.229l8.758-4.805V256" fill="#CEE7FD"/>
        <path d="m324.965 271.815-.005-.059a4.002 4.002 0 0 0-.1-.406l-.015-.045a3.343 3.343 0 0 0-.17-.402l-.015-.044a3.396 3.396 0 0 0-.225-.36l-.04-.075a4.79 4.79 0 0 0-.286-.35l-.055-.071a6.189 6.189 0 0 0-1.466-1.15l-13.626-7.881-4.87 2.818c-1.286.743-3.367.743-4.648-.003l-.966-.558v.002l-1.161-.675c-1.286-.74-1.291-1.946-.01-2.686l1.391-.803 3.488-2.015-151.909-87.856-4.873 2.817c-1.283.742-3.364.742-4.65-.003l-.965-.56-1.163-.669c-1.284-.745-1.284-1.946-.002-2.69l4.874-2.817-13.626-7.882c-3.211-1.854-8.412-1.857-11.616-.002L2.402 224.394a6.65 6.65 0 0 0-.559.358c-1.217.861-1.83 1.914-1.843 2.969V231.712l.013.003c-.032 1.239.758 2.486 2.397 3.431l192.712 111.461c3.212 1.857 8.417 1.856 11.62.003l115.851-67.005c1.591-.917 2.382-2.12 2.397-3.324h.01v-4.077c0-.13-.015-.26-.035-.39" fill="#28417C"/>
        <path d="M201.468 346c-1.993 0-3.991-.436-5.509-1.306L3.1 234.004c-1.372-.786-2.113-1.8-2.085-2.856a.565.565 0 0 0-.014-.14V229c.402.558.998 1.081 1.788 1.535l192.86 110.687c1.608.923 3.717 1.385 5.82 1.385s4.207-.46 5.81-1.38l115.94-66.542c.79-.453 1.386-.976 1.782-1.533v2.142l-.005.088c-.015 1.025-.756 2.01-2.088 2.774l-115.94 66.54c-1.518.87-3.506 1.304-5.5 1.304" fill="#3A5697"/>
        <path d="M1.243 231.113c.01.046.015.093.013.141-.027 1.062.712 2.082 2.083 2.872L195.91 345.46c3.035 1.75 7.96 1.752 10.99.002l115.766-66.926c1.33-.769 2.07-1.76 2.085-2.79l.005-.088v-3.966c0-.11-.01-.208-.025-.307l-.005-.015-.005-.067a2.108 2.108 0 0 0-.075-.283l-.015-.058a3.575 3.575 0 0 0-.13-.303l-.03-.061c-.05-.093-.11-.182-.17-.273l-.035-.06a3.07 3.07 0 0 0-.24-.301l-.04-.05a5.54 5.54 0 0 0-1.325-1.04l-13.307-7.693-4.55 2.635c-1.485.856-3.8.855-5.27-.004l-.915-.527-.055-.028-1.16-.674c-.806-.465-1.276-1.151-1.276-1.881 0-.728.465-1.413 1.27-1.88l3.94-2.275-150.55-87.037-4.559 2.635c-1.476.854-3.79.853-5.268-.003l-2.126-1.226c-.822-.477-1.274-1.146-1.274-1.885 0-.737.451-1.405 1.271-1.88l3.939-2.276-12.684-7.334c-3.034-1.75-7.961-1.751-10.986-.002L3.333 224.465a6.185 6.185 0 0 0-.51.325c-1.009.715-1.568 1.59-1.58 2.465v3.858M201.409 348c-2.215 0-4.43-.488-6.12-1.463L2.718 235.204c-1.732-.998-2.688-2.36-2.706-3.846L0 231.236v-4.011c.023-1.28.769-2.504 2.105-3.45.19-.136.395-.267.608-.389l115.766-66.926c3.367-1.948 8.852-1.946 12.228.002l13.616 7.873a.622.622 0 0 1 0 1.078l-4.87 2.814c-.412.24-.65.533-.65.804s.238.565.653.806l2.127 1.226c1.09.634 2.933.634 4.024.003l4.87-2.814a.62.62 0 0 1 .62 0l151.796 87.755a.627.627 0 0 1 0 1.078l-4.876 2.815c-.41.238-.645.53-.645.8 0 .272.24.565.655.804l1.11.647.05.026.966.557c1.09.634 2.93.635 4.025.003l4.865-2.815a.618.618 0 0 1 .62 0l13.617 7.873c.645.372 1.185.799 1.615 1.267l.08.097c.1.117.215.252.31.388.03.046.045.074.06.103.08.12.17.259.245.4l.035.082c.075.156.14.305.19.45l.02.068c.045.148.085.312.115.473l.01.096c.02.125.04.287.04.462v4.039l-.01.105c-.045 1.463-1 2.806-2.7 3.788l-115.77 66.926c-1.686.974-3.896 1.461-6.111 1.461" fill="#28417C"/>
        <path d="M242.065 310c-1.26 0-2.526-.278-3.486-.833l-26.933-15.53 4.475-2.558c.705-.05 1.385-.23 1.926-.542l6.19-3.568c.51-.295.82-.665.92-1.05l4.266-2.436c.65-.063 1.275-.238 1.775-.526l6.186-3.57c.475-.273.775-.61.9-.964l3.28-1.876c4.841-2.79 9.162-5.347 13.007-7.768l4.026 2.322c.645.37 1.49.556 2.33.556.84 0 1.675-.184 2.316-.552l6.19-3.57c1.28-.736 1.276-1.937-.005-2.676l-4.935-2.844a83.39 83.39 0 0 0 2.015-1.57c.55.212 1.19.317 1.825.317.835 0 1.675-.183 2.316-.55l.775-.445c1.28-.74 1.28-1.94 0-2.679l-.64-.37a53.06 53.06 0 0 0 2.445-2.504l30.324 17.486c1.925 1.11 1.93 2.909.01 4.017l-58.018 33.452c-.96.554-2.22.831-3.48.831m-.02-14.65c-.84 0-1.676.185-2.316.554l-6.195 3.567c-1.276.74-1.276 1.939.005 2.679l6.2 3.573c.64.369 1.48.554 2.326.554.835 0 1.675-.184 2.315-.554l6.19-3.568c1.281-.74 1.276-1.938-.004-2.679l-6.196-3.57c-.645-.37-1.485-.555-2.325-.555m13.156-7.584c-.845 0-1.685.185-2.325.555l-6.186 3.566c-1.28.74-1.285 1.939 0 2.678l6.196 3.571c.64.37 1.485.556 2.325.556.84 0 1.68-.184 2.32-.554l6.187-3.567c1.285-.74 1.28-1.938 0-2.678l-6.201-3.574c-.635-.368-1.475-.553-2.316-.553m-26.328-.01c-.835 0-1.675.184-2.31.552l-6.191 3.57c-1.28.737-1.28 1.938 0 2.677l6.2 3.575c.64.37 1.48.555 2.326.555.84 0 1.68-.185 2.32-.555l6.186-3.568c1.28-.738 1.275-1.938-.005-2.681l-6.196-3.57c-.645-.37-1.485-.555-2.33-.555m24.688-16.094c-.835 0-1.67.184-2.31.551l-6.19 3.57c-1.281.737-1.281 1.938 0 2.677l20.977 12.097c.64.369 1.485.553 2.325.553.84 0 1.68-.184 2.32-.55l6.186-3.572c1.286-.737 1.28-1.938 0-2.676l-20.977-12.095c-.646-.37-1.486-.555-2.33-.555m-11.532 8.512c-.84 0-1.68.184-2.32.554l-6.186 3.566c-1.28.74-1.286 1.94 0 2.677l6.195 3.574c.645.37 1.486.556 2.33.556.836 0 1.676-.184 2.316-.554l6.19-3.567c1.281-.739 1.276-1.94-.004-2.679l-6.196-3.573c-.645-.37-1.485-.554-2.325-.554m32.039-11.852c-.835 0-1.675.184-2.315.551l-6.191 3.572c-1.28.737-1.275 1.937.005 2.674l13.622 7.854c.64.37 1.48.555 2.32.555.84 0 1.68-.185 2.32-.555l6.191-3.564c1.275-.74 1.275-1.942-.005-2.68l-13.617-7.85c-.645-.372-1.485-.557-2.33-.557m15.162-.181c-.835 0-1.675.184-2.315.554l-.775.445c-1.28.74-1.28 1.94 0 2.68l6.195 3.57c.646.37 1.486.555 2.33.555.836 0 1.676-.184 2.316-.552l.775-.447c1.28-.738 1.275-1.939-.005-2.68l-6.196-3.57c-.64-.37-1.48-.555-2.325-.555m-13.167-7.592c-.84 0-1.68.185-2.325.555l-.765.447c-1.28.738-1.28 1.937.005 2.675l6.19 3.573c.646.37 1.486.555 2.331.555.84 0 1.675-.184 2.315-.552l.775-.446c1.28-.739 1.28-1.94-.005-2.678l-6.195-3.574c-.64-.37-1.48-.555-2.326-.555M85.083 220.66 58.445 205.3c-1.925-1.109-1.927-2.91-.003-4.018l58.013-33.451c.96-.554 2.22-.831 3.48-.831 1.263 0 2.525.278 3.487.834l10.623 6.125c-.62.951-1.247 1.894-1.884 2.83l-9.898-5.707c-.641-.37-1.483-.556-2.324-.556-.84 0-1.68.185-2.32.556l-.772.443c-1.283.739-1.28 1.938.005 2.677l12.184 7.027a161.781 161.781 0 0 1-3.949 5.196l-4.35 2.507c-1.283.74-1.283 1.938.002 2.68l.037.02a142.608 142.608 0 0 1-11.065 11.46l-21.48-12.384c-.642-.371-1.484-.557-2.324-.557-.84 0-1.681.186-2.323.556l-6.188 3.567c-1.281.74-1.282 1.936.003 2.678l21.685 12.505c.642.369 1.485.554 2.327.554.047 0 .095 0 .143-.002-3.826 2.964-7.757 5.626-11.768 7.939l-4.703 2.712m3.156-13.995c-.838 0-1.676.184-2.315.555l-6.19 3.568c-1.28.74-1.28 1.937.004 2.676l6.198 3.574c.642.37 1.484.555 2.325.555.839 0 1.678-.184 2.318-.553l6.188-3.568c1.281-.74 1.278-1.94-.002-2.678l-6.198-3.573c-.643-.37-1.486-.556-2.328-.556m-15.486-8.932c-.84 0-1.679.186-2.319.554l-6.186 3.57c-1.283.735-1.282 1.937 0 2.676l8.522 4.913c.642.37 1.484.556 2.326.556.839 0 1.677-.185 2.318-.554l6.186-3.568c1.282-.74 1.28-1.938-.002-2.678l-8.52-4.91c-.642-.373-1.484-.559-2.325-.559m26.301-15.164c-.839 0-1.678.185-2.316.555l-6.19 3.567c-1.282.738-1.284 1.938.002 2.677l15.878 9.157c.64.37 1.48.554 2.321.554.842 0 1.683-.185 2.323-.554l6.186-3.57c1.284-.737 1.279-1.936-.003-2.677l-15.878-9.153c-.641-.37-1.482-.556-2.323-.556m13.15-7.583c-.84 0-1.679.185-2.32.553l-6.188 3.57c-1.282.739-1.278 1.938.004 2.678l10.069 5.804c.64.37 1.481.555 2.321.555.841 0 1.68-.185 2.32-.555l6.192-3.564c1.28-.742 1.28-1.94-.005-2.68l-10.068-5.805c-.643-.37-1.484-.556-2.325-.556" fill="#546BA2"/>
        <path d="M151.86 199.524c1.284-.733 1.282-1.928-.001-2.663l-6.215-3.552c-1.285-.735-3.369-.738-4.653-.003l-6.204 3.548c-1.282.737-1.282 1.929.005 2.664l6.21 3.552c1.284.735 3.372.739 4.654.002l6.204-3.548m-13.197-7.548c1.282-.738 1.282-1.928-.004-2.663l-6.211-3.553c-1.287-.737-3.371-.738-4.655-.003l-6.203 3.547c-1.286.735-1.286 1.927.002 2.664l6.212 3.553c1.284.735 3.372.736 4.654 0l6.205-3.545m-13.199-7.55c1.283-.737 1.283-1.93-.005-2.664l-10.092-5.774c-1.288-.737-3.37-.735-4.656-.003l-6.204 3.55c-1.284.735-1.28 1.928.005 2.663l10.093 5.772c1.285.736 3.37.736 4.653 0l6.206-3.544m52.79 30.198c1.288-.734 1.283-1.929 0-2.665l-6.212-3.55c-1.285-.736-3.371-.736-4.653-.001l-6.207 3.549c-1.28.73-1.279 1.925.005 2.66l6.212 3.554c1.282.734 3.37.738 4.655.002l6.2-3.549m-13.194-7.55c1.283-.733 1.28-1.928-.005-2.665l-6.21-3.551c-1.284-.735-3.372-.737-4.66-.001l-6.198 3.547c-1.285.737-1.285 1.928.003 2.663l6.21 3.551c1.285.74 3.369.74 4.655.004l6.205-3.548m126.225 72.207c1.278-.736 1.278-1.931-.005-2.665l-13.65-7.807c-1.288-.737-3.368-.738-4.657-.005l-6.205 3.552c-1.284.733-1.279 1.927.005 2.66l13.654 7.81c1.284.735 3.37.736 4.652 0l6.206-3.545m-20.638-11.808c1.284-.733 1.279-1.927-.005-2.662l-6.21-3.551c-1.289-.738-3.374-.738-4.657-.005l-6.201 3.548c-1.283.738-1.278 1.928 0 2.66l6.21 3.556c1.289.734 3.374.738 4.658.003l6.205-3.55m-13.203-7.549c1.288-.733 1.288-1.929 0-2.662l-6.211-3.552c-1.283-.737-3.369-.738-4.657-.004l-6.206 3.551c-1.278.731-1.278 1.925.01 2.662l6.206 3.55c1.288.736 3.379.739 4.657.006l6.2-3.551m-13.193-7.55c1.283-.734 1.278-1.929-.005-2.664l-6.21-3.554c-1.29-.73-3.374-.733-4.653 0l-6.206 3.55c-1.283.735-1.283 1.926.005 2.663l6.206 3.553c1.289.733 3.374.736 4.657 0l6.206-3.547m-13.199-7.55c1.289-.735 1.284-1.929-.005-2.664l-6.21-3.551c-1.289-.736-3.37-.736-4.652-.003l-6.201 3.549c-1.289.735-1.289 1.924 0 2.663l6.21 3.554c1.284.733 3.37.736 4.652 0l6.206-3.548m-13.198-7.552c1.283-.73 1.283-1.925 0-2.661l-6.216-3.554c-1.284-.736-3.369-.736-4.652 0l-6.206 3.549c-1.283.735-1.283 1.924.005 2.66l6.21 3.557c1.284.731 3.37.733 4.653 0l6.206-3.55m-13.2-7.548c1.29-.738 1.284-1.931-.004-2.662l-6.211-3.555c-1.288-.733-3.369-.737-4.652-.004l-6.206 3.55c-1.288.735-1.283 1.926.005 2.663l6.206 3.553c1.288.733 3.374.74 4.662.003l6.2-3.548m-13.198-7.55c1.283-.737 1.278-1.93-.005-2.664l-6.21-3.552c-1.284-.738-3.369-.738-4.654-.005l-6.206 3.55c-1.282.738-1.278 1.928.008 2.663l6.21 3.555c1.283.735 3.368.738 4.651-.001l6.206-3.545m-46.955-11.78c1.287-.734 1.283-1.928-.002-2.664l-6.211-3.552c-1.287-.735-3.37-.737-4.656-.002l-6.203 3.548c-1.285.734-1.285 1.928 0 2.663l6.213 3.552c1.285.738 3.373.738 4.657.002l6.202-3.548m-13.198-7.55c1.285-.734 1.283-1.928-.005-2.664l-6.21-3.553c-1.285-.736-3.37-.734-4.653 0l-6.204 3.548c-1.284.736-1.284 1.926.001 2.663l6.213 3.554c1.284.736 3.371.734 4.655 0l6.203-3.549m-13.2-7.55c1.288-.733 1.283-1.925-.002-2.662l-15.916-9.103c-1.285-.736-3.371-.737-4.65 0l-6.206 3.546c-1.285.734-1.287 1.927.002 2.663l15.916 9.106c1.282.735 3.373.735 4.655 0l6.201-3.55m107.24 91.505c1.283-.733 1.278-1.927-.005-2.661l-6.211-3.553c-1.288-.736-3.374-.736-4.657 0l-6.2 3.545c-1.284.735-1.284 1.928 0 2.664l6.21 3.553c1.288.737 3.374.737 4.657 0l6.206-3.548m26.382.012c1.283-.735 1.278-1.93-.005-2.664l-6.21-3.554c-1.289-.734-3.37-.736-4.658 0l-6.2 3.546c-1.284.736-1.289 1.93 0 2.663l6.21 3.554c1.289.735 3.374.739 4.657.002l6.206-3.547m-13.184 7.54c1.284-.734 1.279-1.928-.005-2.667l-6.21-3.55c-1.289-.735-3.374-.735-4.652-.003l-6.206 3.55c-1.283.733-1.283 1.928 0 2.663l6.216 3.554c1.283.736 3.368.738 4.657.001l6.2-3.548m13.2 7.55c1.282-.735 1.277-1.928-.006-2.665l-6.21-3.55c-1.289-.735-3.37-.737-4.653-.002l-6.21 3.548c-1.279.735-1.279 1.928.005 2.664l6.215 3.553c1.284.733 3.37.736 4.652 0l6.206-3.548m13.179-7.542c1.288-.735 1.283-1.927 0-2.663l-6.216-3.553c-1.278-.734-3.369-.734-4.652.001l-6.2 3.546c-1.284.737-1.289 1.928 0 2.664l6.21 3.55c1.283.737 3.374.739 4.657.002l6.2-3.547m13.185-7.54c1.288-.734 1.283-1.928 0-2.661l-21.03-12.029c-1.287-.733-3.368-.736-4.651-.003l-6.206 3.55c-1.283.733-1.283 1.927 0 2.662l21.029 12.03c1.283.733 3.368.733 4.657.002l6.2-3.552m-28.011-16.025c1.283-.733 1.278-1.927-.005-2.663l-6.21-3.55c-1.284-.736-3.37-.737-4.658-.003l-6.2 3.55c-1.284.732-1.284 1.926 0 2.664l6.21 3.55c1.283.735 3.379.737 4.657.004l6.206-3.552m-13.204-7.55c1.289-.735 1.284-1.926 0-2.661l-6.21-3.552c-1.284-.738-3.37-.735-4.658-.006l-6.205 3.55c-1.279.734-1.279 1.927.01 2.665l6.205 3.554c1.284.735 3.374.733 4.662 0l6.196-3.55m-13.193-7.549c1.283-.733 1.278-1.926-.005-2.662l-6.211-3.552c-1.289-.735-3.369-.739-4.652-.002l-6.201 3.547c-1.288.736-1.288 1.929 0 2.664l6.21 3.555c1.284.734 3.37.734 4.653 0l6.206-3.55m-13.2-7.55c1.284-.735 1.28-1.926-.004-2.663l-6.211-3.55c-1.283-.736-3.369-.738-4.657-.003l-6.2 3.547c-1.284.737-1.284 1.93 0 2.664l6.215 3.552c1.278.737 3.369.738 4.652.003l6.206-3.55m-13.199-7.548c1.283-.734 1.278-1.928 0-2.663l-6.216-3.554c-1.288-.736-3.373-.736-4.657 0l-6.2 3.544c-1.284.74-1.284 1.93.001 2.666l6.214 3.555c1.284.731 3.369.734 4.652 0l6.206-3.548m-13.199-7.553c1.284-.733 1.279-1.926-.005-2.66l-6.21-3.554c-1.286-.736-3.37-.736-4.655-.002l-6.203 3.547c-1.282.737-1.282 1.93.003 2.666l6.21 3.552c1.284.735 3.371.735 4.656.003l6.204-3.552m-13.198-7.548c1.285-.734 1.282-1.926-.007-2.66l-6.208-3.555c-1.286-.735-3.369-.736-4.654 0l-6.203 3.544c-1.285.738-1.288 1.929.004 2.667l6.209 3.553c1.283.734 3.371.734 4.655 0l6.204-3.55m-13.2-7.55c1.285-.733 1.283-1.926-.004-2.663l-6.209-3.551c-1.285-.735-3.371-.735-4.656-.003l-6.202 3.547c-1.283.737-1.287 1.93 0 2.667l6.212 3.554c1.287.734 3.374.734 4.656-.002l6.203-3.549m58.636 48.623c1.283-.734 1.278-1.93-.005-2.665l-6.211-3.552c-1.288-.735-3.369-.737-4.657 0l-6.2 3.546c-1.29.738-1.284 1.927 0 2.666l6.21 3.55c1.288.735 3.374.738 4.657.004l6.206-3.55m-13.199-7.55c1.288-.736 1.278-1.926-.005-2.661l-6.21-3.553c-1.29-.74-3.375-.738-4.658 0l-6.2 3.548c-1.284.733-1.284 1.922 0 2.66l6.215 3.554c1.284.736 3.369.736 4.652 0l6.206-3.547m-13.204-7.549c1.289-.734 1.284-1.93 0-2.663l-6.21-3.556c-1.285-.733-3.371-.733-4.656 0l-6.203 3.549c-1.285.735-1.283 1.927.002 2.662l6.209 3.552c1.29.735 3.374.739 4.657.005l6.201-3.549m-13.197-7.55c1.287-.736 1.282-1.93 0-2.663l-6.213-3.556c-1.285-.735-3.368-.733-4.652 0l-6.204 3.55c-1.289.732-1.286 1.926 0 2.66l6.212 3.557c1.287.732 3.37.735 4.658-.004l6.199-3.544m-13.196-7.552c1.285-.733 1.28-1.93-.004-2.663l-6.21-3.551c-1.285-.738-3.37-.739-4.656-.001l-6.203 3.546c-1.284.737-1.284 1.93.004 2.666l6.21 3.551c1.284.735 3.37.735 4.655-.002l6.204-3.546m-13.197-7.548c1.282-.738 1.28-1.931-.004-2.664l-6.212-3.554c-1.285-.735-3.368-.735-4.655.001l-6.201 3.548c-1.288.733-1.288 1.924.001 2.664l6.21 3.55c1.287.734 3.372.737 4.656 0l6.205-3.545m-13.2-7.55c1.285-.735 1.282-1.927 0-2.663l-6.213-3.553c-1.288-.735-3.371-.737-4.658-.002l-6.202 3.547c-1.285.736-1.285 1.93.003 2.667l6.212 3.55c1.286.736 3.37.734 4.654 0l6.203-3.546m-13.198-7.552c1.286-.735 1.283-1.926-.001-2.661l-6.211-3.553c-1.287-.736-3.37-.74-4.658-.003l-6.203 3.55c-1.284.733-1.283 1.926.004 2.663l6.21 3.553c1.286.736 3.372.734 4.656 0l6.203-3.549m175.098 61.127c1.283-.734 1.278-1.928-.005-2.665l-6.21-3.55c-1.284-.735-3.37-.738-4.653 0l-.777.441c-1.283.737-1.283 1.93 0 2.665l6.211 3.551c1.288.733 3.374.736 4.657.003l.777-.445m-13.199-7.547c1.284-.736 1.284-1.93-.005-2.664l-6.21-3.555c-1.284-.734-3.37-.736-4.662 0l-.767.445c-1.284.734-1.284 1.927.005 2.66l6.205 3.554c1.289.735 3.374.735 4.657.003l.777-.443m-13.198-7.549c1.283-.736 1.283-1.929 0-2.664l-6.216-3.555c-1.284-.735-3.374-.735-4.652-.001l-.777.445c-1.288.734-1.283 1.925.005 2.66l6.21 3.554c1.284.733 3.37.736 4.653.003l.777-.442m-13.204-7.553c1.288-.733 1.283-1.928 0-2.66l-6.206-3.557c-1.288-.736-3.379-.736-4.657 0l-.777.444c-1.283.732-1.283 1.926.005 2.661l6.206 3.554c1.288.734 3.374.736 4.657.003l.772-.445m-13.194-7.548c1.283-.736 1.278-1.93 0-2.665l-6.216-3.552c-1.288-.737-3.368-.737-4.657 0l-.772.441c-1.288.734-1.283 1.928.005 2.663l6.211 3.554c1.289.733 3.374.738 4.652.002l.777-.443m-13.199-7.55c1.284-.737 1.284-1.929-.005-2.664l-6.21-3.552c-1.284-.737-3.37-.737-4.657-.002l-.772.442c-1.284.737-1.284 1.928.005 2.663l6.21 3.553c1.284.734 3.37.737 4.652.001l.777-.44m-13.198-7.55c1.283-.737 1.283-1.93-.005-2.666l-6.206-3.553c-1.288-.735-3.374-.736-4.657-.002l-.777.444c-1.283.733-1.283 1.928.005 2.664l6.21 3.554c1.284.733 3.364.733 4.658 0l.772-.441m-13.199-7.552c1.283-.736 1.283-1.927-.005-2.664l-6.21-3.553c-1.284-.737-3.37-.735-4.653-.002l-.777.445c-1.283.737-1.283 1.925.005 2.663l6.211 3.552c1.288.734 3.369.735 4.657.001l.772-.442m-13.199-7.548c1.284-.737 1.284-1.931 0-2.667l-6.216-3.554c-1.283-.735-3.363-.735-4.653 0l-.775.444c-1.284.736-1.283 1.927.002 2.662l6.213 3.553c1.284.737 3.369.74 4.657.004l.772-.442m-13.2-7.552c1.288-.735 1.285-1.928-.001-2.664l-6.207-3.55c-1.291-.741-3.372-.736-4.658-.003l-.776.443c-1.288.735-1.285 1.929.004 2.662l6.211 3.553c1.285.736 3.369.736 4.653 0l.775-.44m-13.198-7.552c1.285-.735 1.285-1.927 0-2.664l-6.213-3.549c-1.285-.739-3.371-.739-4.654-.003l-.778.442c-1.283.735-1.28 1.928.005 2.661l6.21 3.554c1.286.736 3.371.739 4.655.003l.775-.444m-13.198-7.55c1.286-.733 1.283-1.928-.002-2.662l-6.213-3.556c-1.286-.735-3.37-.734-4.654.001l-.776.44c-1.284.738-1.28 1.932.005 2.665l6.21 3.554c1.286.735 3.371.738 4.658.003l.772-.444m-13.2-7.552c1.287-.734 1.284-1.927-.002-2.66l-17.533-10.03c-1.286-.736-3.37-.738-4.655 0l-.774.44c-1.286.735-1.283 1.927.005 2.663l17.532 10.03c1.285.736 3.37.738 4.653.003l.774-.446m36.096 74.762c1.288-.73 1.282-1.924 0-2.658l-45.809-26.204c-1.285-.736-3.37-.736-4.655-.005l-6.203 3.552c-1.284.732-1.283 1.925.003 2.66l45.805 26.203c1.288.737 3.372.737 4.659.003l6.2-3.551m13.2 7.554c1.284-.738 1.284-1.929-.005-2.665l-6.206-3.551c-1.292-.74-3.375-.735-4.658-.002l-6.203 3.549c-1.285.732-1.285 1.927.002 2.662l6.209 3.552c1.287.733 3.372.735 4.655.002l6.206-3.547m48.57 12.7c1.288-.734 1.283-1.928 0-2.662l-15.204-8.698c-1.289-.735-3.369-.736-4.657-.002l-6.201 3.55c-1.288.735-1.283 1.928 0 2.662l15.204 8.697c1.283.735 3.368.735 4.657.002l6.2-3.549m-26.377-.01c1.278-.732 1.278-1.927-.005-2.66l-15.204-8.696c-1.288-.74-3.368-.739-4.652-.004l-6.206 3.548c-1.283.736-1.283 1.93.005 2.664l15.204 8.696c1.284.737 3.369.737 4.652 0l6.206-3.547m-88.183-50.442c1.282-.735 1.282-1.928-.003-2.661l-6.213-3.555c-1.286-.735-3.37-.735-4.655 0l-6.202 3.545c-1.285.735-1.283 1.929.001 2.662l6.213 3.554c1.285.735 3.37.738 4.654.004l6.205-3.55m-13.2-7.55c1.284-.736 1.282-1.927-.003-2.662l-6.21-3.552c-1.288-.736-3.371-.738-4.655-.002l-6.204 3.547c-1.285.736-1.28 1.926.002 2.663l6.21 3.552c1.286.736 3.372.738 4.66.003l6.2-3.55m-13.198-7.548c1.284-.737 1.282-1.93-.002-2.663l-6.213-3.553c-1.285-.734-3.37-.74-4.654-.001l-6.205 3.548c-1.284.735-1.283 1.926.003 2.661l6.214 3.554c1.285.736 3.368.738 4.654.002l6.203-3.548m13.18-7.542c1.289-.732 1.285-1.927 0-2.663l-21.737-12.432c-1.288-.74-3.372-.738-4.658-.001l-6.203 3.546c-1.285.736-1.285 1.926.003 2.663l21.737 12.436c1.287.733 3.373.737 4.658 0l6.2-3.55m-32.58 3.542c-1.287.736-3.37.732-4.656-.003l-8.542-4.885c-1.285-.735-1.286-1.93 0-2.661l6.201-3.551c1.285-.733 3.37-.736 4.655.005l8.541 4.884c1.284.735 1.287 1.926.002 2.663l-6.201 3.548" fill="#B0C0E6"/>
        <path d="M136.086 298c-1.285 0-2.57-.279-3.55-.834L78.471 266.53c-1.215-.688-1.677-1.64-1.387-2.529l.008.004c-.124.393-.101.797.065 1.186.122-.284.316-.56.588-.815L137 297.952a8.696 8.696 0 0 1-.914.048" fill="#2785ED"/>
        <path d="M79.197 265c-.227-.328-.259-.67-.09-1l.893.312c-.373.216-.638.449-.803.688" fill="#1F6DE9"/>
        <path d="M229.727 330.126c0 .508-.368 1.127-.806 1.383l-11.11 6.382c-.444.255-.8.047-.811-.456.005-.513.367-1.13.81-1.385l11.106-6.38c.443-.254.81-.054.81.456zm85.468-50.018c-.438.255-.8.872-.8 1.383 0 .51.357.718.805.46.443-.249.8-.873.8-1.379-.005-.509-.357-.718-.805-.464zm-2.929 1.682c-.443.256-.805.878-.8 1.387-.005.511.357.718.795.46.443-.253.81-.875.805-1.383 0-.513-.362-.712-.8-.464zm-3.457 2.91c-.005.508-.362 1.127-.8 1.383l-11.117 6.383c-.442.254-.805.049-.805-.456 0-.516.363-1.135.805-1.39L308 284.246c.443-.256.81-.052.81.454z" fill="#CEE7FD"/>
        <path d="m281.742 243-129.325-74.596v-2.881l-3.127-1.804-2.498 1.44-4.792-2.763a170.294 170.294 0 0 0 3.295-6.396L284 236.01c-.61 2.505-1.352 4.819-2.258 6.99" fill-opacity=".632" fill="#28417C"/>
        <path d="m281.426 243-128.351-73.416v-1.644L282 241.686c-.185.443-.374.882-.574 1.314m-137.337-76.335v-.802l.31-.177a.613.613 0 0 0 0-1.065L142 163.249c.231-.415.462-.833.69-1.249l4.777 2.732-3.378 1.933" fill="#3A5493"/>
        <path d="m138.817 171-.065-.038c-.478-.282-.752-.625-.752-.942 0-.317.274-.66.749-.94L144 166v.95l-3.266 1.916c-.763.448-1.448 1.239-1.917 2.134" fill="#488CE9"/>
        <path d="M142.361 172a3.64 3.64 0 0 1-1.213-.43L139 170.3c.423-.814 1.04-1.534 1.726-1.942l9.036-5.358 3.238 1.92-9.034 5.36c-.624.37-1.19.998-1.605 1.72" fill="#A1CFFE"/>
        <path d="M142.822 172c-.277 0-.555-.025-.822-.075.39-.705.922-1.32 1.508-1.683L152 165v4.733l-1.868-1.153a.577.577 0 0 0-.605 0l-4.747 2.928c-.53.328-1.244.492-1.958.492" fill="#72B6FC"/>
        <path d="m170.855 318-33.557-19.3c.946-.101 1.851-.362 2.583-.784l33.806-19.44c1.844-1.062 1.92-2.756.22-3.875l-.003-.002a.23.23 0 0 0-.011-.007l-.016-.01-.005-.004-.018-.011-.152-.093h-.001l-.022-.013-53.207-30.599a4.262 4.262 0 0 0-.117-.065c-.947-.511-2.16-.768-3.372-.768h-.014c-1.22 0-2.441.26-3.39.78l-.04.023a1.429 1.429 0 0 0-.046.026l-33.8 19.442-.018.01-.009.006a.146.146 0 0 1-.009.005c-.711.417-1.153.93-1.326 1.465L45.723 246.03 45 244.788l41.253-23.727 126.778 72.913L170.855 318m103.864-63.414-139.42-80.185c.751-1.152 1.49-2.315 2.215-3.486.214.36.556.68 1.012.944l2.13 1.221c.74.427 1.691.64 2.642.64.948 0 1.896-.212 2.635-.636l4.567-2.626L281 245.513c-1.633 3.277-3.692 6.238-6.281 9.073m-135.15-87.08c.487-.831.968-1.667 1.441-2.506l1.459.838-2.9 1.667" fill-opacity=".965" fill="#3B5798"/>
        <path d="m280.46 245-130.477-74.507-4.566 2.607c-.738.421-1.686.632-2.634.632-.95 0-1.901-.212-2.642-.636l-2.13-1.212c-.455-.261-.797-.58-1.011-.937.698-1.12 1.382-2.247 2.054-3.385l2.9-1.654-1.458-.833c.204-.358.405-.716.606-1.075l2.407 1.375a.614.614 0 0 1 0 1.066l-.31.177-4.567 2.607c-.414.237-.651.527-.651.795s.237.56.653.797l.057.033 2.074 1.18c.335.193.74.326 1.173.4.274.048.56.072.844.072.734 0 1.467-.157 2.013-.469l4.877-2.783a.626.626 0 0 1 .622 0L281 243.885c-.175.376-.356.747-.54 1.115" fill="#28417C"/>
        <path d="M212.465 295 86 221.217l4.7-2.743c4.008-2.338 7.936-5.029 11.758-8.026.791-.02 1.571-.205 2.175-.558l6.181-3.609c1.284-.744 1.28-1.959-.001-2.707l-.204-.119a143.44 143.44 0 0 0 11.056-11.586l6.156 3.59c.64.373 1.48.56 2.321.56.84 0 1.68-.186 2.318-.56l6.185-3.604c1.277-.75 1.277-1.96-.004-2.708l-6.191-3.612c-.642-.375-1.484-.563-2.325-.563-.838 0-1.676.187-2.315.56l-1.837 1.071c1.345-1.717 2.661-3.47 3.946-5.253l5.302 3.094c.64.374 1.482.562 2.323.562.838 0 1.676-.186 2.315-.56l.772-.453c1.283-.746 1.28-1.959-.002-2.704l-7.587-4.427c.636-.947 1.263-1.9 1.882-2.862L274 255.142a53.359 53.359 0 0 1-2.443 2.531l-5.557-3.24c-.64-.374-1.479-.56-2.323-.56-.84 0-1.674.186-2.314.558l-.774.453c-1.285.746-1.28 1.957.005 2.705l6.19 3.613c.156.091.325.171.5.24-.65.528-1.319 1.056-2.013 1.586l-1.26-.735c-.64-.375-1.484-.563-2.323-.563-.84 0-1.679.186-2.319.558l-6.18 3.608c-1.28.75-1.275 1.96 0 2.705l2.168 1.266c-3.843 2.448-8.16 5.032-12.997 7.854l-3.278 1.896c.205-.606-.094-1.26-.899-1.73l-15.155-8.843c-.645-.374-1.484-.562-2.324-.562-.84 0-1.679.187-2.318.56l-6.181 3.609c-1.284.747-1.28 1.96 0 2.706l15.155 8.842c.64.374 1.48.561 2.324.561.18 0 .364-.009.544-.027l-4.262 2.463c.15-.581-.155-1.196-.924-1.643l-6.192-3.612c-.644-.375-1.484-.561-2.323-.561-.84 0-1.679.186-2.319.561l-6.18 3.604c-1.28.747-1.28 1.96 0 2.708l6.19 3.613c.64.374 1.485.561 2.324.561.13 0 .265-.004.395-.014L212.465 295m-18.059-26.527c-.84 0-1.674.187-2.313.56l-6.186 3.608c-1.28.747-1.28 1.96.005 2.708l15.155 8.841c.64.375 1.479.562 2.318.562.84 0 1.68-.187 2.319-.562l6.186-3.607c1.274-.745 1.274-1.96-.005-2.705l-15.155-8.841c-.64-.376-1.484-.564-2.324-.564m46.79-3.366c-.84 0-1.679.186-2.318.559l-6.181 3.609c-1.28.744-1.28 1.958 0 2.708l6.19 3.609c.645.375 1.485.563 2.33.563.839 0 1.678-.186 2.313-.558l6.186-3.611c1.279-.745 1.274-1.959-.005-2.707l-6.191-3.61c-.64-.375-1.484-.562-2.324-.562m-33.648-4.3c-.84 0-1.674.187-2.319.562l-6.18 3.605c-1.285.75-1.28 1.96 0 2.71l6.19 3.61c.645.374 1.484.561 2.329.561.84 0 1.674-.185 2.313-.558l6.186-3.608c1.28-.746 1.274-1.962-.005-2.71l-6.19-3.61c-.645-.374-1.485-.562-2.324-.562m-26.294-.008c-.84 0-1.68.187-2.32.56l-6.183 3.609c-1.28.744-1.28 1.959.003 2.706l6.188 3.61c.643.374 1.485.56 2.327.56.839 0 1.677-.185 2.314-.557l6.186-3.606c1.28-.75 1.28-1.96-.005-2.709l-6.186-3.61c-.645-.376-1.485-.563-2.324-.563m46.786-3.368c-.84 0-1.68.186-2.319.556l-6.186 3.61c-1.274.745-1.274 1.959.01 2.709l6.186 3.613c.64.374 1.48.56 2.319.56.844 0 1.683-.187 2.328-.56l6.176-3.608c1.284-.749 1.28-1.96 0-2.707l-6.19-3.61c-.64-.376-1.485-.563-2.324-.563m20.491-3.377c-.84 0-1.679.186-2.318.559l-6.186 3.61c-1.274.743-1.274 1.957.01 2.706l6.186 3.61c.644.374 1.489.562 2.333.562.835 0 1.674-.185 2.309-.556l6.18-3.61c1.285-.745 1.285-1.961 0-2.706l-6.19-3.612c-.64-.375-1.484-.563-2.324-.563m-54.135-.923c-.844 0-1.684.188-2.323.564l-6.181 3.607c-1.28.745-1.28 1.954 0 2.704l6.196 3.613c.64.375 1.479.562 2.318.562.84 0 1.68-.187 2.319-.562l6.186-3.606c1.284-.749 1.274-1.959-.005-2.706l-6.191-3.612c-.64-.376-1.48-.564-2.319-.564m-65.772-23.035c-.839 0-1.677.186-2.316.557l-6.182 3.611c-1.281.745-1.28 1.958.003 2.705l45.658 26.64c.642.374 1.484.562 2.326.562.84 0 1.678-.187 2.318-.56l6.18-3.61c1.284-.743 1.278-1.956 0-2.702l-45.662-26.64c-.642-.376-1.484-.563-2.325-.563m86.259 19.66c-.84 0-1.674.185-2.313.56l-6.181 3.605c-1.285.75-1.285 1.962 0 2.71l6.19 3.613c.64.373 1.48.56 2.319.56.84 0 1.679-.187 2.319-.56l6.186-3.609c1.279-.745 1.274-1.958-.005-2.707l-6.191-3.61c-.645-.375-1.484-.563-2.324-.563m20.492-3.376c-.84 0-1.674.186-2.314.558l-6.186 3.608c-1.279.749-1.279 1.959.005 2.709l6.186 3.612c.645.373 1.484.56 2.329.56.84 0 1.674-.186 2.313-.56l6.186-3.607c1.28-.747 1.275-1.961-.005-2.709l-6.19-3.613c-.645-.372-1.485-.558-2.324-.558m-54.137-.922c-.84 0-1.68.186-2.32.558l-6.184 3.609c-1.28.748-1.278 1.959.003 2.707l6.188 3.61c.645.375 1.49.563 2.332.563.838 0 1.674-.185 2.311-.557l6.181-3.608c1.284-.746 1.28-1.962 0-2.708l-6.19-3.616c-.64-.372-1.48-.558-2.32-.558m69.286.738c-.844 0-1.684.187-2.318.561l-.775.451c-1.28.745-1.28 1.959.005 2.706l6.186 3.614c.645.373 1.484.56 2.329.56.834 0 1.674-.186 2.313-.558l.77-.452c1.284-.746 1.279-1.96 0-2.705l-6.186-3.616c-.645-.374-1.484-.561-2.324-.561m-48.798-4.115c-.84 0-1.674.187-2.319.56l-6.181 3.606c-1.28.75-1.28 1.96 0 2.708l6.196 3.612c.64.375 1.479.562 2.319.562.839 0 1.678-.187 2.318-.56l6.186-3.609c1.28-.747 1.274-1.958-.005-2.707l-6.191-3.61c-.64-.374-1.484-.562-2.323-.562m20.491-3.377c-.84 0-1.674.187-2.313.559l-6.181 3.608c-1.284.748-1.284 1.956 0 2.707l6.19 3.614c.64.373 1.48.56 2.32.56.839 0 1.678-.187 2.318-.56l6.186-3.607c1.284-.748 1.279-1.96-.005-2.709l-6.191-3.61c-.645-.375-1.484-.562-2.324-.562m-54.135-.923c-.84 0-1.679.187-2.32.56l-6.183 3.609c-1.285.744-1.282 1.958 0 2.705l6.192 3.616c.641.372 1.48.559 2.321.559.84 0 1.68-.187 2.322-.563l6.18-3.604c1.282-.748 1.277-1.961 0-2.706l-6.194-3.616c-.64-.373-1.479-.56-2.318-.56m69.286.74c-.84 0-1.68.187-2.324.563l-.77.447c-1.284.747-1.279 1.96.006 2.707l6.19 3.614c.64.374 1.485.561 2.33.561.834 0 1.673-.185 2.308-.559l.774-.45c1.28-.749 1.274-1.963 0-2.71l-6.196-3.61c-.64-.376-1.479-.563-2.318-.563m-48.799-4.116c-.84 0-1.679.187-2.319.56l-6.18 3.604c-1.28.751-1.28 1.961.001 2.71l6.194 3.614c.64.373 1.48.559 2.324.559.834 0 1.674-.186 2.313-.559l6.187-3.607c1.279-.746 1.274-1.96 0-2.707l-6.197-3.614c-.64-.373-1.484-.56-2.323-.56m20.497-3.378c-.84 0-1.68.187-2.319.561l-6.186 3.608c-1.279.747-1.279 1.956.005 2.705l6.191 3.616c.64.372 1.48.558 2.319.558.84 0 1.679-.186 2.318-.558l6.186-3.61c1.28-.743 1.28-1.958 0-2.706l-6.196-3.613c-.64-.374-1.479-.56-2.318-.56m-54.143-.923c-.84 0-1.679.187-2.32.562l-6.182 3.605c-1.28.75-1.28 1.962.004 2.711l6.19 3.61c.64.374 1.479.56 2.318.56.84 0 1.682-.187 2.323-.562l6.183-3.605c1.28-.746 1.277-1.962-.004-2.707l-6.19-3.61c-.64-.376-1.481-.564-2.322-.564m69.288.741c-.84 0-1.679.187-2.323.56l-.77.45c-1.28.749-1.28 1.96.005 2.707l6.191 3.612c.64.374 1.48.561 2.324.561.834 0 1.673-.186 2.313-.56l.775-.448c1.279-.749 1.279-1.96-.005-2.709l-6.191-3.61c-.64-.376-1.48-.563-2.319-.563m-48.797-4.117c-.839 0-1.677.186-2.318.559l-6.183 3.606c-1.278.749-1.278 1.962.003 2.71l6.19 3.612c.641.374 1.482.56 2.323.56.84 0 1.679-.186 2.318-.558l6.185-3.611c1.28-.745 1.274-1.958-.005-2.703l-6.19-3.614c-.642-.375-1.483-.561-2.323-.561m20.485-3.376c-.834 0-1.674.185-2.308.557l-6.186 3.608c-1.284.748-1.28 1.96.005 2.708l6.186 3.612c.644.374 1.489.562 2.333.562.84 0 1.674-.186 2.314-.559l6.18-3.607c1.285-.75 1.28-1.963-.004-2.707l-6.191-3.614c-.645-.374-1.484-.56-2.329-.56m-54.128-.923c-.84 0-1.68.187-2.323.562l-6.18 3.607c-1.285.745-1.285 1.956 0 2.708l6.19 3.609c.642.373 1.484.56 2.324.56.84 0 1.678-.186 2.317-.56l6.185-3.604c1.279-.75 1.277-1.963-.003-2.709l-6.192-3.613c-.64-.374-1.48-.56-2.318-.56m-26.3-.008c-.84 0-1.68.186-2.32.56l-6.182 3.604c-1.28.748-1.279 1.961.002 2.707l6.193 3.613c.642.375 1.484.562 2.326.562.837 0 1.674-.186 2.313-.558l6.185-3.609c1.278-.746 1.278-1.96-.003-2.705l-6.193-3.614c-.641-.373-1.482-.56-2.321-.56m95.579.748c-.84 0-1.68.186-2.314.558l-.774.452c-1.28.746-1.28 1.96.005 2.708l6.19 3.614c.64.372 1.48.559 2.319.559.84 0 1.679-.187 2.324-.56l.769-.448c1.28-.75 1.28-1.961-.005-2.71l-6.186-3.613c-.645-.373-1.484-.56-2.328-.56m-48.79-4.116c-.84 0-1.678.187-2.318.561l-6.184 3.603c-1.28.75-1.283 1.961.004 2.711l6.19 3.613c.638.373 1.478.56 2.319.56.84 0 1.68-.187 2.32-.56l6.184-3.609c1.282-.746 1.28-1.957-.007-2.705l-6.188-3.613c-.64-.374-1.48-.561-2.32-.561m20.488-3.379c-.838 0-1.676.187-2.315.559l-6.186 3.609c-1.278.75-1.274 1.96.008 2.707l6.19 3.615c.64.373 1.48.56 2.32.56.837 0 1.677-.186 2.316-.562l6.186-3.604c1.28-.75 1.274-1.964-.005-2.71l-6.19-3.61c-.64-.376-1.485-.564-2.324-.564m-54.14-.92c-.838 0-1.677.187-2.318.56l-6.181 3.605c-1.281.749-1.281 1.962.002 2.712l6.192 3.61c.641.374 1.48.56 2.32.56.84 0 1.679-.187 2.32-.56l6.183-3.606c1.281-.747 1.279-1.96 0-2.708l-6.193-3.611c-.643-.375-1.484-.562-2.325-.562m-26.296-.01c-.839 0-1.676.187-2.315.56l-6.185 3.606c-1.28.749-1.276 1.959.003 2.708l6.19 3.611c.642.375 1.484.563 2.325.563.84 0 1.678-.187 2.319-.56l6.18-3.608c1.28-.748 1.28-1.959-.001-2.706l-6.191-3.612c-.643-.374-1.485-.562-2.325-.562m95.586.748c-.84 0-1.679.187-2.319.56l-.774.452c-1.28.749-1.28 1.957.005 2.708l6.191 3.61c.64.374 1.484.56 2.323.56.84 0 1.68-.185 2.319-.558l.77-.45c1.279-.748 1.279-1.96-.005-2.708l-6.192-3.612c-.64-.375-1.479-.562-2.318-.562m-48.796-4.115c-.84 0-1.678.186-2.318.558l-6.183 3.607c-1.279.749-1.282 1.96.001 2.71l6.192 3.614c.641.372 1.481.559 2.32.559.841 0 1.681-.187 2.32-.56l6.184-3.61c1.28-.744 1.279-1.957-.004-2.706l-6.19-3.611c-.64-.374-1.481-.561-2.322-.561M169.595 208c-.84 0-1.677.187-2.316.56l-6.187 3.609c-1.277.742-1.275 1.957.005 2.704l6.192 3.614c.64.373 1.482.56 2.324.56.838 0 1.677-.185 2.316-.558l6.181-3.608c1.283-.747 1.278-1.962 0-2.71l-6.193-3.609c-.64-.374-1.482-.562-2.322-.562m-54.143-.923c-.838 0-1.676.186-2.316.56l-6.184 3.609c-1.28.745-1.279 1.958.005 2.707l6.19 3.612c.64.375 1.48.561 2.319.561.841 0 1.681-.187 2.322-.56l6.183-3.608c1.282-.748 1.28-1.959-.001-2.706l-6.191-3.612c-.643-.375-1.485-.563-2.327-.563m69.29.738c-.839 0-1.677.187-2.32.561l-.773.451c-1.28.748-1.278 1.96.003 2.706l6.193 3.613c.64.375 1.484.563 2.324.563.84 0 1.679-.187 2.318-.56l.77-.448c1.28-.75 1.28-1.964 0-2.712l-6.196-3.613c-.64-.374-1.48-.561-2.319-.561m-48.797-4.114c-.839 0-1.676.186-2.316.56l-6.183 3.607c-1.281.746-1.281 1.96 0 2.707l6.193 3.611c.64.376 1.482.563 2.323.563.84 0 1.68-.187 2.319-.56l6.182-3.608c1.284-.745 1.28-1.96-.002-2.707l-6.191-3.612c-.642-.374-1.484-.561-2.325-.561m20.494-3.377c-.84 0-1.68.186-2.32.56l-6.18 3.606c-1.28.749-1.28 1.96.003 2.707l6.19 3.61c.641.378 1.482.566 2.323.566.839 0 1.677-.187 2.318-.561l6.184-3.608c1.28-.745 1.276-1.96-.005-2.708l-6.19-3.611c-.64-.374-1.481-.561-2.323-.561m15.15-.183c-.84 0-1.68.188-2.321.56l-.774.452c-1.284.746-1.28 1.96.004 2.705l6.191 3.613c.641.374 1.48.561 2.32.561.839 0 1.678-.187 2.318-.56l.772-.45c1.284-.747 1.281-1.96-.001-2.708l-6.187-3.61c-.643-.376-1.483-.563-2.322-.563m-48.796-4.117c-.84 0-1.68.186-2.32.56l-6.183 3.608c-1.28.748-1.28 1.958.001 2.707l6.193 3.613c.64.374 1.48.56 2.32.56.84 0 1.68-.186 2.32-.56l6.184-3.608c1.28-.745 1.278-1.96-.005-2.707l-6.191-3.612c-.64-.375-1.48-.561-2.32-.561m20.488-3.375c-.838 0-1.675.185-2.315.559l-6.183 3.606c-1.28.75-1.28 1.961.005 2.709l6.19 3.611c.64.374 1.483.562 2.324.562.839 0 1.677-.186 2.314-.56l6.185-3.607c1.28-.745 1.277-1.96-.001-2.708l-6.196-3.61c-.64-.375-1.482-.562-2.323-.562m15.148-.184c-.84 0-1.678.188-2.316.561l-.776.45c-1.278.746-1.276 1.96.005 2.705l6.19 3.614c.642.374 1.484.562 2.326.562.838 0 1.676-.186 2.315-.56l.772-.45c1.28-.749 1.28-1.96 0-2.71l-6.193-3.608c-.641-.376-1.483-.564-2.323-.564m-13.154-7.676c-.84 0-1.68.186-2.32.56l-.774.448c-1.28.75-1.275 1.964.005 2.709l6.19 3.613c.643.375 1.485.562 2.327.562.838 0 1.676-.186 2.316-.56l.77-.45c1.282-.746 1.279-1.961-.002-2.708l-6.193-3.614c-.64-.374-1.48-.56-2.319-.56" fill="#385393"/>
        <path d="M216.202 290c-.837 0-1.678-.184-2.315-.554l-6.167-3.563c-1.274-.739-1.274-1.935 0-2.672l6.157-3.555c.637-.37 1.473-.554 2.31-.554.836 0 1.672.184 2.314.554l6.167 3.563c.766.441 1.07 1.047.92 1.62l-8.993 5.147c-.13.01-.264.014-.393.014m13.09-7.563c-.842 0-1.678-.185-2.315-.554l-15.096-8.722c-1.274-.736-1.279-1.933 0-2.67l6.157-3.56c.637-.368 1.473-.552 2.31-.552.836 0 1.672.185 2.314.554l15.096 8.723c.8.463 1.1 1.11.895 1.708l-8.82 5.046a5.65 5.65 0 0 1-.542.027m-26.194-.008c-.836 0-1.673-.185-2.31-.555l-15.095-8.72c-1.28-.738-1.28-1.935-.005-2.673l6.161-3.558c.637-.368 1.469-.553 2.305-.553.836 0 1.677.185 2.314.556l15.096 8.722c1.274.735 1.274 1.933.005 2.668l-6.162 3.558c-.637.37-1.473.555-2.31.555m37.683-8.481c-.841 0-1.678-.186-2.32-.555l-6.166-3.56c-1.274-.74-1.274-1.937 0-2.672l6.156-3.56c.637-.368 1.474-.551 2.31-.551.836 0 1.677.184 2.314.553l6.167 3.562c1.274.738 1.279 1.936.005 2.67l-6.162 3.562c-.632.367-1.468.55-2.304.55m-33.516-4.24c-.842 0-1.678-.186-2.32-.555l-6.167-3.56c-1.274-.74-1.279-1.934 0-2.674l6.157-3.556c.642-.37 1.473-.554 2.31-.554.836 0 1.672.185 2.314.554l6.167 3.562c1.274.738 1.279 1.937.005 2.673l-6.162 3.56c-.637.366-1.468.55-2.304.55m-26.196-.01c-.839 0-1.678-.185-2.318-.553l-6.164-3.562c-1.278-.737-1.278-1.935-.002-2.67l6.159-3.56c.637-.367 1.473-.552 2.31-.552.836 0 1.673.185 2.315.555l6.162 3.562c1.28.738 1.28 1.932.005 2.672l-6.162 3.557c-.635.367-1.47.55-2.305.55m73.797-1.95-2.16-1.25c-1.27-.735-1.274-1.928 0-2.668l6.157-3.559c.637-.367 1.473-.55 2.31-.55.835 0 1.676.185 2.313.555l1.255.725c-2.887 2.186-6.162 4.403-9.875 6.746m-27.2-1.37c-.836 0-1.672-.183-2.31-.551l-6.161-3.565c-1.28-.74-1.28-1.937-.01-2.672l6.162-3.561c.637-.365 1.473-.549 2.309-.549.836 0 1.677.185 2.314.555l6.167 3.562c1.274.737 1.28 1.932 0 2.67l-6.152 3.56c-.642.368-1.478.552-2.32.552m20.427-3.332c-.841 0-1.682-.185-2.324-.555l-6.162-3.56c-1.279-.74-1.279-1.937-.01-2.67l6.162-3.561c.637-.368 1.473-.552 2.31-.552.835 0 1.677.185 2.314.555l6.166 3.563c1.28.736 1.28 1.935 0 2.67l-6.156 3.561c-.632.366-1.469.55-2.3.55m-53.937-.909c-.836 0-1.673-.184-2.31-.554l-6.171-3.564c-1.275-.74-1.275-1.932 0-2.668l6.156-3.558c.637-.37 1.474-.556 2.315-.556.836 0 1.672.185 2.31.556l6.166 3.563c1.274.738 1.284 1.931.005 2.67l-6.162 3.557c-.637.37-1.473.554-2.31.554m-26.19-.01c-.838 0-1.676-.185-2.316-.555l-45.48-26.278c-1.277-.737-1.278-1.934-.002-2.668l6.158-3.563c.637-.366 1.471-.549 2.306-.549.839 0 1.677.185 2.316.554l45.483 26.28c1.273.736 1.28 1.933 0 2.666l-6.156 3.562c-.637.367-1.472.551-2.309.551m98.783-2.692a3.577 3.577 0 0 1-.498-.236l-6.167-3.564c-1.279-.738-1.284-1.933-.005-2.669l.772-.446c.637-.368 1.468-.552 2.304-.552.841 0 1.677.184 2.314.553l5.535 3.197a65.484 65.484 0 0 1-4.255 3.717m-52.181-.63c-.836 0-1.672-.184-2.31-.552l-6.166-3.564c-1.28-.738-1.28-1.934 0-2.672l6.157-3.558c.637-.368 1.468-.552 2.304-.552.836 0 1.672.185 2.314.555l6.167 3.562c1.274.738 1.28 1.934.005 2.67l-6.162 3.56c-.637.367-1.473.551-2.309.551m20.416-3.331c-.84 0-1.677-.185-2.319-.553l-6.162-3.563c-1.279-.74-1.279-1.934-.005-2.672l6.162-3.56c.637-.366 1.468-.55 2.304-.55.837 0 1.673.184 2.315.55l6.166 3.565c1.275.737 1.28 1.935.005 2.673l-6.161 3.557c-.637.37-1.469.553-2.305.553m-53.925-.91c-.84 0-1.68-.185-2.323-.555l-6.164-3.561c-1.275-.738-1.278-1.933-.002-2.67l6.159-3.56c.638-.368 1.475-.552 2.311-.552.837 0 1.674.184 2.311.552l6.167 3.567c1.274.735 1.28 1.934 0 2.67l-6.157 3.56c-.634.367-1.467.55-2.302.55m74.401-2.385c-.84 0-1.677-.185-2.319-.553l-6.162-3.564c-1.279-.738-1.279-1.935-.005-2.67l.772-.444c.632-.37 1.468-.554 2.31-.554.835 0 1.671.184 2.314.554l6.161 3.566c1.274.735 1.28 1.933 0 2.669l-.766.446c-.637.367-1.473.55-2.305.55m-53.997-.946c-.836 0-1.672-.185-2.31-.555l-6.17-3.563c-1.275-.736-1.275-1.932 0-2.671l6.156-3.557c.642-.368 1.473-.552 2.31-.552.835 0 1.677.185 2.314.554l6.166 3.56c1.274.74 1.28 1.935.005 2.672l-6.161 3.56c-.637.368-1.474.552-2.31.552m20.411-3.331c-.836 0-1.672-.185-2.309-.553l-6.167-3.565c-1.279-.74-1.279-1.932 0-2.67l6.157-3.56c.637-.366 1.468-.55 2.305-.55.836 0 1.672.184 2.314.554l6.167 3.561c1.279.738 1.284 1.935.005 2.672l-6.162 3.558c-.637.368-1.473.553-2.31.553m-53.927-.91c-.837 0-1.673-.185-2.312-.552l-6.168-3.566c-1.277-.737-1.28-1.934 0-2.669l6.16-3.56c.638-.368 1.474-.552 2.31-.552.836 0 1.67.184 2.308.552l6.17 3.567c1.273.735 1.278 1.932 0 2.67l-6.155 3.554c-.64.371-1.476.556-2.313.556m74.413-2.384c-.84 0-1.682-.184-2.319-.553l-6.167-3.565c-1.279-.737-1.284-1.934-.005-2.67l.767-.442c.642-.37 1.478-.555 2.314-.555.836 0 1.673.185 2.31.555l6.171 3.562c1.27.736 1.275 1.934 0 2.672l-.771.445c-.632.368-1.468.551-2.3.551m-53.997-.948c-.84 0-1.677-.184-2.314-.551l-6.17-3.565c-1.276-.74-1.276-1.933-.002-2.674l6.157-3.555c.637-.368 1.473-.553 2.31-.553.836 0 1.677.185 2.314.553l6.171 3.565c1.27.737 1.275 1.935 0 2.67l-6.161 3.559c-.637.368-1.474.55-2.305.55m20.407-3.33c-.837 0-1.673-.184-2.31-.55l-6.166-3.568c-1.28-.738-1.28-1.93-.005-2.668l6.161-3.559c.637-.37 1.474-.553 2.31-.553.836 0 1.672.184 2.31.553l6.17 3.564c1.275.738 1.275 1.937 0 2.67l-6.161 3.56c-.637.367-1.473.551-2.31.551m-53.93-.91c-.835 0-1.671-.184-2.308-.552l-6.166-3.561c-1.279-.74-1.279-1.935-.004-2.675l6.158-3.556c.638-.37 1.474-.554 2.31-.554.838 0 1.676.185 2.314.555l6.165 3.562c1.276.736 1.28 1.935.004 2.67l-6.159 3.557c-.639.37-1.476.555-2.313.555m74.41-2.385c-.84 0-1.677-.184-2.314-.553l-6.166-3.563c-1.28-.738-1.28-1.932-.005-2.671l.766-.444c.642-.368 1.478-.552 2.314-.552.837 0 1.673.185 2.31.555l6.167 3.562c1.279.737 1.279 1.933.005 2.672l-.772.442c-.637.368-1.473.552-2.304.552m-53.996-.946c-.838 0-1.675-.185-2.313-.554l-6.167-3.563c-1.275-.738-1.275-1.934-.003-2.673l6.16-3.557c.637-.368 1.473-.552 2.309-.552.836 0 1.674.185 2.313.554l6.166 3.565c1.274.735 1.279 1.932.005 2.666l-6.16 3.563c-.638.367-1.474.55-2.31.55m20.42-3.33c-.841 0-1.683-.186-2.325-.555l-6.161-3.562c-1.28-.74-1.284-1.935-.005-2.672l6.161-3.56c.633-.366 1.469-.55 2.3-.55.841 0 1.677.185 2.32.554l6.166 3.565c1.28.733 1.284 1.93.005 2.67l-6.157 3.559c-.637.368-1.468.55-2.304.55m-53.935-.91c-.837 0-1.676-.185-2.315-.554l-6.165-3.559c-1.28-.743-1.28-1.937-.001-2.672l6.156-3.558c.64-.37 1.477-.555 2.314-.555.836 0 1.671.185 2.309.553l6.167 3.565c1.276.735 1.278 1.932.004 2.672l-6.16 3.554c-.637.37-1.473.554-2.309.554m-26.189-.009c-.838 0-1.677-.184-2.317-.554l-6.169-3.564c-1.275-.736-1.277-1.933-.001-2.67l6.158-3.556c.638-.368 1.474-.552 2.31-.552.837 0 1.674.184 2.312.553l6.169 3.565c1.276.735 1.276 1.931.003 2.668l-6.161 3.56c-.636.367-1.47.55-2.304.55m100.59-2.375c-.836 0-1.673-.183-2.31-.55l-6.166-3.565c-1.28-.738-1.28-1.936-.005-2.672l.771-.445c.632-.368 1.468-.551 2.305-.551.84 0 1.677.184 2.319.552l6.162 3.564c1.279.739 1.279 1.935.005 2.673l-.767.443c-.642.368-1.478.551-2.314.551m-53.992-.946c-.838 0-1.674-.184-2.31-.552l-6.166-3.563c-1.282-.74-1.28-1.935-.004-2.675l6.16-3.554c.637-.37 1.473-.553 2.308-.553.837 0 1.674.184 2.312.553l6.164 3.564c1.28.738 1.283 1.933.007 2.669l-6.16 3.56c-.637.367-1.474.551-2.311.551m20.413-3.33c-.837 0-1.673-.185-2.31-.553l-6.167-3.566c-1.277-.737-1.28-1.93-.008-2.67l6.163-3.56c.636-.367 1.47-.551 2.305-.551.836 0 1.677.185 2.314.556l6.167 3.562c1.274.735 1.28 1.932.005 2.672l-6.162 3.555c-.637.37-1.473.555-2.307.555m-53.93-.91c-.835 0-1.671-.185-2.31-.553l-6.168-3.562c-1.278-.74-1.278-1.936-.002-2.674l6.157-3.557c.638-.368 1.474-.552 2.309-.552.838 0 1.676.184 2.316.554l6.169 3.563c1.273.738 1.276 1.934 0 2.67l-6.16 3.558c-.638.368-1.474.552-2.31.552m-26.19-.01c-.837 0-1.676-.184-2.315-.554l-6.166-3.563c-1.275-.738-1.279-1.932-.003-2.67l6.16-3.558c.637-.368 1.47-.552 2.306-.552.837 0 1.676.185 2.316.555l6.166 3.562c1.276.737 1.277 1.932.002 2.67l-6.156 3.559c-.638.368-1.474.552-2.31.552m100.598-2.376c-.836 0-1.677-.185-2.314-.553l-6.167-3.562c-1.28-.74-1.28-1.932-.005-2.67l.771-.447c.637-.368 1.474-.552 2.31-.552.836 0 1.672.184 2.31.554l6.166 3.563c1.279.739 1.279 1.934.005 2.672l-.767.443c-.637.368-1.473.552-2.31.552m-53.996-.945c-.836 0-1.673-.184-2.312-.552l-6.167-3.564c-1.278-.74-1.275-1.935 0-2.674l6.157-3.558c.638-.367 1.474-.55 2.31-.55.837 0 1.675.184 2.313.553l6.165 3.562c1.278.739 1.28 1.935.004 2.67l-6.16 3.56c-.636.369-1.473.553-2.31.553m20.417-3.332c-.84 0-1.677-.185-2.315-.553l-6.167-3.565c-1.276-.737-1.277-1.935-.005-2.668l6.162-3.559c.636-.368 1.471-.552 2.307-.552.837 0 1.674.184 2.313.554l6.169 3.56c1.273.738 1.278 1.937 0 2.673l-6.157 3.559c-.637.368-1.472.551-2.307.551m-53.934-.909c-.837 0-1.672-.184-2.31-.553l-6.166-3.563c-1.279-.739-1.28-1.936-.005-2.671l6.16-3.56c.637-.369 1.472-.552 2.306-.552.839 0 1.678.185 2.318.555l6.167 3.563c1.275.737 1.278 1.932 0 2.67l-6.157 3.558c-.639.369-1.476.553-2.313.553m74.41-2.384c-.837 0-1.678-.186-2.315-.556l-6.17-3.563c-1.276-.737-1.277-1.932-.002-2.67l.77-.445c.64-.369 1.475-.553 2.31-.553.837 0 1.673.184 2.31.553l6.172 3.565c1.274.737 1.274 1.935 0 2.674l-.767.443c-.637.368-1.473.552-2.309.552m-53.994-.947c-.837 0-1.675-.185-2.313-.555l-6.17-3.563c-1.276-.737-1.276-1.934 0-2.67l6.16-3.559c.637-.368 1.47-.552 2.306-.552.838 0 1.676.185 2.316.554l6.167 3.563c1.276.737 1.28 1.935.002 2.67l-6.158 3.559c-.637.368-1.473.553-2.31.553m20.413-3.33c-.838 0-1.676-.186-2.315-.558l-6.165-3.561c-1.278-.737-1.278-1.933-.003-2.67l6.155-3.559c.638-.368 1.475-.552 2.312-.552.838 0 1.676.185 2.314.553l6.165 3.562c1.276.739 1.28 1.937.005 2.672l-6.16 3.559c-.638.369-1.473.553-2.308.553m-53.785-.912a123.267 123.267 0 0 0 8.118-6.898l.203.117c1.277.738 1.28 1.936.002 2.67l-6.157 3.56c-.601.349-1.378.532-2.166.551m74.258-2.383c-.836 0-1.673-.184-2.31-.553l-6.167-3.564c-1.28-.736-1.283-1.933-.005-2.67l.771-.444c.639-.368 1.475-.553 2.313-.553.835 0 1.671.184 2.312.555l6.163 3.561c1.277.738 1.28 1.935.001 2.672l-.769.443c-.637.369-1.474.553-2.31.553m-53.992-.946c-.837 0-1.673-.185-2.31-.554l-6.169-3.563c-1.276-.74-1.276-1.933 0-2.671l6.159-3.56c.637-.368 1.473-.552 2.31-.552.835 0 1.672.184 2.31.553l6.166 3.564c1.278.738 1.28 1.935.005 2.67l-6.159 3.56c-.638.368-1.475.553-2.312.553m20.417-3.331c-.838 0-1.676-.186-2.315-.555l-6.166-3.562c-1.278-.738-1.278-1.933-.005-2.672l6.16-3.558c.637-.368 1.47-.551 2.305-.551.838 0 1.676.185 2.314.554l6.172 3.562c1.273.737 1.276 1.936.001 2.67l-6.16 3.559c-.636.369-1.47.553-2.306.553m20.475-3.294c-.838 0-1.676-.186-2.316-.555l-6.166-3.565c-1.276-.735-1.278-1.932-.005-2.669l.773-.443c.636-.368 1.471-.553 2.307-.553.837 0 1.675.185 2.314.556l6.168 3.56c1.276.738 1.276 1.934 0 2.672l-.769.445c-.636.368-1.47.552-2.306.552m-33.582-4.279c-.837 0-1.675-.185-2.312-.553l-6.132-3.541a156.01 156.01 0 0 0 4.292-5.195l1.829-1.056c.636-.369 1.47-.552 2.306-.552.838 0 1.676.185 2.315.554l6.168 3.564c1.276.738 1.276 1.93.003 2.67l-6.16 3.556c-.636.369-1.472.553-2.309.553m20.479-3.293c-.839 0-1.677-.185-2.317-.554l-6.166-3.565c-1.276-.734-1.28-1.932-.005-2.672l.771-.441c.638-.37 1.474-.554 2.31-.554.837 0 1.673.184 2.31.553l6.169 3.565c1.276.737 1.28 1.935.002 2.67l-.767.446c-.637.368-1.472.552-2.307.552m-13.106-7.571c-.837 0-1.676-.185-2.314-.554l-5.281-3.053a165.322 165.322 0 0 0 3.11-4.427l7.558 4.367c1.276.735 1.28 1.931.002 2.667l-.77.448c-.636.368-1.47.552-2.305.552" fill="#B0C0E6"/>
        <path d="m138.09 298-58.438-33.135c.195-.183.432-.356.712-.515l33.871-19.209c.965-.546 2.23-.818 3.493-.818 1.267 0 2.534.274 3.501.821l53.318 30.232c.668.379 1.09.84 1.296 1.324.366-.862.024-1.8-1.066-2.508 1.702 1.105 1.627 2.779-.222 3.828l-33.876 19.206c-.733.417-1.64.674-2.588.774m36.456-23.947-53.318-30.23 53.318 30.23m-95.54-9.554-.007-.004c.173-.53.616-1.035 1.329-1.448-.716.415-1.154.922-1.321 1.452m42.104-20.74c-.95-.505-2.164-.758-3.38-.759 1.216 0 2.43.254 3.38.759M113 242.792c.945-.527 2.16-.791 3.375-.792-1.215.001-2.43.265-3.375.792" fill="#1B60E8"/>
        <path d="M175.859 277c-.206-.488-.628-.954-1.296-1.336l-53.331-30.501c-.967-.552-2.235-.829-3.502-.829-1.264 0-2.529.275-3.494.827l-33.88 19.38c-.28.159-.516.333-.711.518L79 264.69c.167-.534.606-1.046 1.321-1.464a.146.146 0 0 0 .018-.01l.019-.01 33.878-19.38a1.433 1.433 0 0 1 .086-.048c.952-.518 2.175-.777 3.399-.778h.014c1.215.001 2.43.256 3.38.765a4.279 4.279 0 0 1 .117.065l53.33 30.5c.008.003.015.008.023.012.053.03.104.062.153.093h.001l.018.012a.044.044 0 0 0 .005.003l.016.01a.231.231 0 0 1 .011.007l.003.002c1.09.715 1.433 1.66 1.067 2.531" fill="#164CE2"/>
        <path fill="#28417C" d="M286 104 160 30.073V26l126 73.928V104"/>
        <path fill="#1855E5" d="M286 99 160 26l126 72.999V99"/>
        <path d="M286 103.903 159.742 31l.004 67.381c-.003 18.54-5.524 38.796-14.746 57.692L283.417 236c2.028-8.344 2.578-18.793 2.578-33.122l.005-98.975" fill="#F1F2F5"/>
        <path d="m272.99 166.01.01-92.736L147.848 1h-1.445v92.737c-.002 44.16-31.147 98.08-69.433 120.193L31 240.477l.72 1.248L156.873 314l45.97-26.547C241.533 265.111 273 210.632 272.99 166.01z" fill="#FFF"/>
        <path d="m31.798 240.703 124.57 71.956 45.614-26.346c38.482-22.227 69.777-76.42 69.767-120.81l.01-92.304L147.186 1.245h-.654v92.042c-.003 44.327-31.258 98.445-69.675 120.638L31.472 240.14l.326.564zM156.368 314a.62.62 0 0 1-.31-.084L31.032 241.698a.616.616 0 0 1-.228-.228l-.72-1.247a.618.618 0 0 1 .227-.85l45.925-26.526c38.072-21.995 69.05-75.63 69.052-119.56V.622A.624.624 0 0 1 145.91 0h1.443c.11 0 .216.03.31.085L272.69 72.3c.195.111.31.317.31.54l-.005 92.663c.01 44.784-31.57 99.462-70.393 121.886l-.31-.538.31.538-45.923 26.526a.62.62 0 0 1-.31.084z" fill="#F89319"/>
        <path d="M207 90.652V52.35c-.005-.94-.745-2.132-1.545-2.6-10.3-6.045-19.904-14.602-25.067-22.336-.523-.78-1.253-1.208-1.779-1.04-5.16 1.67-14.754-1.043-25.143-7.139-.392-.267-.758-.296-1.027-.14-.269.16-.441.501-.439.976V58.37c-.002 17.766 25.805 46.663 26.908 47.889.189.205.392.376.593.494.202.12.403.186.59.197.714.045 11.861.646 19.58-3.812l-.01.005c4.166-2.4 7.339-6.266 7.339-12.49" fill="#FFF8F0"/>
        <path d="M138.02 244.654c5.628-3.25 11.094-7.223 16.319-11.76l-49.44-28.535c-6.998 6.583-14.442 12.255-22.158 16.711l-8.942 5.162 48.07 27.75 16.152-9.328zm76.584-107.621c-1.331 17.07-6.775 35.151-15.12 52.155l49.937 28.809c8.466-17.508 13.574-36.134 13.574-52.905v-.152l-48.391-27.909v.002zm-15.385-77.766-.005.833c-.69-.399-1.246-.58-1.676-.544-.426.038-.836.334-1.221.89-.265.375-.67 1.388-1.23 3.043l-7.366 20.312-.785-.447-6.019-22.965-5.982 16.036-.7-.408-7.85-29.843c-.587-2.225-.957-3.556-1.115-3.991a6.113 6.113 0 0 0-1.06-1.883c-.449-.537-1.053-1.025-1.824-1.467V38l9.784 5.65-.002.831-.467-.27c-.69-.398-1.213-.521-1.576-.373-.365.15-.546.48-.546.991 0 .523.285 1.895.856 4.11l5.202 20.11 4.384-12.008-1.402-5.42a21.582 21.582 0 0 0-.915-2.507 6.055 6.055 0 0 0-.622-1.078 7.809 7.809 0 0 0-.977-1.147c-.245-.231-.638-.503-1.17-.81l.002-.832 10.288 5.942v.832l-.7-.407c-.732-.418-1.262-.548-1.597-.384-.34.165-.51.558-.51 1.171 0 .765.292 2.267.877 4.505l5.072 19.491 5.023-13.887c.57-1.526.856-2.65.856-3.37 0-.343-.095-.72-.286-1.127a3.459 3.459 0 0 0-.705-1.042c-.5-.495-1.136-.972-1.931-1.43v-.832l7.895 4.558zM184.985 161.1l-37.452-21.595c-.17.454-.35.907-.527 1.361l37.488 21.617c.17-.46.326-.923.49-1.383zm29.949-105.71L263 83.094l-.005-1.667-48.061-27.702v1.666zm-21.72 103.346c.146-.475.281-.952.421-1.425l-43.554-25.12c-.15.468-.294.938-.45 1.407l43.584 25.138zM214.94 84.22l-.005 1.666 41.817 24.1v-1.668L214.939 84.22zm-.005 15.247v1.668l48.061 27.71v-1.665l-48.061-27.713zm-24.37 40.895c.09-.504.184-1.007.27-1.507l-36.835-21.24c-.107.493-.209.986-.32 1.482l36.884 21.265zm24.37-63.766v1.665l48.061 27.707.005-1.666-48.066-27.706zm0-7.624v1.668l35.568 20.486-.005-1.668-35.563-20.486zm0-7.624v1.664l41.817 24.1v-1.668l-41.817-24.096zM145.1 252.173l48.12 27.777 1.446-.834-48.158-27.796c-.467.295-.941.567-1.408.853zm33.987-30.775c-.305.38-.61.76-.917 1.137l43.553 25.128c.31-.377.63-.742.946-1.121l-43.582-25.144zm-88.08 35.967-35.565-20.532-1.442.832L89.565 258.2l1.442-.835zm70.666 40.801-48.061-27.75-1.447.834L160.229 299l1.444-.834zm-12.146-14.639-29.315-16.923-1.443.835 29.316 16.924 1.442-.836zm65.407-176.434v1.666l23.065 13.28v-1.669l-23.065-13.277zm-74.919 148.076-1.442.832 41.82 24.138 1.444-.831-41.822-24.14zm-6.6 3.812-1.445.834 35.57 20.53 1.444-.833-35.568-20.531zm-23.308 1.79-48.065-27.75-1.443.835 48.065 27.75 1.443-.835zm83.998-83.773c.196-.448.38-.892.566-1.342l-50.067-28.88c-.19.443-.375.891-.566 1.336l50.067 28.886zm-67.294 85.794-1.44.835 48.063 27.748 1.445-.833-48.068-27.75zm29.423-159.425c-.053.524-.107 1.048-.165 1.572l23.678 13.639c.025-.554.021-1.097.036-1.647l-23.55-13.564zm12.65 129.577c-.347.356-.685.72-1.035 1.07l37.008 21.354c.36-.342.716-.7 1.076-1.05l-37.049-21.374zm4.224-4.503 49.681 28.671c.34-.359.675-.723 1.006-1.086l-49.693-28.678c-.326.371-.662.726-.994 1.093zm-52.778-40.949c-.303.383-.609.758-.916 1.14l49.99 28.845c.31-.373.621-.75.932-1.13l-50.006-28.855zm72.255 14.416c-.246.413-.49.827-.741 1.238l49.962 28.828c.25-.41.496-.827.74-1.24l-49.961-28.826zm-4.218 6.74c-.27.404-.54.802-.81 1.202l37.438 21.596c.27-.399.536-.798.806-1.201l-37.434-21.596zm20.388 20.867-24.903-14.356c-.283.391-.561.784-.85 1.172l24.877 14.344c.29-.388.59-.772.876-1.16zm-83.69-48.28c-.282.39-.558.79-.843 1.18l43.824 25.284c.29-.389.589-.77.878-1.159l-43.86-25.306zm-10.661 13.326 31.086 17.933c.335-.357.66-.726.996-1.092l-31.113-17.948c-.323.371-.644.74-.97 1.107zm49.092 43.618c-.374.343-.748.682-1.124 1.016l43.026 24.832c.39-.324.78-.66 1.166-.991l-43.068-24.857zm2.98-69.713-25.154-14.5c-.21.436-.424.868-.637 1.303l25.155 14.497c.212-.436.43-.866.637-1.3zm-9.726 75.517 30.19 17.42c.431-.307.856-.617 1.282-.931l-30.266-17.462c-.401.33-.804.648-1.206.973zm13.973-53.026c.252-.415.493-.83.74-1.243l-37.688-21.737c-.248.413-.488.828-.74 1.24l37.688 21.74zm8.183 13.903c.272-.4.542-.798.809-1.201l-50.15-28.935c-.266.403-.543.797-.81 1.202l50.151 28.934zm25.926-95.968-48.061-27.713v1.669l48.061 27.71v-1.666zm10.102 13.449v1.669l29.314 16.887v-1.667l-29.314-16.89zm-22.6-13.041-35.563-20.498v1.665l35.563 20.498V109.3zm6.25 11.23-41.886-24.15c-.022.543-.04 1.085-.066 1.633l41.951 24.184v-1.666zm16.35-5.812v1.669l35.563 20.494v-1.667l-35.563-20.496zm-59.847-2.762c.087-.506.177-1.014.255-1.52l48.975 28.245c-.05.525-.1 1.048-.16 1.574l-49.07-28.3z" fill="#FEF2E3"/>
        <path d="m91.527 328.194-68.872-39.351c-1.964-1.124-5.15-1.124-7.119 0l-12.06 6.895c-1.967 1.121-1.967 2.942-.004 4.066l68.87 39.354c1.966 1.123 5.15 1.123 7.119-.003l12.06-6.892c1.968-1.127 1.973-2.943.006-4.07" fill="#F1F2F5"/>
        <path fill="#EDEDEF" d="M22.998 285.289 27 274.793 22.998 269l-8 4.707-3.998 10.5L14.999 290l8-4.711"/>
        <path fill="#FFF" d="M22 269.02 13.91 264l-7.941 4.926L2 279.922l3.969 6.058 8.09 5.02-3.97-6.063 3.97-10.99L22 269.02"/>
        <path d="m9.982 283-6.424-3.856L3 278.32l3.82-10.25.117-.07L14 272.244a.66.66 0 0 0-.04.086L9.983 283" fill="#E6F3FE"/>
        <path fill="#CEE7FD" d="M5.95 285.015 14 290l-3.95-6.02L2 279l3.95 6.015"/>
        <path d="m5.395 284.14 6.14 3.35-2.634-3.538a.578.578 0 0 1-.073-.57l4.31-10.496a.618.618 0 0 1 .276-.305l7.66-4.18-7.5-4.093-8.106 4.423-4.103 9.999 4.03 5.41m8.34 5.86a.667.667 0 0 1-.32-.082l-8.784-4.794a.633.633 0 0 1-.204-.176l-4.31-5.785a.58.58 0 0 1-.074-.57l4.31-10.5a.614.614 0 0 1 .278-.307l8.622-4.705a.673.673 0 0 1 .642 0l8.784 4.795c.199.108.321.309.321.525a.601.601 0 0 1-.32.526l-8.428 4.598-4.103 9.994 4.112 5.525a.581.581 0 0 1-.052.758.66.66 0 0 1-.474.198" fill="#F89319"/>
        <path fill="#EDEDEF" d="M22.998 285.289 27 274.793 22.998 269l-8 4.707-3.998 10.5L14.999 290l8-4.711"/>
        <path fill="#FAA53F" d="M82 302.744 23.41 269l-8.274 4.763L11 284.391l4.136 5.863L73.73 324l-4.14-5.86 4.14-10.628 8.27-4.768"/>
        <path d="m68.82 318-57.24-32.923-.58-.821 3.97-10.186.12-.07L73 307.305a.586.586 0 0 0-.041.086L68.82 318" fill="#F89319"/>
        <path d="m71 322-56.671-32.327L11 285l57.408 32.752-.035.088a.612.612 0 0 0 .072.578L71 322" fill="#E68613"/>
        <path d="m15.232 290.316 56.649 32.151-2.554-3.563a.603.603 0 0 1-.072-.574l4.184-10.585a.612.612 0 0 1 .269-.308l7.424-4.218-57.967-32.9-7.861 4.46-3.98 10.077 3.908 5.46M74.02 325a.63.63 0 0 1-.311-.082l-59.217-33.61a.606.606 0 0 1-.198-.177l-4.18-5.838a.602.602 0 0 1-.07-.574l4.179-10.584a.615.615 0 0 1 .269-.309l8.363-4.744a.63.63 0 0 1 .623 0l59.211 33.607a.61.61 0 0 1 .312.53.61.61 0 0 1-.311.53l-8.169 4.64-3.984 10.078 3.992 5.568a.604.604 0 0 1-.049.766c-.121.13-.29.199-.46.199" fill="#F89319"/>
        <path fill="#EDEDEF" d="M93.496 323.436 95 319.933 93.496 318l-2.995 1.572L89 323.074 90.501 325l2.995-1.564"/>
        <path fill="#FFF" d="M93 317.974 81.753 302l-8.499 5.005L69 318.163l4.254 6.151 17.072.686-1.34-1.933 1.34-3.516L93 317.974"/>
        <path d="m88.565 323-18.347-4.38-.218-.307 4.03-10.283.054-.03L90 319.378a.619.619 0 0 0-.076.14l-1.334 3.402a.636.636 0 0 0-.025.08" fill="#E6F3FE"/>
        <path fill="#CEE7FD" d="m90 325-16.01-.702L70 318l18.743 5.02L90 325"/>
        <path d="m73.17 324.06 15.313.615-.593-.854a.647.647 0 0 1-.072-.6l1.326-3.473a.631.631 0 0 1 .27-.32l2.048-1.208-10.395-14.742-7.727 4.544-4.008 10.497 3.838 5.542M89.728 326h-.025l-16.892-.678a.622.622 0 0 1-.487-.27l-4.21-6.078a.646.646 0 0 1-.071-.598l4.21-11.024a.63.63 0 0 1 .27-.321l8.409-4.946a.622.622 0 0 1 .822.18l11.129 15.783a.647.647 0 0 1-.195.923l-2.456 1.447-1.125 2.946 1.132 1.63c.138.199.153.46.04.673a.626.626 0 0 1-.551.333" fill="#F89319"/>
        <path fill="#FAA53F" d="m98.599 324.503.401.689-.403 1.25-.806.558-6.588-1.554L90 323.397l1.203-3.725L93.6 318l4.998 6.503"/>
        <path fill="#F89319" d="M97.537 325 89 322.367 90.388 319 98 323.872 97.537 325"/>
        <path fill="#E68613" d="m98 326-6.967-1.185-.644-.11L89 323l8.542 2.426L98 326"/>
        <path d="m91.282 323.52 6.682 1.261.486-.269.24-.594-.222-.306-5.061-5.267-1.99 1.11-1.107 2.742.972 1.324zm6.79 2.48-.119-.011-7.15-1.349a.622.622 0 0 1-.385-.24l-1.305-1.778a.575.575 0 0 1-.071-.558l1.305-3.234a.597.597 0 0 1 .265-.298l2.603-1.451a.631.631 0 0 1 .761.11l5.425 5.645.052.062.435.598c.118.162.145.37.07.556l-.438 1.086a.603.603 0 0 1-.267.299l-.874.484a.628.628 0 0 1-.307.079z" fill="#F89319"/>
        <path d="M340 233.706c0 2.05-1.464 2.88-3.274 1.855l-37.447-21.256c-1.815-1.028-3.274-3.522-3.274-5.57L296 148.292c.005-2.046 1.47-2.878 3.279-1.853l37.447 21.26c1.81 1.024 3.274 3.515 3.269 5.563l.005 60.444" fill="#FFF"/>
        <path d="M297.429 146.239c-.202 0-.383.043-.534.129-.409.232-.64.792-.64 1.539l.005 60.28c-.005 1.815 1.34 4.114 2.937 5.021l37.236 21.2c.66.374 1.27.455 1.678.224.403-.231.64-.793.64-1.54l-.006-60.282c.005-1.813-1.34-4.108-2.937-5.013l-37.236-21.204c-.413-.234-.806-.354-1.143-.354zM337.576 236c-.559 0-1.158-.175-1.768-.523l-37.236-21.2c-2.005-1.138-3.567-3.813-3.567-6.09L295 147.906c0-1.218.453-2.144 1.27-2.608.816-.464 1.859-.384 2.927.225l37.236 21.204c2.005 1.136 3.567 3.809 3.562 6.084l.005 60.281c0 1.218-.448 2.144-1.265 2.61-.352.2-.74.298-1.159.298z" fill="#FEF2E3"/>
        <path d="M318 164.36c-5.282-3.173-9.562-.605-9.562 5.741 0 6.351 4.28 14.079 9.567 17.26 5.277 3.18 9.552.606 9.552-5.745l-9.552-5.752-.005-11.505zm4.523 37.615c0-.502-.34-1.114-.749-1.36l-18.015-10.848c-.419-.249-.754-.042-.754.45 0 .508.335 1.111.754 1.367l18.015 10.84c.414.255.75.05.75-.45zm5.239 6.776c-.005.503-.34.704-.754.454l-23.254-14c-.414-.247-.75-.858-.75-1.358-.004-.5.336-.704.755-.453l23.244 13.998c.418.249.754.86.759 1.36zm5.233-4.097c0 .5-.335.702-.754.45l-28.487-17.147c-.414-.254-.75-.86-.75-1.36 0-.502.336-.703.755-.455l28.482 17.148c.419.253.754.861.754 1.364zm-10.472 10.007c0-.497-.335-1.108-.749-1.356l-18.015-10.85c-.419-.249-.754-.044-.754.453-.005.5.335 1.113.754 1.36l18.015 10.849c.409.246.75.045.75-.456zm5.234 6.777c0 .503-.336.704-.754.455l-23.244-13.998c-.419-.25-.754-.858-.754-1.362 0-.497.335-.7.754-.453l23.249 13.999c.413.248.749.861.749 1.36zm5.243-4.097c-.005.5-.34.704-.759.45l-28.482-17.149c-.419-.248-.754-.86-.759-1.361.005-.498.34-.7.759-.449l28.482 17.15c.419.25.754.859.759 1.359z" fill="#F89319"/>
        <path d="M321 165v11.328l9 5.672c0-6.257-4.028-13.868-9-17" fill="#FEF2E3"/>
        <path d="m141.94 26.098-7.495 4.295c-.273.157-.447.495-.445.962v37.733c-.002 17.503 26.038 45.973 27.15 47.18.191.204.397.372.6.488.203.119.406.183.594.194.72.044 11.968.636 19.758-3.755l.004.006 7.589-4.35v-.003c4.153-2.371 7.305-6.171 7.305-12.254V58.855c-.005-.924-.752-2.097-1.554-2.562-10.398-5.953-20.087-14.385-25.3-22.004-.527-.77-1.262-1.189-1.794-1.024-5.202 1.643-14.888-1.028-25.368-7.034-.402-.267-.774-.29-1.045-.132v-.001" fill="#FFF"/>
        <path d="M196.435 56.57c-10.471-6.007-20.23-14.516-25.478-22.205-.531-.777-1.272-1.2-1.807-1.034-5.24 1.659-14.994-1.037-25.548-7.098-.405-.269-.78-.293-1.052-.133v-.001l-7.547 4.335H135c.272-.156.645-.128 1.044.139 10.557 6.061 20.306 8.758 25.55 7.097.534-.167 1.277.26 1.807 1.035 5.247 7.689 15.006 16.197 25.477 22.207.807.466 1.56 1.65 1.564 2.585v38.083c0 6.188-3.224 10.032-7.456 12.419l.01-.005.005.006 7.642-4.39v-.003c4.182-2.393 7.357-6.227 7.357-12.366V59.156c-.005-.932-.757-2.116-1.565-2.585" fill="#FEF2E3"/>
        <path d="m141.803 26.288-7.435 4.36c-.067.039-.136.19-.135.435v38.46c-.002 17.61 25.79 46.448 26.887 47.667.147.159.304.29.45.377.117.07.23.11.32.115.475.03 11.7.662 19.343-3.747l.083-.04 7.434-4.361.044-.029c4.624-2.7 6.97-6.72 6.97-11.946V59.115c-.004-.686-.61-1.694-1.245-2.07-10.423-6.108-20.158-14.775-25.401-22.617-.407-.608-.905-.858-1.094-.799-5.345 1.728-15.218-1.04-25.765-7.224-.221-.148-.367-.17-.42-.138l-.036.02zM163.793 119c-1.14 0-1.862-.04-1.976-.048a1.913 1.913 0 0 1-.868-.284 3.277 3.277 0 0 1-.735-.608C159.1 116.822 132.998 87.633 133 69.544V31.086c-.003-.684.27-1.24.751-1.523l7.467-4.378.038-.021c.49-.269 1.089-.206 1.654.178 10.221 5.992 19.716 8.718 24.743 7.093.803-.255 1.8.265 2.485 1.289 5.145 7.696 14.727 16.217 25.002 22.237 1.022.604 1.855 2.017 1.86 3.15V97.58c0 5.69-2.54 10.067-7.546 13.007l-.045.027-7.558 4.435-.093.044c-6.087 3.472-14.25 3.908-17.966 3.908z" fill="#F89319"/>
        <path fill="#F89319" d="M153 70.345 155.335 69l6.126 10.616 9.203-5.307L173 78.35 161.464 85z"/>
        <path d="m161.002 84.027-8.123-14.711 2.242-1.35L161 78.622l7.511-4.527c-1.83-3.631-4.516-6.853-7.511-8.664-5.525-3.337-10-.638-10 6.027.004 6.667 4.475 14.775 10 18.11 5.524 3.338 9.997.642 10-6.027 0-1.636-.274-3.363-.762-5.081l-9.236 5.567M88.758 155.856l.005.005-.042.037c-.162.155-.346.3-.535.444-.07.057-.132.116-.207.17-.057.04-.124.08-.184.118-.08.058-.172.107-.258.163-.147.09-.283.184-.443.272.147-.08.272-.17.407-.253a10.68 10.68 0 0 1-2.204 1 10.07 10.07 0 0 0-1.41-2.575c-3.21.153-6.501-.473-8.95-1.878-1.32-.76-2.23-1.658-2.761-2.613 1.153-1.357 3.279-2.434 6.02-2.859 5.026-.77 10.193.944 11.542 3.832.68 1.46.252 2.934-.98 4.137m-17.65 8.862-.113.078c-.154.102-.308.201-.473.3-.056.032-.112.066-.17.098-.165.095-.329.19-.501.274-.072.04-.148.07-.219.107l-.04.017a11.578 11.578 0 0 1-1.21.512c-2.584.944-5.81 1.289-8.995.799-2.34-.36-4.305-1.119-5.75-2.112-.049-.031-.102-.065-.149-.1-.048-.031-.09-.073-.136-.104a6.867 6.867 0 0 1-.544-.446c-.07-.06-.141-.116-.205-.18l-.062-.055.005-.005c-1.48-1.451-2-3.228-1.182-4.982 1.63-3.48 7.854-5.55 13.911-4.618.163.026.32.06.481.09.244.29.454.599.606.921.748 1.6.164 3.218-1.355 4.482 1.146.882 2.504 1.658 4.022 2.309 1.347-.537 2.935-.84 4.595-.918a4.047 4.047 0 0 1-.332 1.1c-.431.924-1.196 1.74-2.184 2.433m24.794-12.463c-.416-.408-.757-.852-.982-1.332-.747-1.6-.163-3.218 1.352-4.482-1.145-.881-2.497-1.658-4.019-2.306-2.194.872-5.012 1.209-7.79.78-2.778-.433-4.93-1.532-6.075-2.915-.933.063-1.871.152-2.805.296a28.38 28.38 0 0 0-2.683.548c.217 1.527-.688 3.094-2.72 4.264-.374.213-.789.38-1.203.55-.185-.03-.362-.072-.55-.099a40.247 40.247 0 0 0-3.384-.357c-.434.525-1.002 1.013-1.665 1.456-.21 0-.417.02-.625.008-.15.199-.28.4-.41.604-1.282.663-2.838 1.17-4.618 1.444-3.35.52-6.746.112-9.391-.936-1.833.78-3.462 1.713-4.843 2.778 1.827 1.524 2.53 3.475 1.63 5.4-.27.58-.68 1.113-1.183 1.606-1.172 1.147-2.902 2.05-4.938 2.603.267 1.32.868 2.6 1.77 3.796 3.203-.148 6.498.473 8.953 1.883 2.447 1.407 3.534 3.296 3.273 5.137 1.043.26 2.113.49 3.24.665a39.82 39.82 0 0 0 3.374.354c1.384-1.67 3.973-2.994 7.32-3.513 3.353-.517 6.749-.11 9.39.941 1.831-.784 3.47-1.716 4.851-2.783-1.832-1.522-2.535-3.47-1.634-5.4.158-.334.373-.655.614-.968 1.173.526 2.115 1.194 2.746 1.961a34.491 34.491 0 0 0 2.802-.296c.934-.146 1.82-.337 2.687-.553-.217-1.527.685-3.09 2.716-4.262 2.038-1.169 4.771-1.686 7.43-1.562.748-.993 1.245-2.056 1.468-3.148-1.69-.461-3.125-1.209-4.098-2.162" fill="#FEF2E3"/>
        <path d="M52.35 144.008c2.482-2.524 7.571-3.863 12.554-3.072 2.954.47 5.313 1.599 6.747 3.052-2.484 2.525-7.572 3.864-12.552 3.074-2.957-.47-5.317-1.601-6.749-3.054M85 139.05c-.264-1.342-.858-2.642-1.747-3.867-3.164.153-6.41-.485-8.824-1.916-2.416-1.43-3.49-3.358-3.232-5.23a33.876 33.876 0 0 0-3.186-.676 38.249 38.249 0 0 0-3.336-.361c-1.359 1.696-3.913 3.047-7.215 3.574-3.302.53-6.65.116-9.258-.954-1.807.798-3.413 1.744-4.774 2.83v6.71c.158.137.298.28.44.424-1.155 1.169-2.86 2.09-4.868 2.654v6.707c.263 1.345.856 2.647 1.744 3.868 3.159-.154 6.407.481 8.827 1.915 2.413 1.436 3.485 3.358 3.228 5.232 1.028.264 2.082.498 3.193.677 1.11.175 2.22.284 3.327.363 1.364-1.703 3.917-3.047 7.217-3.578 3.305-.527 6.653-.114 9.257.956 1.806-.796 3.42-1.747 4.783-2.835v-6.707c-.161-.138-.3-.284-.444-.427 1.158-1.169 2.862-2.083 4.868-2.65v-6.709" fill="#FFF"/>
        <path d="M45.034 137.393c.888-1.923.194-3.87-1.606-5.393v6.58c.158.136.298.277.44.417.495-.492.9-1.025 1.166-1.604M85 138.473c-2.867.791-5.147 2.279-6.036 4.206-.888 1.924-.195 3.87 1.612 5.392-.161-.136-.3-.28-.444-.42 1.158-1.146 2.862-2.042 4.868-2.597v-6.58M66.536 149.91c-3.3.518-5.853 1.84-7.217 3.509a40.02 40.02 0 0 1-3.327-.356 36.43 36.43 0 0 1-3.193-.662c.257-1.842-.815-3.725-3.228-5.13-2.42-1.409-5.668-2.032-8.827-1.881-.888-1.198-1.48-2.475-1.744-3.79v6.577c.263 1.318.856 2.595 1.744 3.793 3.159-.151 6.407.472 8.827 1.878 2.413 1.408 3.485 3.294 3.228 5.13 1.028.26 2.082.49 3.193.665 1.11.172 2.22.279 3.327.356 1.364-1.67 3.917-2.988 7.217-3.51 3.305-.516 6.653-.11 9.257.939 1.806-.781 3.42-1.714 4.783-2.78v-6.578c-1.363 1.064-2.977 1.997-4.783 2.778-2.604-1.05-5.952-1.455-9.257-.938m1.407-4.368c1.503-.55 2.787-1.308 3.708-2.227-1.434-1.425-3.793-2.532-6.747-2.993-4.983-.775-10.072.538-12.554 3.012.536.536 1.204 1.023 1.983 1.45-2.903-1.588-4.25-4.028-3.143-6.43 1.607-3.473 7.743-5.54 13.714-4.61 5.966.926 9.508 4.496 7.904 7.972-.762 1.655-2.557 2.985-4.865 3.826" fill="#FEF2E3"/>
        <path d="M53.443 143.007c1.469 1.146 3.62 1.97 6.144 2.342 4.543.67 9.329-.296 11.97-2.36-1.469-1.145-3.619-1.968-6.141-2.341-4.543-.67-9.332.295-11.973 2.359m9.003 3.77c-1.017 0-2.041-.073-3.053-.222-3.097-.457-5.708-1.563-7.353-3.114a.596.596 0 0 1 0-.868c2.766-2.614 8.347-3.901 13.57-3.13 3.095.456 5.705 1.561 7.35 3.11.122.115.19.271.19.434 0 .163-.068.32-.19.435-2.23 2.108-6.29 3.354-10.514 3.354m-8.815 11.14c.97.221 1.869.392 2.734.52.926.137 1.911.24 3.08.324 1.605-1.69 4.372-2.93 7.662-3.423 3.306-.49 6.82-.173 9.69.865 1.635-.687 3.09-1.485 4.336-2.375v-5.892a8.764 8.764 0 0 1-.187-.173l-.08-.074a.598.598 0 0 1-.193-.436c0-.164.069-.322.191-.437 1.178-1.104 2.85-1.99 4.859-2.577v-5.949c-.238-1.08-.74-2.145-1.49-3.168-3.407.1-6.727-.602-9.158-1.94-2.417-1.331-3.741-3.166-3.711-5.102a34.394 34.394 0 0 0-2.725-.519 40.295 40.295 0 0 0-3.09-.321c-1.607 1.693-4.374 2.931-7.66 3.419-3.298.492-6.812.177-9.69-.864-1.634.689-3.088 1.485-4.329 2.371v5.896c.079.07.154.14.23.212l.036.034a.597.597 0 0 1 .191.435c0 .163-.069.32-.19.435-1.182 1.111-2.856 1.999-4.86 2.582v5.946c.238 1.086.738 2.15 1.487 3.17 3.409-.099 6.729.6 9.16 1.94 2.413 1.334 3.735 3.169 3.707 5.102M59.718 160l-.044-.001a43.705 43.705 0 0 1-3.505-.357 39.507 39.507 0 0 1-3.37-.663.612.612 0 0 1-.478-.678c.24-1.616-.867-3.231-3.036-4.43-2.306-1.27-5.518-1.913-8.807-1.766a.673.673 0 0 1-.541-.243c-.987-1.26-1.635-2.598-1.925-3.974l-.012-.12V141.3c0-.275.193-.516.47-.589 1.727-.45 3.191-1.13 4.278-1.982a.596.596 0 0 1-.155-.398v-6.469c0-.188.092-.366.248-.482 1.437-1.065 3.15-2.01 5.092-2.806a.669.669 0 0 1 .488-.006c2.718 1.036 6.096 1.358 9.27.883 3.137-.464 5.722-1.642 7.092-3.23a.661.661 0 0 1 .535-.221c1.343.086 2.46.199 3.515.354 1.043.153 2.143.37 3.364.664a.611.611 0 0 1 .477.677c-.24 1.618.867 3.232 3.04 4.428 2.306 1.27 5.516 1.914 8.804 1.765a.657.657 0 0 1 .542.245c.99 1.266 1.637 2.601 1.927 3.972l.013.121v6.47a.616.616 0 0 1-.47.588c-1.729.453-3.193 1.131-4.277 1.978.1.11.157.252.157.4v6.466a.602.602 0 0 1-.247.482c-1.443 1.07-3.16 2.016-5.101 2.811a.657.657 0 0 1-.489.006c-2.709-1.033-6.088-1.356-9.269-.885-3.14.47-5.726 1.649-7.094 3.235a.65.65 0 0 1-.492.222" fill="#F89319"/>
        <path d="M83.397 132.93c-4.116.632-8.319-.433-10.372-2.438 1.186-1.154 3.135-2.053 5.575-2.424 4.117-.63 8.321.435 10.37 2.44-1.184 1.152-3.13 2.05-5.573 2.422M62 131.899c1.654.45 3.063 1.175 4.018 2.105-.118.11-.233.226-.364.338v5.328c1.125.86 2.458 1.615 3.948 2.249 2.154-.851 4.92-1.18 7.65-.759 2.728.421 4.836 1.487 5.96 2.84.916-.064 1.834-.15 2.751-.288a31.084 31.084 0 0 0 2.638-.535c-.213-1.49.673-3.017 2.666-4.157 2-1.138 4.682-1.642 7.292-1.521.735-.97 1.222-2.006 1.441-3.07v-5.328c-1.659-.447-3.068-1.177-4.022-2.107a7.56 7.56 0 0 1 .363-.338v-5.328c-1.124-.859-2.45-1.613-3.945-2.247-2.153.849-4.92 1.178-7.646.76-2.727-.42-4.838-1.49-5.962-2.841a33 33 0 0 0-2.753.288 28.03 28.03 0 0 0-2.634.535c.213 1.49-.675 3.017-2.67 4.157-1.994 1.135-4.675 1.641-7.29 1.519-.735.972-1.226 2.008-1.441 3.072v5.328" fill="#395495"/>
        <path d="M74 132a8.789 8.789 0 0 1-1.265-.544 6.62 6.62 0 0 1-.732-.452L72 131c.558.398 1.238.736 2 1" fill="#FFF"/>
        <path d="M73 132c-.362-.316-.696-.65-1-1 .302.347.634.677.994.991L73 132" fill="#0040E4"/>
        <path d="M88 131c-1.7-1.235-4.74-1.998-8-2 3.26.001 6.3.765 8 2" fill="#FFF"/>
        <path d="M83.213 145c-1.125-1.432-3.233-2.56-5.962-3.006a14.907 14.907 0 0 0-2.399-.194c-1.903 0-3.73.36-5.25.997-1.49-.67-2.823-1.47-3.948-2.38v-5.64c1.125.91 2.458 1.71 3.948 2.38 1.524-.636 3.355-.997 5.262-.997.788 0 1.59.061 2.387.19 2.729.446 4.837 1.58 5.962 3.012.915-.07 1.833-.157 2.75-.307a28.69 28.69 0 0 0 2.638-.569c-.213-1.575.673-3.19 2.666-4.396 1.806-1.092 4.17-1.633 6.534-1.633.253 0 .506.006.758.018.735-1.023 1.222-2.117 1.441-3.246v5.64c-.22 1.126-.706 2.223-1.441 3.25a15.422 15.422 0 0 0-.757-.02c-2.364 0-4.729.54-6.535 1.629-1.799 1.089-2.696 2.512-2.697 3.938 0 .154.01.309.03.463a30.716 30.716 0 0 1-2.637.566c-.217.035-.434.066-.652.096-.7.093-1.4.157-2.098.209m-17.56-10.224c.132-.118.247-.24.365-.358-.955-.984-2.364-1.752-4.018-2.228v-5.64c2.368.675 4.252 1.952 4.984 3.602.734 1.652.16 3.32-1.33 4.624m21.679-2.814a7.318 7.318 0 0 0 1.638-1.244c-.018-.02-.037-.038-.056-.057l-.03-.031-.017-.015c-1.671-1.65-4.66-2.67-7.868-2.671h-.011c-.789 0-1.59.061-2.39.19-2.44.393-4.388 1.345-5.574 2.566.2.207.42.404.657.59.271.213.567.413.882.598-1.161-.677-2.044-1.547-2.494-2.56-1.327-2.979 1.6-6.038 6.53-6.834.799-.129 1.602-.19 2.392-.19 4.086 0 7.826 1.647 8.936 4.143.916 2.058-.197 4.148-2.595 5.515m8.645-4.964c-.408-.42-.743-.879-.964-1.374-.733-1.648-.16-3.32 1.327-4.624v5.64a7.75 7.75 0 0 0-.363.358" fill="#28417C"/>
        <path d="M73.493 130.493c2.091 1.674 5.789 2.447 9.297 1.89 1.922-.302 3.566-.96 4.713-1.875-2.088-1.675-5.782-2.448-9.297-1.893-1.921.302-3.566.96-4.713 1.878zm7.045 3.31c-3.37 0-6.61-1.066-8.396-2.869a.63.63 0 0 1 .001-.886c1.321-1.329 3.409-2.275 5.878-2.664 4.168-.657 8.622.446 10.832 2.682a.631.631 0 0 1 0 .886c-1.321 1.328-3.408 2.273-5.876 2.66-.808.129-1.628.19-2.439.19zm-6.143 6.847c.827 0 1.658.063 2.472.193 2.606.416 4.803 1.463 6.092 2.891.916-.071 1.68-.158 2.383-.268.661-.106 1.344-.243 2.074-.417.014-1.646 1.076-3.2 2.987-4.33 1.928-1.134 4.564-1.73 7.251-1.659.562-.828.941-1.696 1.128-2.585v-4.946c-1.573-.5-2.886-1.251-3.817-2.19a.63.63 0 0 1 0-.887l.179-.178v-4.893a17.432 17.432 0 0 0-3.327-1.946c-2.286.873-5.07 1.137-7.681.722-2.606-.413-4.803-1.46-6.095-2.892-.885.068-1.668.156-2.385.27-.662.102-1.33.235-2.071.414-.013 1.647-1.076 3.2-2.99 4.332-1.929 1.135-4.553 1.73-7.25 1.656-.566.836-.945 1.705-1.127 2.587v4.948c1.574.503 2.886 1.253 3.814 2.186.118.118.183.28.182.45a.627.627 0 0 1-.19.445l-.096.094-.077.076v4.894c.959.726 2.077 1.38 3.33 1.948 1.574-.603 3.385-.915 5.214-.915zM82.7 145a.603.603 0 0 1-.47-.227c-1.064-1.323-3.088-2.307-5.55-2.7-2.5-.398-5.156-.127-7.286.743a.591.591 0 0 1-.467-.006c-1.546-.68-2.911-1.484-4.058-2.391a.63.63 0 0 1-.236-.493v-5.477c0-.113.03-.222.085-.317-.837-.679-1.955-1.224-3.27-1.594a.62.62 0 0 1-.448-.6v-5.477l.012-.122c.23-1.178.75-2.325 1.543-3.409a.594.594 0 0 1 .516-.249c2.59.124 5.105-.413 6.916-1.478 1.68-.993 2.537-2.322 2.354-3.648a.622.622 0 0 1 .455-.69c.982-.252 1.832-.43 2.676-.561.83-.131 1.743-.23 2.788-.302a.61.61 0 0 1 .511.225c1.066 1.325 3.09 2.31 5.551 2.7 2.497.397 5.151.126 7.283-.743a.6.6 0 0 1 .466.006c1.536.674 2.9 1.478 4.055 2.389a.63.63 0 0 1 .236.493v5.477a.63.63 0 0 1-.085.317c.84.683 1.96 1.23 3.274 1.596a.62.62 0 0 1 .449.6v5.478l-.012.124c-.237 1.185-.756 2.33-1.543 3.404a.636.636 0 0 1-.516.249c-2.589-.125-5.107.415-6.917 1.48-1.678.992-2.535 2.322-2.352 3.648a.622.622 0 0 1-.456.69c-.955.243-1.83.425-2.674.561-.816.128-1.7.224-2.787.302L82.7 145z" fill="#28417C"/>
        <path d="M295 73.631c0 1.98 1.399 4.39 3.129 5.385l35.747 20.56c1.73.99 3.124.189 3.124-1.793V82.37c0-1.98-1.394-4.393-3.124-5.389L298.13 56.425c-1.725-.992-3.129-.188-3.129 1.796v15.41" fill="#FFF"/>
        <path d="M297.338 57.239a.97.97 0 0 0-.498.122c-.384.22-.604.755-.599 1.468v15.326c0 1.74 1.282 3.947 2.797 4.82l35.547 20.449c.618.356 1.191.435 1.575.215.38-.218.594-.752.594-1.464l.005-15.329c0-1.742-1.282-3.952-2.797-4.825l-35.547-20.444c-.389-.224-.758-.338-1.077-.338zM335.662 101c-.534 0-1.112-.17-1.7-.506l-35.547-20.449c-1.914-1.104-3.415-3.69-3.415-5.89V58.83c0-1.182.429-2.084 1.216-2.537.788-.454 1.79-.377 2.822.215l35.542 20.445c1.914 1.103 3.415 3.691 3.42 5.894l-.005 15.33c0 1.181-.429 2.08-1.216 2.532a2.194 2.194 0 0 1-1.117.292z" fill="#28417C"/>
        <path d="M320.526 81.753c0-.497-.338-1.097-.751-1.34l-18.019-10.718c-.423-.256-.756-.05-.756.443 0 .497.338 1.095.756 1.345l18.019 10.719c.413.243.756.049.751-.45zm5.235 6.693c.005.5-.338.692-.752.45l-23.253-13.83c-.423-.252-.756-.85-.756-1.346 0-.489.333-.696.756-.445l23.253 13.832c.414.245.757.847.752 1.339zM331 84.399c0 .494-.338.696-.756.447l-28.493-16.95c-.418-.249-.751-.842-.751-1.34 0-.497.338-.699.756-.449l28.488 16.943c.413.25.756.856.756 1.349z" fill="#DDE5F6"/>
        <path fill="#FFF" d="M133.345 335 147 343.093v8.588L134.655 359 121 350.904v-8.588L133.345 335"/>
        <path fill-opacity=".224" fill="#546BA2" d="m135 359-14-7.764V343l14 7.764V359"/>
        <path fill-opacity=".748" fill="#546BA2" d="M147 351.638 135 359v-8.639L147 343v8.638"/>
        <path d="m121.236 350.995 12.913 7.64 11.615-6.871v-7.762l-12.914-7.637-11.614 6.868v7.762zM134.149 360a.603.603 0 0 1-.308-.085l-13.532-8.007a.635.635 0 0 1-.309-.548v-8.492c0-.227.118-.435.31-.548l12.232-7.235a.603.603 0 0 1 .617 0l13.532 8.004c.191.113.309.321.309.548v8.492a.635.635 0 0 1-.31.548l-12.232 7.238a.605.605 0 0 1-.309.085z" fill="#28417C"/>
        <path d="M19.611 177.613a5.494 5.494 0 0 1 7.778 0 5.496 5.496 0 0 1 0 7.775 5.497 5.497 0 0 1-7.778 0 5.496 5.496 0 0 1 0-7.775" fill="#FFF"/>
        <path d="M25.64 183.64c1.806-1.802 2.054-4.557.772-6.64.356.217.697.468 1.005.776a5.401 5.401 0 0 1 0 7.64 5.4 5.4 0 0 1-7.642 0 5.351 5.351 0 0 1-.775-1.002c2.082 1.279 4.836 1.03 6.64-.774" fill="#FEF2E3"/>
        <path d="M23 176.219h-.002a4.74 4.74 0 0 0-3.378 1.402 4.746 4.746 0 0 0-1.401 3.38c0 1.276.498 2.475 1.4 3.379A4.747 4.747 0 0 0 23 185.782a4.748 4.748 0 0 0 3.38-1.402 4.749 4.749 0 0 0 1.402-3.38 4.746 4.746 0 0 0-1.401-3.379 4.746 4.746 0 0 0-3.382-1.402zM23 187a5.957 5.957 0 0 1-4.242-1.759 5.958 5.958 0 0 1-1.758-4.24c0-1.603.624-3.109 1.757-4.241a5.954 5.954 0 0 1 4.241-1.76H23c1.604 0 3.11.625 4.244 1.76A5.956 5.956 0 0 1 29 181a5.958 5.958 0 0 1-1.758 4.242A5.955 5.955 0 0 1 23.001 187z" fill="#FAA53F"/>
        <path d="M90.996 67.843c0-.726-.44-1.453-1.316-2.008-.88-.556-2.03-.835-3.18-.835h-.003c-1.149 0-2.299.279-3.176.835-.88.555-1.32 1.282-1.32 2.008H82v2.094c0 2.98 1.057 8.068 1.057 12.064 0 3.996-1.057 9.513-1.057 12.435v1.721c0 .729.44 1.455 1.318 2.01.878.556 2.03.833 3.18.833h.002c1.152 0 2.302-.277 3.182-.832.879-.556 1.318-1.282 1.318-2.01v-1.722c0-2.922-1.06-8.439-1.06-12.435 0-3.996 1.06-9.084 1.06-12.064v-2.094h-.004" fill="#395495"/>
        <path d="M85 99V71.742h.004c1.534 0 3.068-.267 4.238-.801 1.017-.464 1.591-1.054 1.725-1.66.02-.094.031-.187.031-.281H91v2.017c0 2.87-1.413 7.768-1.413 11.616 0 3.847 1.413 9.16 1.413 11.972v1.658c0 .701-.586 1.4-1.758 1.936C88.07 98.734 86.536 99 85 99" fill="#28417C"/>
        <path d="M86.501 71c-1.151 0-2.302-.334-3.182-1-.87-.659-1.31-1.519-1.319-2.382v-.029h.002c0-.87.44-1.74 1.32-2.404.084-.065.171-.126.261-.184v2.591c0 .754.346 1.432.975 1.907.53.4 1.22.622 1.943.622.724 0 1.414-.221 1.942-.622.628-.475.974-1.153.974-1.907V65c.09.058.18.12.265.185.876.665 1.316 1.535 1.316 2.404H91c0 .116-.007.233-.023.349-.101.753-.531 1.488-1.294 2.065-.879.665-2.03.996-3.182.996V71" fill="#334C8A"/>
        <path d="M85.004 71H85c1.544 0 3.087-.217 4.266-.651 1.022-.377 1.598-.857 1.734-1.349-.134.493-.712.972-1.734 1.349-1.177.434-2.72.651-4.262.651" fill="#2586ED"/>
        <path d="M86 64h-.003c-1.484 0-2.899.352-3.984.99-1.24.728-1.967 1.8-2.009 2.953l-.004.105v2.064c0 1.445.248 3.305.51 5.275.301 2.254.612 4.585.612 6.614 0 2.043-.328 4.612-.616 6.88-.26 2.04-.506 3.967-.506 5.375v1.696c0 1.195.734 2.31 2.012 3.06 1.082.637 2.497.988 3.985.988 1.49 0 2.907-.35 3.99-.987 1.28-.75 2.013-1.866 2.013-3.06v-1.697c0-1.408-.246-3.335-.507-5.375-.29-2.268-.617-4.837-.617-6.88 0-2.028.31-4.36.612-6.613.264-1.97.512-3.831.512-5.276V68.05c0-.05-.003-.099-.008-.147-.057-1.137-.78-2.192-2.005-2.912C88.898 64.35 87.483 64 86 64m0 1.246c1.22 0 2.44.275 3.374.823.93.547 1.396 1.263 1.396 1.979h.005v2.064c0 2.937-1.124 7.951-1.124 11.89 0 3.937 1.124 9.375 1.124 12.254v1.696c0 .718-.466 1.434-1.4 1.982-.932.547-2.153.82-3.375.82h-.003c-1.22 0-2.442-.273-3.373-.82-.933-.548-1.399-1.264-1.399-1.982v-1.696c0-2.88 1.122-8.317 1.122-12.255 0-3.938-1.122-8.952-1.122-11.89v-2.063h.002c0-.716.467-1.432 1.4-1.979.93-.548 2.15-.823 3.37-.823H86" fill="#273D71"/>
        <path d="M85.66 56.662A19.901 19.901 0 0 1 83 55v14.454c0 .397.292.79.88 1.091.586.303 1.353.455 2.118.455H86c.766 0 1.536-.152 2.12-.455.587-.302.879-.694.879-1.091V57.917a14.589 14.589 0 0 1-3.34-1.255" fill="#395495"/>
        <path d="M87.003 70H87v-6c.683.161 1.351.261 2 .3v4.906c0 .148-.168.325-.45.475-.396.212-.972.319-1.547.319" fill="#28417C"/>
        <path d="M84.188 55.848v12.114c0 .148.152.328.407.48.729.431 2.091.427 2.808 0 .257-.152.41-.332.41-.48V57.763a11.737 11.737 0 0 1-2.382-1.089c-.41-.243-.826-.519-1.243-.826m-.186 13.65C83.356 69.117 83 68.57 83 67.963V54.61c0-.236.132-.45.34-.552.208-.1.454-.07.63.08.69.583 1.381 1.08 2.054 1.479.845.501 1.698.87 2.534 1.097.26.07.442.313.442.59v10.658c0 .607-.356 1.154-1.002 1.537-.543.323-1.252.501-1.997.501-.745 0-1.453-.178-1.999-.501z" fill="#273D71"/>
        <path d="M87.11 28.775c-3.565-2.078-6.793-2.267-9.126-.903v.002l-4.21 2.445-.002.003-.005.002h.001c-2.331 1.359-3.771 4.269-3.768 8.407-.004 8.29 5.77 18.36 12.883 22.5 3.564 2.07 6.79 2.26 9.124.9l4.217-2.45c2.333-1.36 3.776-4.27 3.776-8.41.005-8.293-5.769-18.363-12.89-22.496" fill="#FFF"/>
        <path d="M74.003 30.311c2.401-1.356 5.72-1.165 9.385.903 7.327 4.117 13.272 14.15 13.268 22.413 0 4.12-1.486 7.016-3.883 8.37V62l4.34-2.44C99.516 58.204 101 55.305 101 51.18c.005-8.263-5.938-18.295-13.267-22.412-3.67-2.07-6.991-2.26-9.393-.9v.002L74 30.31h.003" fill-opacity=".665" fill="#546BA2"/>
        <path d="m73.827 30.43-.026.016c-2.294 1.296-3.554 4.074-3.551 7.825-.005 8.024 5.78 17.815 12.893 21.828 3.33 1.875 6.43 2.192 8.726.894l4.324-2.435c2.294-1.296 3.557-4.075 3.557-7.827.005-8.03-5.782-17.819-12.9-21.823-3.31-1.87-6.394-2.197-8.687-.922l-.042.026-4.29 2.415-.004.003M88.728 63c-1.918 0-4.031-.619-6.21-1.845C75.06 56.948 68.995 46.682 69 38.271c-.004-4.188 1.468-7.334 4.145-8.863l.012-.008.024-.014 4.272-2.405.041-.026c2.702-1.531 6.247-1.213 9.982.897 7.462 4.2 13.529 14.462 13.524 22.88 0 4.205-1.485 7.359-4.182 8.882l-4.323 2.434c-1.125.636-2.396.952-3.767.952" fill="#28417C"/>
        <path d="M83.494 58.47C77.146 54.892 71.994 46.188 72 39.02c-.008-7.158 5.149-10.07 11.499-6.488C89.85 36.108 95.005 44.814 95 51.982c0 7.16-5.154 10.063-11.506 6.488" fill-opacity=".508" fill="#9BB5F3"/>
        <path d="M82 60c-6.075-3.674-11.005-12.61-11-19.97V40v.03c-.005 7.36 4.925 16.296 11 19.97" fill="#FFF"/>
        <path d="M88.22 60c-1.506 0-3.205-.491-5.003-1.529C77.022 54.89 71.995 46.178 72 39.003v-.171l.001-.026v-.001c.058-4.737 2.354-7.555 5.723-7.805-.918 1.351-1.447 3.217-1.445 5.531-.005 7.173 5.023 15.888 11.218 19.47 1.801 1.038 3.5 1.523 5.01 1.523.167 0 .331-.006.493-.018C91.898 59.125 90.23 60 88.22 60" fill="#8D9CC1"/>
    </g>
</svg>
