<svg id="Capa_1" enable-background="new 0 0 512 512" height="512" viewBox="0 0 512 512" width="512" xmlns="http://www.w3.org/2000/svg"><g><path d="m96.042 349.238-11.336 11.336c-2.929 2.929-2.929 7.677 0 10.606 1.464 1.464 3.384 2.197 5.303 2.197s3.839-.732 5.303-2.197l11.336-11.336c2.929-2.929 2.929-7.678 0-10.606-2.928-2.929-7.677-2.929-10.606 0z"/><path d="m440.006 349.238c-2.929-2.929-7.678-2.929-10.606 0-2.929 2.929-2.929 7.678 0 10.606l11.336 11.336c1.464 1.464 3.384 2.197 5.303 2.197s3.839-.732 5.303-2.197c2.929-2.929 2.929-7.677 0-10.606z"/><path d="m482.871 262.847-76.522-5.887c-.211-.016-.394-.163-.455-.366l-17.327-57.756c-4.035-13.448-16.178-22.483-30.218-22.483h-70.801v-56.629c0-8.556-6.96-15.516-15.516-15.516h-256.516c-8.556 0-15.516 6.96-15.516 15.516v192.387c0 8.556 6.96 15.516 15.516 15.516h45.533c-6.397 6.795-10.826 15.458-12.356 25.081h-9.129c-4.142 0-7.5 3.357-7.5 7.5 0 4.142 3.358 7.5 7.5 7.5h9.129c3.608 22.685 23.3 40.08 46.984 40.08s43.377-17.396 46.985-40.08h250.725c3.608 22.685 23.3 40.08 46.984 40.08s43.376-17.396 46.984-40.08h1.113c12.976 0 23.532-10.557 23.532-23.532v-49.876c0-16.382-12.795-30.199-29.129-31.455zm-467.871 49.266v-192.387c0-.284.231-.516.516-.516h256.516c.285 0 .516.231.516.516v232.984h-129.886c-1.53-9.623-5.959-18.286-12.356-25.081h117.677c4.142 0 7.5-3.357 7.5-7.5 0-4.142-3.358-7.5-7.5-7.5h-232.467c-.285 0-.516-.232-.516-.516zm80.677 80.677c-17.965 0-32.581-14.615-32.581-32.58s14.616-32.581 32.581-32.581 32.581 14.616 32.581 32.581-14.615 32.58-32.581 32.58zm344.694 0c-17.965 0-32.581-14.615-32.581-32.58s14.616-32.581 32.581-32.581 32.581 14.616 32.581 32.581-14.616 32.58-32.581 32.58zm48.097-40.08h-1.113c-3.608-22.685-23.3-40.081-46.984-40.081s-43.376 17.396-46.984 40.081h-105.839v-161.356h70.801c7.364 0 13.734 4.74 15.851 11.793l1.581 5.271h-55.652c-8.556 0-15.516 6.96-15.516 15.516v24.048c0 12.976 10.557 23.532 23.532 23.532h40.081c4.142 0 7.5-3.358 7.5-7.5s-3.358-7.5-7.5-7.5h-40.081c-4.705 0-8.532-3.828-8.532-8.532v-24.048c0-.285.231-.516.516-.516h60.152l11.245 37.484c1.829 6.098 7.324 10.524 13.672 11.012l76.522 5.886c8.568.659 15.279 7.907 15.279 16.5v2.295h-8.532c-4.142 0-7.5 3.358-7.5 7.5s3.358 7.5 7.5 7.5h8.533v32.581c0 4.706-3.828 8.534-8.532 8.534z"/><path d="m384.258 312.629h-72.146c-4.142 0-7.5 3.358-7.5 7.5 0 4.143 3.358 7.5 7.5 7.5h72.146c4.142 0 7.5-3.357 7.5-7.5 0-4.142-3.358-7.5-7.5-7.5z"/></g></svg>