<svg width="208" height="176" viewBox="0 0 208 176" xmlns="http://www.w3.org/2000/svg">
    <g fill="#F89319" fill-rule="evenodd">
        <g fill-rule="nonzero">
            <path d="M113.862 16.372a2.516 2.516 0 0 0 3.132-1.689l2.922-9.738a2.515 2.515 0 1 0-4.82-1.445l-2.922 9.738a2.518 2.518 0 0 0 1.688 3.134zM130.397 20.156c1.19.647 2.68.208 3.328-.98l4.75-8.737a2.448 2.448 0 0 0-.064-2.45 2.455 2.455 0 0 0-4.25.11l-4.75 8.735a2.447 2.447 0 0 0 .986 3.322zM148.607 28.41c.723 0 1.41-.331 1.875-.905l6.444-7.951a2.624 2.624 0 0 0 .454-2.522c-.296-.864-1.017-1.496-1.887-1.653a2.402 2.402 0 0 0-2.315.892l-6.443 7.951a2.627 2.627 0 0 0-.348 2.714c.402.897 1.268 1.472 2.22 1.473zM163.955 40.91a2.45 2.45 0 0 0 1.581-.58l7.624-6.442a2.49 2.49 0 0 0 .265-3.457 2.447 2.447 0 0 0-3.425-.339l-7.624 6.442a2.49 2.49 0 0 0-.727 2.743 2.46 2.46 0 0 0 2.308 1.63l-.002.002zM46.921 27.477a2.406 2.406 0 0 0 2.319.894c.87-.158 1.593-.79 1.89-1.656a2.63 2.63 0 0 0-.455-2.526l-6.454-7.966a2.39 2.39 0 0 0-3.44-.281c-1.027.9-1.167 2.491-.314 3.57l6.454 7.965zM64.276 19.173a2.454 2.454 0 0 0 4.248.112c.459-.746.483-1.68.065-2.449L63.84 8.1a2.457 2.457 0 0 0-3.328-.983 2.448 2.448 0 0 0-.986 3.323l4.75 8.734zM32.417 40.339a2.495 2.495 0 1 0 3.05-3.95l-7.384-5.705a2.495 2.495 0 1 0-3.05 3.95l7.384 5.705zM81.006 14.683a2.516 2.516 0 1 0 4.82-1.445l-2.923-9.739a2.516 2.516 0 1 0-4.82 1.445l2.923 9.739zM98.716 14.773c1.412 0 2.557-1.103 2.557-2.462V2.462c0-1.36-1.145-2.462-2.557-2.462s-2.557 1.102-2.557 2.462v9.849c0 1.36 1.145 2.462 2.557 2.462zM65.126 92.398a96.094 96.094 0 0 1-35.428-27.524 100.757 100.757 0 0 1 16.36-16.109 2.476 2.476 0 0 0 .424-3.494 2.52 2.52 0 0 0-3.52-.422 106.377 106.377 0 0 0-18.438 18.503 2.473 2.473 0 0 0 0 3.045 101.495 101.495 0 0 0 38.562 30.546 2.515 2.515 0 0 0 3.31-1.26 2.48 2.48 0 0 0-1.27-3.285z"/>
            <path d="M173.477 66.53a2.5 2.5 0 0 0 0-3.06C154.55 39.02 127.407 25 99.013 25a89.658 89.658 0 0 0-48.29 14.347 2.5 2.5 0 0 0 2.69 4.215 86.998 86.998 0 0 1 20.354-9.54 39.91 39.91 0 0 0 .25 62.15V100a7.5 7.5 0 0 0-7.499 7.5 7.5 7.5 0 0 0 7.499 7.5h49.991a2.5 2.5 0 0 1 0 5H74.017a2.5 2.5 0 0 0 0 5c0 13.807 11.19 25 24.996 25 13.804 0 24.995-11.193 24.995-25a7.466 7.466 0 0 0 5.55-12.5 7.468 7.468 0 0 0-5.55-12.5v-3.828A39.648 39.648 0 0 0 139.006 65a40.232 40.232 0 0 0-.935-8.54 2.5 2.5 0 1 0-4.884 1.065 35.16 35.16 0 0 1 .82 7.475 34.725 34.725 0 0 1-13.998 27.953 2.5 2.5 0 0 0-1 2V100h-9.998V82.3c8.466-4.861 12.16-15.144 8.723-24.282a2.5 2.5 0 0 0-2.104-1.613 2.474 2.474 0 0 0-2.372 1.182A4.951 4.951 0 0 1 109.01 60a5 5 0 0 1-5-5c0-1.742.916-3.356 2.41-4.25a2.5 2.5 0 0 0-.43-4.475 19.949 19.949 0 0 0-18.4 2.284A19.956 19.956 0 0 0 79.017 65a20.103 20.103 0 0 0 9.998 17.3V100h-9.998v-5.052a2.5 2.5 0 0 0-1-2A34.98 34.98 0 0 1 95.3 30.215a34.97 34.97 0 0 1 34.707 18.535 2.5 2.5 0 1 0 4.427-2.325 40.151 40.151 0 0 0-10.093-12.387A93.771 93.771 0 0 1 168.316 65a95.923 95.923 0 0 1-35.327 27.657 2.5 2.5 0 0 0 2.035 4.568 101.336 101.336 0 0 0 38.453-30.695zM99.013 145c-11.04-.012-19.985-8.96-19.997-20h39.993c-.012 11.04-8.958 19.988-19.996 20zm27.495-37.5a2.5 2.5 0 0 1-2.5 2.5H74.017a2.5 2.5 0 0 1 0-5h49.991a2.5 2.5 0 0 1 2.5 2.5zm-33.92-28.965A15 15 0 0 1 99.014 50c.437 0 .874.02 1.307.057a10.001 10.001 0 0 0 1.623 12.01 9.997 9.997 0 0 0 12.007 1.626c.04.432.06.87.06 1.307a15.068 15.068 0 0 1-8.574 13.535 2.5 2.5 0 0 0-1.424 2.25V100h-9.999V80.793a2.5 2.5 0 0 0-1.424-2.258z"/>
            <path d="M150.492 98.632a2.407 2.407 0 0 0-2.312-.864c-.864.162-1.579.79-1.876 1.648a2.63 2.63 0 0 0 .436 2.512l6.452 7.962a2.405 2.405 0 0 0 2.309.865 2.482 2.482 0 0 0 1.876-1.644 2.628 2.628 0 0 0-.433-2.51l-6.452-7.97zM165.584 86.429a2.432 2.432 0 0 0-2.447-.494 2.477 2.477 0 0 0-.697 4.27l7.584 6.413a2.433 2.433 0 0 0 3.403-.34 2.48 2.48 0 0 0-.256-3.436l-7.587-6.413zM46.929 98.648l-6.442 7.955c-.873 1.076-.742 2.684.293 3.592a2.387 2.387 0 0 0 3.454-.305l6.442-7.948a2.627 2.627 0 0 0 .454-2.522c-.296-.865-1.017-1.497-1.887-1.655a2.401 2.401 0 0 0-2.314.893v-.01zM32.417 86.366l-7.384 5.704a2.498 2.498 0 1 0 3.05 3.95l7.384-5.703a2.498 2.498 0 1 0-3.05-3.951z"/>
        </g>
        <path d="M42.3 13.029c-62.57 6.876-39.94 84.72-30.257 117.398 20.575 70.197 99.244 42.36 146.445 20.575 42.36-19.365 68.987-49.622 29.047-87.14C160.91 38.444 108.386 5.766 42.301 13.028" fill-opacity=".124"/>
    </g>
</svg>
